<?xml version="1.0" standalone="no"?>
<!DOCTYPE svg PUBLIC "-//W3C//DTD SVG 1.1//EN" "http://www.w3.org/Graphics/SVG/1.1/DTD/svg11.dtd" >
<svg xmlns="http://www.w3.org/2000/svg" xmlns:xlink="http://www.w3.org/1999/xlink" version="1.1">
<metadata>
Created by FontForge 20170731 at Tue Sep 16 11:59:47 2014
 By Aleksey,,,
Vecna (c) (Neale Davidson). 2014. All Rights Reserved
</metadata>
<defs>
<font id="Vecna-Bold" horiz-adv-x="1600" >
  <font-face 
    font-family="Vecna"
    font-weight="700"
    font-stretch="normal"
    units-per-em="2048"
    panose-1="2 0 5 0 0 0 0 0 0 0"
    ascent="1638"
    descent="-410"
    x-height="986"
    cap-height="1420"
    bbox="-99 -419 2107 1887"
    underline-thickness="150"
    underline-position="-442"
    unicode-range="U+001D-F002"
  />
<missing-glyph horiz-adv-x="1650" 
d="M0 200v1100q0 200 200 200h1100q200 0 200 -200v-1100q0 -200 -200 -200h-1100q-200 0 -200 200zM1475 201v1099q0 175 -175 175h-1100q-174 0 -175 -175v-1100q1 -175 175 -175h1101q174 0 174 176z" />
    <glyph glyph-name=".notdef" horiz-adv-x="1650" 
d="M0 200v1100q0 200 200 200h1100q200 0 200 -200v-1100q0 -200 -200 -200h-1100q-200 0 -200 200zM1475 201v1099q0 175 -175 175h-1100q-174 0 -175 -175v-1100q1 -175 175 -175h1101q174 0 174 176z" />
    <glyph glyph-name=".null" horiz-adv-x="0" 
 />
    <glyph glyph-name=".null" horiz-adv-x="0" 
 />
    <glyph glyph-name="nonmarkingreturn" horiz-adv-x="508" 
 />
    <glyph glyph-name="space" unicode=" " horiz-adv-x="800" 
 />
    <glyph glyph-name="space" unicode="&#xa0;" horiz-adv-x="800" 
 />
    <glyph glyph-name="exclam" unicode="!" horiz-adv-x="317" 
d="M48 316l-74 963l218 155l50 -158l-63 -872zM-3 29v121l111 67l113 -67v-121l-113 -63z" />
    <glyph glyph-name="quotedbl" unicode="&#x22;" horiz-adv-x="657" 
d="M243 1118l-325 -418l132 396l-75 45v145l134 80l134 -80v-168zM582 1118l-328 -420l136 398l-77 45v145l135 80l134 -80v-168z" />
    <glyph glyph-name="numbersign" unicode="#" horiz-adv-x="1086" 
d="M403 998h38v-1h134q0 43 -1.5 91.5t-8 92t-17.5 75t-29 44.5l-26 26l116 58q42 -34 66.5 -56.5t52.5 -46.5l80 -73l-33 -16q-14 -4 -23 -20.5t-14 -43.5t-5 -61v-69l27 1q39 1 73.5 8.5t59.5 19.5t66 76l54 -143l-156 -219q-20 64 -33 73.5t-34 14.5t-57 7v-106h-1v-132
q1 0 28 1q39 1 73.5 8.5t59.5 19.5t66 76l54 -143l-156 -219q-20 64 -33 73.5t-34 14.5t-58 7v-20q0 -47 1.5 -95.5t8 -92t17.5 -75t29 -44.5l26 -26l-116 -58q-42 34 -66.5 56.5t-52.5 46.5l-80 73l33 16q14 4 23 20.5t14 43.5t5 62v93h-172v-20q0 -47 1.5 -95.5t8 -92
t17.5 -75t29 -44.5l26 -26l-116 -58q-42 34 -66.5 56.5t-52.5 46.5l-80 73l33 16q14 4 23 20.5t14 43.5t5 62v93h-18q-39 -2 -73.5 -9.5t-59.5 -19.5t-66 -76l-54 143l156 219q20 -64 33 -73.5t34 -14.5t48 -6h7q0 1 -7 1v179h1v57h-19q-39 -2 -73.5 -9.5t-59.5 -19.5
t-66 -76l-54 143l156 219q20 -64 33 -73.5t34 -14.5t49 -12q0 47 -1.5 95.5t-8 92t-17.5 75t-29 44.5l-26 26l116 58q42 -34 66.5 -56.5t52.5 -46.5l80 -73l-33 -16q-14 -4 -23 -20.5t-14 -43.5t-5 -61v-69zM575 836h-172v-106h-1v-132h39v-1h133v182h1v57z" />
    <glyph glyph-name="dollar" unicode="$" horiz-adv-x="953" 
d="M345 892v151q0 47 -1 96q-1 17 -1 21q-3 -2 -17 -10q-29 -17 -49.5 -43.5t-20.5 -71.5q0 -38 22 -72.5t59 -63.5q5 -4 8 -7zM529 278q49 15 82 45q29 33 36 60.5t7 59.5q-5 29 -26.5 54t-56.5 48.5t-69 38.5v-218q0 -47 2 -96q5 1 25 8zM275 154l-217 72
q-21 78 -41.5 142.5t-54.5 179.5l69 -35q16 -8 33.5 -16.5t17.5 -18.5q58 -109 146 -163q61 -38 116 -46v387q-32 15 -75 40q-61 33 -109 76t-78 97.5t-30 122.5q0 13 1.5 29t5.5 32q11 49 70 92.5t127 78.5q47 23 75 35q-4 21 -13 49q-11 29 -29 42l-26 26l116 58
q42 -34 66.5 -56.5t52.5 -46.5l34 -31l241 -89q6 -41 9 -71.5t7 -60.5q3 -17 5 -35t4 -46l-91 -49q-25 74 -42 113t-43 63t-67 39q-28 9 -47 11q-5 -27 -5 -58v-312q7 -4 27 -12q66 -27 126 -56.5t107.5 -67.5t78.5 -88t36 -120v-8q0 -58 -47.5 -116t-109.5 -107.5
t-123 -87.5q-50 -31 -67 -42q10 -28 27 -41l26 -26l-116 -58q-42 34 -66.5 56.5t-52.5 46.5l-80 73z" />
    <glyph glyph-name="percent" unicode="%" horiz-adv-x="1137" 
d="M184 1026q0 -26 4 -56.5t11 -61t18.5 -58t26.5 -47t32.5 -29.5t37.5 -10q41 0 68 38q13 18 22.5 42.5t15 49.5t8 50.5t2.5 47.5q0 54 -11.5 104.5t-31.5 88t-44 57t-50 19.5t-46 -19t-34.5 -53t-21.5 -77.5t-7 -85.5zM593 376q0 -26 4 -56.5t11 -61t18.5 -58t26.5 -47
t32.5 -29.5t37.5 -10q41 0 68 38q13 18 22.5 42.5t15 49.5t8 50.5t2.5 47.5q0 54 -11.5 104.5t-31.5 88t-44 57t-50 19.5t-46 -19t-34.5 -53t-21.5 -77.5t-7 -85.5zM309 680q-78 0 -141 24t-106 68.5t-65 105.5t-22 134q0 65 16 120t53 99.5t94.5 76.5t138.5 52q6 2 21.5 5
t34.5 7t37.5 7t41.5 6q16 -8 32.5 -20.5t40 -31.5t48 -44t47.5 -54.5t40.5 -63t24.5 -66.5q4 -21 6 -42.5t2 -38.5q0 -29 -6 -65v-1q2 0 48 148l182 294h170l-117 -162q-79 -129 -142 -229q-27 -43 -52 -84.5t-45.5 -75.5t-32.5 -53q-12 -25 -45 -76l-8 -30l81 20
q6 2 21.5 5t34.5 7t37.5 7t41.5 6q16 -8 32.5 -20.5t40 -31.5t48 -44t47.5 -54.5t40.5 -63t24.5 -66.5q4 -21 6 -42.5t2 -38.5q0 -29 -6 -65.5t-21 -75t-39.5 -74t-63 -65t-92 -47t-122.5 -17.5q-78 0 -141 24t-106 68.5t-65 105.5t-22 134q0 20 -3 20q-6 0 -21 -64l13 21
q0 -1 -30 -52q-93 -157 -203 -338q-46 58 -66.5 82.5t-50.5 62.5l25 27l14 12l6 5q9 10 26 29t43 56t65.5 96t97.5 149q38 63 69 110q12 22 25.5 42t23 36t15.5 24l6 8q-61 -8 -130 -8z" />
    <glyph glyph-name="ampersand" unicode="&#x26;" horiz-adv-x="1418" 
d="M1123 -43l-257 270q-41 -55 -96 -116q-23 -24 -47.5 -50t-49 -45.5t-48 -33.5t-45.5 -14h-13q-153 0 -278 40q-56 19 -111 49t-98.5 78t-71.5 112t-33 153q0 20 33 75t84.5 119t113.5 126.5t102 87.5l3 -3q-29 29 -58 62t-52.5 70.5t-40 79t-16.5 86.5q0 33 20.5 72.5
t50 77t65.5 71.5t68.5 59.5t57.5 41.5q28 16 46 16h8q107 -39 186 -86q34 -21 67 -46t59 -56t41 -65q12 -31 12 -64v-8q-5 -60 -30.5 -101.5t-62 -73t-80 -55t-84.5 -45.5l2 1l337 -358q16 19 46 69q24 44 45.5 103.5t31.5 206.5l144 -225q-19 -17 -46.5 -56.5t-62.5 -85.5
q-39 -54 -79 -111q38 -54 96 -102q46 -42 107.5 -75.5t185.5 -33.5zM619 1104q0 36 -9.5 70t-27.5 60.5t-45 42t-63 15.5q-28 0 -51.5 -13.5t-41.5 -35.5t-27 -52t-9 -62q0 -54 27 -89t66 -71l48 -47q8 6 36 28t50 45.5t34.5 49.5t12.5 59zM781 320q-93 110 -192.5 216
t-206.5 192q-21 -10 -54 -40t-58.5 -66t-39.5 -76.5t-14 -83.5q0 -64 22.5 -116t61 -90t92 -57.5t116.5 -19.5q88 0 155 43t118 98z" />
    <glyph glyph-name="quotesingle" unicode="'" horiz-adv-x="320" 
d="M-82 698l135 398l-77 45v145l135 80l134 -80v-168z" />
    <glyph glyph-name="parenleft" unicode="(" horiz-adv-x="496" 
d="M337 -144q-91 94 -154 174t-109 168.5t-72.5 185.5t-26.5 300q0 201 26.5 300t72.5 191.5t108.5 177.5t152.5 175l91 -91q-208 -276 -210 -753q2 -477 200 -733z" />
    <glyph glyph-name="parenright" unicode=")" horiz-adv-x="496" 
d="M-20 -49q198 256 200 733q-2 477 -210 753l91 91q90 -90 152.5 -175t108.5 -177.5t72.5 -191.5t26.5 -300q0 -203 -26.5 -300t-72.5 -185.5t-109 -168.5t-154 -174z" />
    <glyph glyph-name="asterisk" unicode="*" horiz-adv-x="613" 
d="M218 1365q-2 24 -29 73q-34 62 -34 82q0 36 28 59t72 23q43 0 72 -21.5t29 -55.5q0 -23 -34 -86q-27 -49 -28 -74q14 6 52 46q48 53 71 60q15 4 27 4q24 0 46 -13q30 -20 42 -57q6 -20 6 -37q0 -15 -4 -28q-12 -38 -50 -49q-11 -2 -24 -2q-25 0 -71 8q-22 4 -44 4h-32
q18 -23 65 -45q66 -30 80 -48q14 -21 14 -44q0 -10 -3 -19q-8 -32 -41 -57q-32 -24 -94 -24v1q-18 0 -39 30q-13 19 -23 90q-7 55 -16 68q-9 -13 -15 -67q-9 -70 -22 -87q-22 -31 -62 -33h-6q-33 0 -64 22q-34 23 -44 56q-4 10 -4 22q0 20 13 38q15 20 81 52q49 23 66 44
h-31q-21 0 -41 -3q-50 -11 -74 -11q-15 0 -23 4q-35 11 -49 45q-6 14 -6 31t6 37q12 37 39 56q21 16 46 16q13 0 25 -4q24 -7 76 -61q37 -39 51 -45z" />
    <glyph glyph-name="plus" unicode="+" horiz-adv-x="1087" 
d="M425 753v90q0 47 -1.5 95.5t-8 92t-17.5 75t-29 44.5l-26 26l116 58q42 -34 66.5 -56.5t52.5 -46.5l80 -73l-33 -16q-14 -4 -23 -20.5t-14 -43.5t-5 -61v-165h97q39 0 79.5 1.5t75 9t59.5 19.5t66 76l54 -143l-156 -219q-20 64 -33 73.5t-34 14.5t-49.5 6t-61.5 1h-98
v-125q0 -47 1.5 -95.5t8 -92t17.5 -75t29 -44.5l26 -26l-116 -58q-42 34 -66.5 56.5t-52.5 46.5l-80 73l33 16q14 4 23 20.5t14 43.5t5 62v198h-118v1q-38 0 -77 -1q-41 -2 -75.5 -9.5t-59.5 -19.5t-66 -76l-54 143l156 219q20 -64 33 -73.5t34 -14.5t49.5 -6t61.5 -1h117z
" />
    <glyph glyph-name="comma" unicode="," horiz-adv-x="320" 
d="M-79 -419l130 397l-75 43v147l134 75l135 -75v-170z" />
    <glyph glyph-name="hyphen" unicode="-" horiz-adv-x="1087" 
d="M306 592q-38 0 -77 -1q-41 -2 -75.5 -9.5t-59.5 -19.5t-66 -76l-54 143l156 219q20 -64 33 -73.5t34 -14.5t49.5 -6t61.5 -1l372 -1q39 0 79.5 1.5t75 9t59.5 19.5t66 76l54 -143l-156 -219q-20 64 -33 73.5t-34 14.5t-49.5 6t-61.5 1h-374v1z" />
    <glyph glyph-name="hyphen" unicode="&#xad;" horiz-adv-x="1087" 
d="M306 592q-38 0 -77 -1q-41 -2 -75.5 -9.5t-59.5 -19.5t-66 -76l-54 143l156 219q20 -64 33 -73.5t34 -14.5t49.5 -6t61.5 -1l372 -1q39 0 79.5 1.5t75 9t59.5 19.5t66 76l54 -143l-156 -219q-20 64 -33 73.5t-34 14.5t-49.5 6t-61.5 1h-374v1z" />
    <glyph glyph-name="period" unicode="." horiz-adv-x="319" 
d="M-25 35v147l134 78l135 -78v-147l-135 -80z" />
    <glyph glyph-name="slash" unicode="/" horiz-adv-x="1054" 
d="M530 921l297 479h170l-117 -162q-79 -129 -142 -229q-27 -43 -52 -84.5t-45.5 -75.5t-32.5 -53q-12 -26 -131 -206q-91 -147 -184 -303.5t-203 -337.5q-46 58 -66.5 82.5t-50.5 62.5l25 27l14 12l6 5q9 10 26 29t43 56t65.5 96t97.5 149q38 63 69 110q12 22 25.5 42
t23 36t15.5 24l6 8q140 236 141 233z" />
    <glyph glyph-name="zero" unicode="0" horiz-adv-x="972" 
d="M581 1417q84 -82 146 -169q53 -77 101.5 -176.5t61.5 -212.5q3 -42 5 -92t2 -91q0 -104 -22 -225t-74.5 -228t-141.5 -180t-223 -73q-107 0 -192 50.5t-145 140.5t-92 215t-32 276q0 272 99.5 449.5t318.5 265.5q10 4 37 12.5t54.5 16.5t53 14.5t43.5 6.5zM191 694
q0 -87 15 -191t47 -193.5t81 -145.5t114 -56t110 51t73 131.5t38.5 169t10.5 151.5v9q0 105 -22 214t-60.5 196.5t-88 138.5t-102.5 51t-94.5 -45.5t-69 -123t-40 -172.5t-12.5 -185z" />
    <glyph glyph-name="one" unicode="1" horiz-adv-x="476" 
d="M86 1158l-5 -5q-8 -8 -14.5 -17t-43.5 -53l-51 168l327 184v-1073q0 -37 0.5 -70.5t7.5 -59t17.5 -40t27.5 -19.5l77 -17l-295 -189l-184 65l61 34q22 14 37 43t24 70.5t11.5 88.5t2.5 94v796z" />
    <glyph glyph-name="two" unicode="2" horiz-adv-x="975" 
d="M281 262q-22 -21 -34 -41.5t-12 -42.5q0 -16 1 -18h280q19 0 36 -1t34 -1q29 0 55 5.5t48.5 23t42.5 54.5t46 151l124 -140l-72 -272h-597l-283 183l64 18q12 6 20.5 14.5t16.5 21.5l555 697q29 34 44 69.5t15 78.5v18q-5 49 -25 80t-46 47.5t-54.5 23t-49.5 6.5h-18
q-58 -5 -94 -26.5t-58 -58t-35 -90t-27 -153.5l-122 74v267l277 166q116 -4 206 -38q40 -15 79.5 -36.5t74.5 -53.5t62.5 -75.5t42.5 -98.5q5 -26 7 -46t2 -39q0 -63 -22.5 -108t-56.5 -95z" />
    <glyph glyph-name="three" unicode="3" horiz-adv-x="887" 
d="M294 776q18 0 27 -1l151 182q23 29 37.5 61t14.5 70v17q-4 46 -21.5 74.5t-40.5 44t-50 20.5t-46 5h-16q-52 -4 -85.5 -23.5t-55 -53t-32 -82t-24.5 -143.5l-117 70v246l260 153q106 -4 191 -34q36 -14 73.5 -34t69 -49.5t57 -69.5t39.5 -91q12 -52 12 -102
q0 -57 -17 -104t-47 -88l-119 -112q20 -6 72.5 -34t93.5 -73t66 -103.5t25 -131.5q0 -93 -43.5 -170t-113.5 -133t-156.5 -86.5t-173.5 -30.5q-47 0 -102.5 10t-107 33t-90.5 61t-52 103l238 162v-76q0 -38 13.5 -74.5t36 -63t54 -42t66.5 -15.5q49 0 89 20.5t70 57t46 83
t16 96.5q0 61 -29.5 112.5t-75.5 88t-102 55.5t-112 19q-34 0 -68 -0.5t-122 -20.5l130 197h71z" />
    <glyph glyph-name="four" unicode="4" horiz-adv-x="1036" 
d="M184 639h303v334l204 183v-517h311l-248 -175h-63v-102q0 -37 1 -70.5t8 -59t18.5 -40t28.5 -19.5l78 -17l-287 -189l-193 65l62 34q23 14 40 43.5t25 70.5t11.5 88.5t3.5 93.5v102h-354l-115 -74l-45 186l36 35q19 59 44 122q21 54 53.5 117.5t73.5 116.5
q91 121 168 205.5t135 138.5q67 61 146 118l123 -190q-99 -43 -170 -87q-62 -36 -129.5 -86.5t-111.5 -112.5q-45 -59 -75 -111t-48.5 -93t-26.5 -70t-8 -39h1v-1z" />
    <glyph glyph-name="five" unicode="5" horiz-adv-x="931" 
d="M240 840q5 0 31 3q38 3 86 3q64 0 141 -12t148 -48t125 -102t76 -168q9 -47 9 -84q0 -84 -33 -166t-91.5 -148t-139 -107t-173.5 -41h-21q-182 0 -280.5 45t-146.5 153l218 172l14 -77q7 -40 30.5 -72.5t58 -56.5t75 -37.5t77.5 -13.5h18q5 0 12 2q42 6 75 28.5t56 55.5
t35 76.5t12 89.5q0 34 -9 74q-13 62 -44 106.5t-73.5 74.5t-93.5 45t-102 15q-32 0 -62 -5q-36 -6 -71 -12.5t-71 -21.5h-59l31 554l-44 38l131 140l28 -6q29 15 67 33q35 16 75.5 28t79.5 16q15 0 28 1t28 1q74 0 130.5 -8.5t95.5 -17.5q47 -12 101 -36l-127 -204
q-59 46 -96 67q-33 19 -72 33.5t-79 14.5h-7q-44 -4 -72.5 -11t-47 -17t-29 -18.5t-14.5 -13.5q-3 -5 -7 -14q-1 -2 -1 -4z" />
    <glyph glyph-name="six" unicode="6" horiz-adv-x="950" 
d="M766 1300q-103 -1 -174 -55.5t-134 -138.5t-112.5 -180t-64.5 -131q5 1 74.5 27.5t125.5 39.5l170 37q69 -79 115 -153q41 -65 75 -147.5t34 -172.5q0 -99 -36.5 -182t-99.5 -145t-148.5 -95.5t-183.5 -33.5q-104 0 -184 44t-135 115t-84 162.5t-29 188.5
q0 115 31.5 228.5t84.5 216.5t125.5 192.5t155 155t173 104.5t182.5 39h39v-116zM205 431q0 -60 14 -126t44 -119.5t74 -86.5t108 -33q53 0 88.5 29t59.5 75.5t33 103.5t9 108q0 70 -13 137t-42 118.5t-74.5 80.5t-113.5 29h-13q-28 -2 -63 -25t-68 -42q-21 -62 -32 -120
t-11 -129z" />
    <glyph glyph-name="seven" unicode="7" horiz-adv-x="981" 
d="M421 203q-4 -17 -4 -29q0 -20 6.5 -34t12.5 -18l47 -35l-271 -122l-144 128l41 21q37 20 59 49.5t50 91.5l402 908q5 11 5 38q0 15 -1 30q-1 9 -1 11v1l-254 -8q-7 0 -16.5 -1t-20.5 -1q-44 0 -78.5 -4.5t-60.5 -22t-49.5 -56.5t-50.5 -167l-119 145l68 272h610l274 -187
q-44 -18 -53 -22q-7 -3 -15 -8.5t-12 -11.5z" />
    <glyph glyph-name="eight" unicode="8" horiz-adv-x="929" 
d="M279 692q-37 25 -79 60t-77 78t-60 94.5t-25 111.5q0 56 29 119q3 10 28 50t54 85q32 53 84 130q67 -16 108 -22q35 -7 67.5 -12.5t43.5 -7.5q64 -11 129.5 -29.5t120.5 -53.5t89 -88t34 -130q0 -69 -23.5 -121t-62.5 -92.5t-88 -73t-76 -48.5l-3 2q49 -38 99.5 -87
t90 -106t66 -121.5t26.5 -137.5q0 -11 -20 -57.5t-45 -96.5q-27 -59 -66 -143q-91 -4 -154 -8q-54 -3 -101 -6.5t-56 -5.5q-31 -5 -65 -5q-70 0 -137.5 24.5t-119 68.5t-83.5 106.5t-32 140.5q0 76 29.5 137t76.5 110.5t105 87.5t85 52zM606 1050q0 49 -7 90.5t-26 71.5
t-50 48t-83 21h-11q-33 0 -65.5 -13t-57 -35t-40 -53.5t-15.5 -64.5q0 -59 26.5 -106.5t66.5 -87.5t90 -75.5t74 -53.5q37 34 67.5 104t30.5 144v10zM193 346q0 -54 18.5 -106.5t51 -91t77.5 -62t100 -23.5q40 0 74.5 15.5t59 44t39.5 65.5t15 79q0 68 -29 123t-73 103
t-97.5 87t-86.5 65q-17 -11 -47 -46t-52.5 -77t-36 -88t-13.5 -88z" />
    <glyph glyph-name="nine" unicode="9" horiz-adv-x="943" 
d="M214 963q0 -88 25.5 -146t62 -93.5t79.5 -50.5t79 -15q9 0 29.5 10t45.5 25.5t48 34t35 30.5q5 19 8.5 36t4.5 32.5t1.5 32.5t0.5 44v17q0 52 -10 115t-35 114t-63.5 83.5t-93.5 32.5t-95 -25t-67.5 -66t-41 -94t-13.5 -105v-12zM590 632l-13 -7q-39 -20 -79.5 -37.5
t-77.5 -29.5t-64 -12q-71 0 -138.5 29t-122 79.5t-87.5 120.5t-33 152q0 55 22 123q2 5 14.5 24.5t32 44.5t42.5 56.5t48 63.5q57 74 140 179q65 -9 106 -16q36 -6 70.5 -12.5t52.5 -13.5q84 -35 152 -75t116.5 -93.5t72.5 -122t24 -157.5v-14q-3 -168 -62.5 -331
t-163 -294.5t-244.5 -218.5t-333 -102l5 119q95 0 171.5 58t148 148.5t128.5 196.5q57 105 72 142z" />
    <glyph glyph-name="colon" unicode=":" horiz-adv-x="319" 
d="M-25 35v147l134 78l135 -78v-147l-135 -80zM-25 755v148l134 78l135 -78v-148l-135 -79z" />
    <glyph glyph-name="semicolon" unicode=";" horiz-adv-x="319" 
d="M-25 755v148l134 78l135 -78v-148l-135 -79zM-80 -419l130 397l-75 43v147l134 75l135 -75v-170z" />
    <glyph glyph-name="semicolon" unicode="&#x37e;" horiz-adv-x="319" 
d="M-25 755v148l134 78l135 -78v-148l-135 -79zM-80 -419l130 397l-75 43v147l134 75l135 -75v-170z" />
    <glyph glyph-name="less" unicode="&#x3c;" horiz-adv-x="808" 
d="M175 874l363 286h239q-237 -159 -311 -216q-101 -84 -197 -166l-37 -38q29 -30 60 -60t68 -67.5t75 -76.5q102 -98 127 -119q37 -42 169 -154l-223 -112q-66 72 -151 142q-95 96 -160 163q-27 29 -54 57.5t-49 50.5t-35 37t-16 18q-67 70 -67 86q197 170 199 169z" />
    <glyph glyph-name="equal" unicode="=" horiz-adv-x="1086" 
d="M305 387q-38 0 -77 -1q-41 -2 -75.5 -9.5t-59.5 -19.5t-66 -76l-54 143l156 219q20 -64 33 -73.5t34 -14.5t49.5 -6t61.5 -1h134v-1h238q39 0 79.5 1.5t75 9t59.5 19.5t66 76l54 -143l-156 -219q-20 64 -33 73.5t-34 14.5t-49.5 6t-61.5 1h-374v1zM305 787q-38 0 -77 -1
q-41 -2 -75.5 -9.5t-59.5 -19.5t-66 -76l-54 143l156 219q20 -64 33 -73.5t34 -14.5t49.5 -6t61.5 -1h134v-1h238q39 0 79.5 1.5t75 9t59.5 19.5t66 76l54 -143l-156 -219q-20 64 -33 73.5t-34 14.5t-49.5 6t-61.5 1h-374v1z" />
    <glyph glyph-name="greater" unicode="&#x3e;" horiz-adv-x="808" 
d="M733 705q0 -16 -67 -86q-3 -3 -16 -18t-35 -37t-49 -50.5t-55 -57.5q-65 -67 -160 -163q-85 -70 -151 -142l-222 112q132 112 169 154q25 21 126 120q39 38 75.5 75.5t67.5 67.5t60 60l-36 38q-96 82 -197 166q-74 57 -311 216h238l368 -291q5 0 195 -164z" />
    <glyph glyph-name="question" unicode="?" horiz-adv-x="827" 
d="M215 1422q6 0 39 -4t78 -12.5t100.5 -22t107.5 -33.5t96.5 -48t63.5 -66q51 -92 52 -168v-5q0 -73 -28 -137q-29 -66 -78.5 -123.5t-98.5 -111.5q-31 -33 -64.5 -65t-63.5 -65.5t-52 -67t-29 -79.5l-180 -124q-4 58 -4 75q0 53 12 104q17 65 46.5 126t70 115t80.5 97
q39 45 76 88t61.5 85.5t30.5 87.5q2 12 2 25q0 32 -12 67q-18 51 -47 75t-61 33q-25 7 -47 7q-7 0 -14 -1q-32 -3 -51 -9q-55 -18 -83.5 -45.5t-41.5 -66.5q-12 -38 -12 -85v-6q1 -52 14 -148l-136 41l-69 249l225 218h17zM158 10v123l114 68l117 -68v-123l-117 -66z" />
    <glyph glyph-name="at" unicode="@" horiz-adv-x="1659" 
d="M768 524q-65 -7 -118.5 -62.5t-53.5 -161.5q0 -88 50.5 -157t139.5 -69q64 4 86 127v352q-7 -8 -104 -29zM1102 5q-62 1 -101 19t-43 24q-5 -6 -57 -33t-129 -27q-137 0 -242.5 94.5t-105.5 217.5q1 81 49.5 155.5t124.5 108t159 45.5q54 13 84.5 32t30.5 51
q-1 56 -30 97.5t-93 41.5q-50 0 -87.5 -45t-38.5 -116h-89v159q0 31 80 54q68 18 163 18q106 -2 187.5 -62t81.5 -152v-515q0 -83 54 -83q147 28 215 158.5t68 323.5q-17 287 -197 460q-164 157 -401 157q-170 0 -327.5 -115.5t-227.5 -301.5q-58 -153 -58 -310
q0 -269 110.5 -438t258 -246.5t265.5 -77.5q231 0 528 206v-119q-246 -172 -524 -172q-218 0 -417.5 111t-308.5 307.5t-109 412.5q0 215 111 414.5t311 307.5t413 108q328 0 551 -208t223 -509q0 -243 -162 -398q-158 -153 -320 -155z" />
    <glyph glyph-name="A" unicode="A" horiz-adv-x="1333" 
d="M594 1063l-226 -583h444zM487 1205q-10 20 -16 26q-8 7 -18 7q-5 0 -13 -6.5t-8 -18.5t7.5 -17.5t13.5 -5.5h16q-1 0 18 15zM443 1047l-196 119l122 251q96 -15 181 -28t173 -28l467 -1249q14 -34 88 -85q-42 -16 -59.5 -23.5t-36.5 -14.5q-23 -9 -59 -21
q-59 30 -103.5 57t-89.5 55q-20 10 -36.5 22t-73.5 47q68 14 81.5 21.5t20.5 14.5l-52 139h-568l-100 -251q-15 -33 -28.5 -51t-34.5 -35t-48 -17q-35 0 -62.5 14t-63.5 37l35 35q29 0 51.5 21t43.5 71q112 284 199 513q38 96 73.5 189t64.5 167q6 15 11 30z" />
    <glyph glyph-name="B" unicode="B" horiz-adv-x="1283" 
d="M420 612v-289q0 -219 238 -219q49 0 100.5 16.5t95 47t73 71.5t38.5 94q2 8 2 15v18q0 35 -7.5 79t-22.5 88.5t-37.5 82t-50.5 60.5q-34 26 -78 26q-22 0 -42 -4zM420 737l345 101q33 10 54.5 35t33 56t15 61t3.5 50q0 37 -21 74.5t-56.5 71.5t-78 58t-81.5 36
q-22 6 -56 6q-97 0 -158 -82v-467zM213 1033q-2 25 -4 46q-6 52 -16 84q-10 31 -20 48zM170 1215q-9 15 -15 20q-7 5 -13 5q-9 0 -16 -7t-7 -18v-3q1 -8 5.5 -11t7.5 -3q5 0 38 17zM213 1021l-243 145l123 236l301 -38q87 20 180.5 29t178.5 24q47 -23 87.5 -51t79 -62
t68.5 -72.5t47 -80.5q23 -57 23 -110q0 -43 -13 -84.5t-32 -76t-39 -61.5l-18 -23l1 1q101 -32 176 -124t75 -230v-27l-5 -98q-10 -165 -138.5 -251.5t-347.5 -86.5h-336q-48 28 -86.5 51t-79.5 48l-116 70l50 17q40 10 53 48t13 101v634q0 39 -2 72z" />
    <glyph glyph-name="C" unicode="C" horiz-adv-x="1276" 
d="M-25 634q0 118 48 219.5t121.5 185.5t161.5 149.5t171.5 113t149 75.5t105.5 42l389 -226q-18 -58 -34.5 -99t-32.5 -83l-64 -169l-49 38q-18 15 -61 43q20 29 37.5 66t17.5 79q0 30 -17 54q-15 23 -47 38t-75.5 23t-94 12t-99.5 4q-146 0 -231 -86q-37 -38 -60.5 -96
t-36 -119.5t-17.5 -119t-5 -94.5q7 -106 39.5 -215t96.5 -194t161 -137.5t237 -52.5q68 0 126.5 36.5t105.5 84t75.5 91t63.5 112.5q24 -87 29.5 -103.5t15.5 -48.5q-21 -51 -40.5 -99.5t-39.5 -101.5q-49 -31 -110.5 -48t-127 -25t-127.5 -10.5t-110 -2.5q-132 0 -255 51.5
t-219 149.5q-93 93 -145.5 216t-52.5 247z" />
    <glyph glyph-name="D" unicode="D" horiz-adv-x="1407" 
d="M427 224q0 -26 26 -48.5t68 -39t85.5 -26t71.5 -9.5q58 0 116 26t106 75q74 77 116 201.5t42 277.5v27q-4 110 -40.5 207.5t-92.5 174.5t-124.5 126t-135.5 66q-19 3 -34.5 5.5t-33.5 2.5q-114 0 -170 -106v-960zM157 1233q-9 7 -15 7q-9 0 -16 -7t-7 -18v-3
q1 -8 5.5 -11t7.5 -3q5 0 40 18l44 -197l-246 147l123 236l299 -37q4 0 49 7q50 8 106 16t110 17t83 13l124 -39q90 -28 164 -81.5t131 -123t94.5 -149t59.5 -161.5q10 -46 14.5 -93.5t4.5 -91.5q0 -90 -16.5 -176t-41 -158.5t-56 -127.5t-58.5 -84q-25 -32 -88 -60
t-135.5 -51t-143.5 -37.5t-112 -14.5q-19 0 -28 2l-589 180q81 18 82 18.5t9 2.5q20 6 34 24t21.5 43.5t9 58.5t1.5 65v522q0 95 -7.5 159.5t-17.5 106t-20.5 59.5t-18.5 22z" />
    <glyph glyph-name="E" unicode="E" horiz-adv-x="1203" 
d="M386 752h84q39 0 79.5 1.5t75 9t59.5 19.5t66 76l54 -143l-156 -219q-20 64 -33 73.5t-34 14.5t-49.5 6t-61.5 1h-84v-367q0 -26 27.5 -48.5t68 -39t85.5 -26t72 -9.5q86 0 163.5 54t147.5 183l187 -194q-63 -42 -121.5 -71.5t-122.5 -52.5t-129 -36.5t-125 -13.5
l-578 167q85 35 103 77t18 125v768q-11 62 -28.5 102t-39.5 51q-16 6 -36 6q-8 0 -16.5 -0.5t-15.5 -1.5q-11 -2 -22 -5l-65 -10l81 153l169 -20q57 -7 104 -12l46 -6l342 53l122 -48q79 -32 143 -78t130 -105l-167 -173q-47 76 -90 119.5t-88.5 75.5t-92 49t-87.5 17h-6
q-57 -3 -103.5 -32t-75.5 -83v-407z" />
    <glyph glyph-name="F" unicode="F" horiz-adv-x="1164" 
d="M114 1260q-16 6 -36 6q-7 0 -18.5 -1.5t-23.5 -3.5q-14 -3 -76 -10l80 151q102 -13 171 -20q28 -4 55.5 -6.5t49.5 -5t35 -4.5l10 -2l340 53l121 -46q78 -30 143 -78t131 -107l-167 -173q-47 76 -90 119.5t-88.5 75.5t-92 49t-87.5 17h-6q-57 -3 -103.5 -32t-75.5 -83
v-406h84q39 0 80 2t75.5 8.5t59 18.5t65.5 76l54 -143l-156 -219q-20 64 -33 73.5t-34 14.5t-49.5 6t-61.5 1h-84v-238q0 -46 3.5 -93.5t13 -89.5t26.5 -73t42 -45l44 -28l-164 -56l-318 189h77q23 7 37.5 23t22 43t9 60.5t1.5 69.5v754q-10 62 -27 102t-39 51z" />
    <glyph glyph-name="G" unicode="G" horiz-adv-x="1306" 
d="M-25 643q0 121 50 223t126.5 186t167.5 147.5t173.5 109t147.5 72t101 37.5l112 -61q68 -40 134.5 -83t148.5 -94q-28 -77 -51.5 -142t-55.5 -156q-46 22 -62 29t-52 27q14 37 24 66.5t10 57.5q0 13 -3.5 29t-10.5 29q-16 21 -48.5 36t-77 24t-97 13t-102.5 4
q-74 0 -133 -15.5t-100 -57.5q-35 -40 -59 -99t-37.5 -121t-19 -118.5t-5.5 -90.5q8 -109 40.5 -219t99 -197t167 -140.5t242.5 -53.5q123 0 177 39t54 127v163q0 72 -32 120t-64 63q-9 5 -22 5q-17 0 -25 -6q-20 -16 -20 -60q0 -24 4 -47.5t11 -48.5q0 1 1 1q4 0 17 -7
l-188 -134v92q0 29 -1 54q0 27 -1 49.5t-1 42.5l66 73q33 40 70 83.5t84 97.5l296 -152v-531q-60 -39 -139.5 -64t-162 -41.5t-155.5 -25t-113 -8.5q-137 0 -263.5 53.5t-227.5 156.5q-92 92 -143.5 214.5t-51.5 248.5z" />
    <glyph glyph-name="H" unicode="H" horiz-adv-x="1388" 
d="M162 1216q0 13 -5 18q-9 6 -15 6q-8 0 -15.5 -7t-7.5 -21q1 -8 5.5 -11t7.5 -3q5 0 30 18zM213 1065q-7 61 -17 97q-11 35 -22 51q-1 2 -2 3zM217 1024l-247 142l133 254q60 -13 89 -17.5t68 -11.5l167 -29v-582h566v620h233v-29q0 -9 -1 -11t-1 -3q-2 -17 -5.5 -43.5
t-6 -56t-5 -55t-2.5 -37.5v-810q0 -47 2.5 -94t11 -90t23 -73t35.5 -43l68 -31l-177 -57l-302 182l63 9q21 4 34 19.5t20 40.5t8.5 56.5t1.5 67.5v281h-566v-268q0 -44 4.5 -91t15.5 -90t28.5 -76t40.5 -49l41 -28l-165 -53q-52 28 -90.5 51t-78.5 47l-144 91q69 0 67 -2
q27 8 41 25.5t22.5 44t10 59.5t1.5 71v552q0 67 -4 117z" />
    <glyph glyph-name="I" unicode="I" horiz-adv-x="597" 
d="M200 1092q-4 40 -9 66q-8 35 -17 52h-1zM170 1215q-7 13 -15 20q-7 5 -13 5q-9 0 -16 -7t-7 -18v-3q1 -8 5.5 -11t7.5 -3q5 0 38 17zM204 1026l-234 140l132 254q42 -9 58.5 -13.5t44.5 -9t73 -13t139 -24.5v-1003q0 -47 2.5 -95t11.5 -91.5t26 -74t43 -44.5l45 -28
l-164 -56q-52 30 -89.5 52t-78.5 46l-127 77l54 16q24 5 37 21.5t20.5 43t8 61t0.5 72.5v551q0 68 -2 118z" />
    <glyph glyph-name="J" unicode="J" horiz-adv-x="960" 
d="M451 1420q102 -15 179.5 -27.5t182.5 -28.5l-25 -159v-726q0 -38 1 -71t8 -59t20.5 -41t37.5 -22l56 -17l-498 -301q-120 46 -219 88t-222 91l87 372l125 -66l-23 -39q-7 -21 -7 -63q0 -52 25.5 -87.5t56.5 -56.5q39 -26 83.5 -39t90.5 -13q36 0 64 6.5t44 22.5
q27 15 45.5 94t18.5 201v643q0 28 -2.5 58.5t-12.5 54t-27.5 36t-46.5 12.5h-11q-13 -2 -26 -3t-80 -24z" />
    <glyph glyph-name="K" unicode="K" horiz-adv-x="1443" 
d="M214 1027q-1 21 -3 38q-8 61 -18 97.5t-20 51.5q0 1 -1 1zM172 1216q-9 13 -15 18q-9 6 -15 6q-9 0 -16 -7t-7 -18v-3q1 -8 5.5 -11t7.5 -3q5 0 40 18zM515 596q-3 -5 -6 -9q-11 -19 -26 -40q-16 -22 -28 -41q-12 -16 -24 -33q-8 -12 -8 -16q0 -2 2 -2v-98q0 -47 3 -95
t13 -90.5t26.5 -74t114.5 -81.5h-5l-17 9l-170 -57q-91 52 -167 98l-128 78q78 20 91 36.5t20 43t9.5 61.5t2.5 72v551q0 64 -3 112l-245 146l130 254q62 -14 93 -19t72 -12q36 -5 70.5 -12t89.5 -17v-609l424 649h223q-42 -45 -63.5 -71.5t-44.5 -57t-43.5 -58.5t-29.5 -40
q-62 -96 -113 -171q-21 -33 -41.5 -65t-36.5 -57t-26 -41l-9 -14q23 -51 65 -128q42 -78 95.5 -160t114 -163t122.5 -143.5t120 -99t107 -36.5q21 0 44 9q0 4 35 39v-62q0 -7 -2 -11v-2q-24 -30 -64.5 -55.5t-82.5 -34.5q-14 -5 -32.5 -6.5t-28.5 -1.5q-132 0 -277 104
q-43 33 -97.5 103.5t-108 153.5t-102.5 165q-46 77 -58 100z" />
    <glyph glyph-name="L" unicode="L" horiz-adv-x="1206" 
d="M103 1275q-5 3 -30 3q-36 0 -111 -13l68 155l346 -65v-993q0 -49 4.5 -114.5t18.5 -102.5h248q53 0 110.5 10t107 45.5t89.5 105.5t63 255q60 -86 74.5 -107t40.5 -58q-29 -104 -59.5 -203.5t-63.5 -212.5h-671l-312 187q73 0 72 -1q25 9 39 25.5t22 43t9.5 59t1.5 68.5
v582q0 34 -1.5 88.5t-8.5 106.5t-21.5 89.5t-35.5 46.5z" />
    <glyph glyph-name="M" unicode="M" horiz-adv-x="1525" 
d="M172 1216q-10 13 -17 19q-7 5 -13 5q-9 0 -16 -7t-7 -18v-3q1 -8 5.5 -11t7.5 -3q5 0 40 18zM427 920v-563q0 -46 3.5 -94t15 -91.5t31 -76t84.5 -71.5l-166 -55q-38 18 -61.5 32t-51.5 31t-64 38.5t-129 77.5q79 12 95 31t23.5 48t10 63t2.5 59v559q0 96 -7.5 157
t-17.5 96.5t-21 51.5l-2 2l44 -196l-246 147l133 254q61 -14 89.5 -19t67.5 -12l167 -29v-144l178 -243q34 -47 67 -93t58.5 -81.5t43.5 -58.5l2 10l18 25q33 45 77 102.5t91.5 121t87.5 116.5t64 86q22 30 24 30v169h233l-19 -144l-6 -54q-2 -11 -2 -19v-826q0 -46 4 -94.5
t14 -91.5t28.5 -76.5t87.5 -69.5l-170 -57q-58 37 -106 70t-161 112q71 15 85 30.5t21.5 42.5t9 61.5t1.5 72.5v617l-387 -488l-197 249q-34 42 -66 82.5t-59 74.5q-12 15 -22 28z" />
    <glyph glyph-name="N" unicode="N" horiz-adv-x="1389" 
d="M212 1035q0 9 -1 19q-8 63 -17 102t-20 57l-2 2zM172 1216q-10 14 -15 18q-9 6 -15 6q-9 0 -16 -7t-7 -18v-3q1 -8 5.5 -11t7.5 -3q5 0 40 18zM214 1020l-244 146l132 253q71 -12 109.5 -19l71.5 -13t62 -12.5t79 -14.5v-128q0 -4 34 -51t110.5 -150t200 -264.5
t258.5 -331.5v687q0 26 -4.5 55t-16.5 52.5t-27 36.5t-34 13q-15 0 -32.5 -1.5t-40.5 -5.5q-3 0 -5.5 -0.5t-42.5 -0.5q27 63 39 88t33 60q32 -6 37 -8t13 -2q66 -15 129.5 -25.5t156.5 -27.5q-13 -59 -17.5 -102.5t-4.5 -83.5v-817q0 -47 2.5 -94t13 -90t29 -75.5
t86.5 -68.5l-167 -57l-266 177q99 25 111 70q-171 218 -310 395q-59 76 -117.5 149t-105 131t-76.5 97q-9 11 -11 11q-1 0 -1 -1q0 -8 26 -61v-583q0 -46 3.5 -93.5t13.5 -90.5t29 -75t94 -72q-70 -17 -106.5 -28.5t-67.5 -23.5l-307 181q86 8 100.5 25t22 46t10 65.5
t2.5 65.5v545q0 69 -4 122z" />
    <glyph glyph-name="O" unicode="O" horiz-adv-x="1430" 
d="M208 696q0 -62 11.5 -133.5t35 -142.5t61.5 -136t90 -113.5t119 -77t152 -28.5q164 0 267 103q43 44 73.5 101.5t49.5 118t27 119t8 110.5q0 128 -37.5 246.5t-103.5 207t-155.5 140.5t-194.5 52q-111 0 -187 -51t-124.5 -133.5t-70 -184.5t-21.5 -198zM597 1368
q12 4 44 10.5t71 14t78.5 13.5t77.5 12q23 -12 57 -37t82 -64.5t99.5 -92t99 -113.5t83.5 -129.5t49 -137.5q10 -43 13.5 -87.5t3.5 -80.5q0 -60 -12 -135t-42.5 -154.5t-81 -153t-129 -133t-187 -95t-249.5 -35.5q-160 0 -287 49t-214.5 139.5t-132.5 216t-45 277.5
q0 135 33 248t108.5 203.5t193.5 156.5t287 108z" />
    <glyph glyph-name="P" unicode="P" horiz-adv-x="1080" 
d="M628 1261q-15 6 -33.5 8.5t-36.5 2.5q-40 0 -75.5 -12t-58.5 -29v-422h-1q0 -1 35 -18q39 -20 81.5 -43.5t82.5 -45.5q21 -12 31 -12q9 0 9 9q-3 -1 -4 -1t-1 1q0 3 20 20q29 25 56.5 63.5t46 92t18.5 118.5v9q0 29 -13 66.5t-35 75t-53.5 68.5t-68.5 49zM213 1034
q-1 10 -2 21q-8 62 -17 101t-20 56l-1 1zM171 1216q-10 14 -16 19q-7 5 -13 5q-9 0 -16 -7t-7 -18v-3q1 -8 5.5 -11t7.5 -3q5 0 39 18zM214 1020l-244 146l123 237q91 -17 160.5 -23.5t138.5 -15.5q80 11 130 20.5t174 32.5q23 -7 57 -27t74 -53t80 -78.5t66 -99.5
q22 -44 27 -92t5 -85q0 -71 -19.5 -127t-52.5 -98q-29 -37 -66.5 -69.5t-74.5 -58.5t-72 -41t-69 -16l-227 102v-321q0 -46 3.5 -93.5t13.5 -90.5t29 -75.5t86 -68.5l-167 -57l-299 177q77 17 92.5 36t23 48t10 62t2.5 62v547q0 68 -4 120z" />
    <glyph glyph-name="Q" unicode="Q" horiz-adv-x="1517" 
d="M870 1418q23 -12 59 -38.5t83.5 -65.5t99.5 -91.5t98 -113t81.5 -128.5t48.5 -137q4 -23 6.5 -51t6.5 -52q2 -32 3 -64q0 -122 -27.5 -215t-62 -159.5t-67.5 -103.5q-31 -34 -32 -34q118 -99 227 -99h46v-23q0 4 1 4q1 -1 1 -16q-30 -29 -70 -45t-90 -16q-56 0 -125 22
t-136 62q-73 -40 -168.5 -62t-193.5 -22q-160 0 -287 49t-215 139.5t-135 216t-47 277.5q0 135 36 247.5t112 203.5t195 157t282 110zM755 237l54 -85q-74 11 -92.5 12t-43.5 4l-68 8q8 70 15 118t15 111q73 17 125.5 28.5t135.5 30.5q15 -48 28.5 -73t39.5 -56l58 -58
q24 48 52.5 146.5t28.5 183.5v10q-1 128 -38.5 246.5t-103.5 207t-154.5 140.5t-193.5 52q-110 0 -185 -51t-124 -133.5t-71 -184.5t-22 -198q0 -62 12 -133.5t35.5 -142.5t61.5 -136t90 -113.5t119.5 -77t150.5 -28.5q143 0 234 79l-39 44l-51 67q-14 11 -25 22
q-9 6 -20 12t-18 8h-3q-7 0 -11 1l-5 1q-15 0 -25 -8q-12 -7 -13 -28q0 -7 5 -15q10 -11 22 -11h24z" />
    <glyph glyph-name="R" unicode="R" horiz-adv-x="1458" 
d="M628 1257q-34 17 -77 17q-33 0 -74.5 -9t-67.5 -27l1 -419l16 -8l70 -36q53 -28 97 -48q20 -10 31 -15q6 3 39 25.5t62.5 55.5t51 79.5t21.5 102.5v27q0 28 -13.5 66t-37.5 75.5t-54.5 68t-64.5 45.5zM213 1033q-1 12 -2 23q-8 61 -17 99t-21 57zM171 1215q-10 15 -16 20
q-7 5 -13 5q-9 0 -16 -7t-7 -18v-3q1 -8 5.5 -11t7.5 -3q5 0 39 17zM214 1020l-244 146l123 236l290 -38l312 53q22 -7 56.5 -27t74.5 -51.5t80 -77.5t65 -102q21 -39 30.5 -89.5t9.5 -89.5q0 -75 -28.5 -137t-66.5 -107.5t-77 -77.5t-48 -37q10 -28 53.5 -101t102 -152.5
t127.5 -146.5t140 -100q28 -15 67 -15q18 0 34.5 3t51.5 13q12 -23 14 -30.5t2 -17.5q-30 -45 -87 -74.5t-118 -29.5t-129 24.5t-139 73.5q-40 27 -78.5 72t-75 98.5t-71 112t-60 111.5t-45 95t-23.5 56l-147 68v-320q0 -47 4 -93t16 -89.5t33 -78t87 -76.5l-160 -56
q-75 43 -136.5 80t-163.5 97q77 17 92.5 36t23 48t10 62t2.5 62v547q0 69 -4 120z" />
    <glyph glyph-name="S" unicode="S" horiz-adv-x="953" 
d="M774 1293q5 -47 8 -83t7 -70q3 -20 5 -41t3 -51l-91 -58q-24 87 -41.5 133t-43.5 75t-67 45t-105 16q-25 0 -59 -6.5t-63 -25.5t-50 -52t-21 -86q0 -47 22.5 -88.5t59.5 -76.5t88 -65.5t105 -58.5q67 -32 127 -67t107 -79.5t77.5 -102.5t35.5 -139v-9q0 -66 -46.5 -133
t-108.5 -126t-123 -103.5t-102 -73.5l-440 171q-22 91 -42 167t-53 203l71 -39q15 -8 31.5 -18t16.5 -20q59 -131 146 -194t213 -63q36 0 86 18.5t83 54.5q29 39 36.5 72.5t7.5 72.5q-5 36 -27 66.5t-57.5 57.5t-82 52.5t-97.5 52.5q-62 32 -123 71.5t-108.5 90.5t-77 114
t-29.5 141q0 15 1.5 33.5t5.5 37.5q10 56 68.5 106.5t126.5 91t130.5 68.5t100.5 44z" />
    <glyph glyph-name="T" unicode="T" horiz-adv-x="1333" 
d="M175 1249q-9 2 -17 2q-11 0 -20 -5q-12 -4 -14 -23v-5q0 -8 4 -17q1 -1 2 -1q11 0 43 14l43 -195l-246 147l131 252l515 -54l517 54l130 -252l-244 -147l41 195q32 -14 45 -14q4 10 4 18v5q-2 19 -12 23q-10 5 -21 5q-8 0 -17 -2l-293 -51q-8 -4 -16.5 -9.5t-16 -26.5
t-11.5 -67t-4 -122v-616q0 -47 2.5 -95t12.5 -90.5t27.5 -73.5t44.5 -46l46 -29l-168 -54q-51 27 -85.5 50t-74.5 46q-22 14 -47.5 27.5t-88.5 52.5l58 14q23 5 36 21.5t20.5 43t8.5 61t1 72.5v616q0 76 -4.5 122t-11.5 67t-15.5 27t-21.5 9z" />
    <glyph glyph-name="U" unicode="U" horiz-adv-x="1197" 
d="M1126 1363q-8 -34 -11 -64.5t-5.5 -64.5t-4 -65t-1.5 -47v-800q-7 -45 -38.5 -86t-76.5 -77t-97 -67t-99.5 -55.5t-86.5 -41l-65 -27.5q-35 10 -90 27t-120 39t-130.5 46.5t-114.5 50.5q-78 52 -78 90v779q0 64 -6.5 106t-13.5 65t-15 32.5t-9 9.5q-8 3 -31 3
q-20 40 -33.5 82.5t-31.5 101.5h340v-955q2 -28 15.5 -70.5t52 -82.5t113 -70.5t206.5 -36.5h7q55 0 99 22.5t76.5 57.5t49.5 76.5t17 79.5v759q0 37 -4.5 58t-12 28.5t-22 11t-43.5 3.5q-7 0 -20 -1.5t-92 -18.5l83 158z" />
    <glyph glyph-name="V" unicode="V" horiz-adv-x="1129" 
d="M725 1419l335 -63l-79 -234q-31 -89 -65 -206t-66 -239t-59.5 -236t-45.5 -196q-9 -47 -13.5 -82t-4.5 -57q0 -26 -4 -26l45 -17q-45 -33 -59 -43t-32 -21l-43 -30l-337 147l43 24q40 20 40 72q0 30 -8.5 63t-18.5 68l-138 529q-17 59 -36 118t-37.5 108.5t-36.5 86.5
t-34 57q-2 4 -7 8l-6 4l-40 -4l-52 173l338 -62l264 -1014q2 -11 6 -23q5 -20 16 -39q2 -3 15 -3t19.5 5.5t9.5 14.5q60 224 109 401q21 75 40.5 148.5t36 132t26 95t9.5 40.5q3 18 3 25v10q-1 47 -13.5 76t-40.5 45q-8 3 -17 3.5t-20 0.5q-19 0 -29 -0.5t-26 -3.5l-64 -11z
" />
    <glyph glyph-name="W" unicode="W" horiz-adv-x="1654" 
d="M19 1253l-53 170l335 -60l282 -1074q0 -3 7 -5t19 -2q8 0 13.5 5.5t8.5 14.5q57 208 117.5 418.5t120.5 433.5h142q-19 -45 -25 -62.5t-15 -40.5q-11 -26 -20.5 -53.5t-16.5 -53.5l173 -649q2 -7 8.5 -10t19.5 -3q15 0 23 24l224 798q-7 55 -16.5 103.5t-43.5 68.5
q-8 3 -16 5t-15 2t-17.5 -2t-24.5 -3q5 0 5 -1q-2 -1 -10 -1l-69 -14l76 155l337 -62q-10 -20 -10 -25q-1 -2 -2 -2v1q0 -5 -3 -12l-30 -86q-7 -19 -13.5 -41t-13 -42t-10 -36.5t-5.5 -21.5q-15 -53 -40.5 -138t-54 -184.5t-57 -203.5t-50.5 -194.5t-36.5 -160t-14.5 -98.5
l4 -15q3 -15 32 -40l-128 -87q-87 38 -156.5 70t-184.5 81q69 29 79 46t10 46q0 30 -8 63t-17 68q-22 79 -40 144q-15 56 -25 70q-8 -25 -30 -118t-35.5 -157.5t-18.5 -106t-5 -66.5q0 -20 2 -25t35 -25l-129 -90q-89 37 -159.5 69.5t-180.5 80.5q65 32 73.5 49t8.5 44
q0 30 -7.5 63t-16.5 68q-25 96 -53 200t-54 202l-34 126q-15 56 -37 116.5t-45 114.5t-44.5 95.5t-32.5 59.5z" />
    <glyph glyph-name="X" unicode="X" horiz-adv-x="1172" 
d="M172 1213v1q-17 21 -19 23q-4 3 -11 3q-8 0 -15 -7q-8 -7 -8 -18v-3q1 -8 5.5 -11t7.5 -3q6 0 40 15zM469 684q-89 173 -148 281q-60 109 -96 168q-33 53 -50 76l40 -190l-246 147l135 255q35 -10 66 -16t65 -14t66.5 -16t59.5 -15q77 -135 136 -237q25 -43 48.5 -86.5
t42 -76t24.5 -39.5l297 479h170l-117 -162q-79 -129 -142 -229q-27 -43 -52 -84.5t-45.5 -75.5t-33.5 -54l-9 -14l12 -23q13 -27 33.5 -65.5t44.5 -87t50 -97.5q58 -114 130 -256q30 -53 59.5 -92.5t103.5 -75.5q-45 -33 -64.5 -48.5t-38.5 -31.5l-43 -35q-84 29 -151 53.5
t-176 61.5q56 31 66 48t10 37l-5 21q-52 108 -95 193q-18 38 -36 74t-32 65q-8 15 -14 28q-66 -107 -159 -263q-93 -157 -203 -338q-46 58 -66.5 82.5t-50.5 62.5l25 27l14 12l6 5q9 10 26 29t43 56t65.5 96t97.5 149q38 63 69 110q12 22 25.5 42t23 36t15.5 24q2 3 4 4z
" />
    <glyph glyph-name="Y" unicode="Y" horiz-adv-x="1186" 
d="M171 1213l-17 22q-7 5 -13 5q-9 0 -16 -7t-7 -18v-3q1 -8 5.5 -11t7.5 -3q6 0 40 15zM174 1208l40 -189l-244 147l131 254q54 -12 81.5 -18.5t53 -12.5t52.5 -12.5t70 -15.5l289 -497q54 98 138 242t168 294h176l-111 -154q-81 -139 -149 -250q-29 -48 -57.5 -95
t-51 -85.5t-37.5 -64.5t-18 -31v-363q0 -46 3.5 -94.5t13.5 -91.5t28.5 -76.5t85.5 -68.5q-53 -20 -69 -24.5t-32.5 -9.5t-29.5 -10t-32 -15q-59 33 -100 59t-86 53l-113 66q76 18 92.5 33t25.5 38.5t12 55.5t3 68v287q-82 162 -148 279t-111.5 190t-69.5 107z" />
    <glyph glyph-name="Z" unicode="Z" horiz-adv-x="1164" 
d="M746 1245q-49 13 -120 19q-73 5 -147 5q-39 0 -74 -4.5t-72 -18.5q-65 -29 -65 -74q0 -13 7 -20t35 -7l31 -136q-105 57 -155 87t-120 70l151 234h887q-178 -289 -294 -476t-197 -318t-132.5 -212.5t-81.5 -128.5t-47 -68q-10 -13 -10 -15q0 -1 1 -1t5 3
q56 -33 135 -57.5t168 -24.5q49 0 91.5 13.5t76 32t55.5 37.5t46 64l157 -183q-34 -22 -64.5 -36t-81 -27.5t-120.5 -22.5t-163 -9q-48 0 -103.5 13t-102 28.5t-82.5 30.5q-22 9 -28 9q-4 0 -4 -2q0 -1 1 -3q-29 -12 -84 -32.5t-124 -45.5l-170 162q53 4 68 11t34.5 20
t42 35.5t42.5 56.5q170 280 307 501q57 92 112.5 183.5t99.5 162.5t71 116q13 21 18 28z" />
    <glyph glyph-name="bracketleft" unicode="[" horiz-adv-x="748" 
d="M69 702v436q0 36 -1.5 68.5t-9.5 59t-22 43t-39 25.5q1 -1 -72 -1l312 187h401l36 -121l-104 -110q-122 64 -180 65t-92 1q-14 -37 -18.5 -102.5t-4.5 -114.5l1 -409v-467q0 -49 4.5 -114.5t18.5 -102.5q34 0 92 1t180 65l104 -110l-36 -121h-401l-312 187q73 0 72 -1
q25 9 39 25.5t22 43t9.5 59t1.5 68.5z" />
    <glyph glyph-name="backslash" unicode="\" horiz-adv-x="1054" 
d="M568 688l6 -8q6 -8 15.5 -24t23 -36t25.5 -42q31 -47 69 -110q58 -90 97.5 -149t65.5 -96t43 -56t26 -29l7 -5q6 -6 13 -12l25 -27q-30 -38 -50.5 -62.5t-66.5 -82.5q-110 181 -203 337.5t-184 303.5q-119 180 -131 206q-12 19 -32.5 53t-45.5 75.5t-52 84.5
q-63 100 -142 229l-117 162h170l297 -479q1 3 141 -233z" />
    <glyph glyph-name="bracketright" unicode="]" horiz-adv-x="748" 
d="M579 698v-436q0 -36 1.5 -68.5t9.5 -59t22 -43t39 -25.5q-1 1 72 1l-312 -187h-401l-36 121l104 110q122 -64 180 -65t92 -1q14 37 18.5 102.5t4.5 114.5l-1 409v467q0 49 -4.5 114.5t-18.5 102.5q-34 0 -92 -1t-180 -65l-104 110l36 121h401l312 -187q-73 0 -72 1
q-25 -9 -39 -25.5t-22 -43t-9.5 -59t-1.5 -68.5z" />
    <glyph glyph-name="asciicircum" unicode="^" horiz-adv-x="710" 
d="M277 1628q-85 -78 -183 -207l-124 109q90 131 332 350q119 -72 181 -141q32 -36 69 -74.5t90 -90.5l-153 -159q-163 186 -212 213z" />
    <glyph glyph-name="underscore" unicode="_" horiz-adv-x="996" 
d="M-25 -67h946v-93h-946v93z" />
    <glyph glyph-name="grave" unicode="`" horiz-adv-x="503" 
d="M454 1429h-119l-296 181q-31 20 -47.5 41.5t-16.5 46.5q0 34 24 58t65 24q26 0 48.5 -13.5t55.5 -46.5z" />
    <glyph glyph-name="a" unicode="a" horiz-adv-x="963" 
d="M333 843q-5 11 -8 14q-4 4 -8 4l-3 -3q-4 -3 -4 -9t3 -8t4 -2h11q0 1 5 4zM416 722l-148 -380h290zM302 731l-138 83l89 185q74 -12 133.5 -21t125.5 -20l328 -878q9 -21 65 -59q-36 -18 -48.5 -23.5t-25.5 -10.5q-16 -6 -46 -16q-45 23 -76 42l-62 38q-13 7 -25.5 15.5
t-59.5 39.5q57 14 65 18.5t10 5.5l-33 91h-387l-68 -172q-11 -23 -21 -36.5t-26 -26.5t-39 -13q-26 0 -46 10.5t-52 30.5l31 31q21 0 35 13t29 47q77 199 139 359q26 68 51 133l45 117q4 9 7 17z" />
    <glyph glyph-name="b" unicode="b" horiz-adv-x="928" 
d="M301 424v-198q0 -147 159 -147q33 0 67.5 11t64.5 31.5t50 48.5t25 65q2 4 2 9v12q0 24 -5.5 54.5t-15.5 61t-25 56.5t-35 41q-21 16 -49 16q-15 0 -27 -2zM301 525l230 67q22 6 36 22.5t22 37.5t10.5 42t2.5 34q0 24 -14.5 49.5t-38.5 48.5t-53 39.5t-55 25.5
q-14 3 -37 3q-64 0 -103 -53v-316zM109 854q-3 4 -6 6t-4 2q-3 0 -6 -3t-3 -8v-2q0 -3 1 -4q1 0 1 -1q3 2 17 10zM141 709l-171 105l90 174l215 -27q60 14 125.5 20t127.5 17q35 -17 64 -37t56.5 -44t49 -52t33.5 -57q16 -41 16 -79q0 -31 -9 -60.5t-23 -54.5t-28 -44
q-9 -12 -9 -13h1l3 3q62 -20 116.5 -86t54.5 -164v-19l-4 -68q-8 -119 -100 -181t-248 -62h-237q-36 21 -63 37t-56 34l-85 50l39 20q26 7 34.5 32t8.5 68v444q0 24 -1 44z" />
    <glyph glyph-name="c" unicode="c" horiz-adv-x="923" 
d="M-25 444q0 84 34.5 155.5t86 131t114 106t121 79.5t105 53t79.5 31l278 -163q-14 -44 -25 -73l-22 -58l-50 -129l-40 34q-14 11 -48 34q15 24 27.5 49.5t12.5 53.5q0 19 -11 35q-10 14 -31 23.5t-51 15.5t-64.5 8.5t-68.5 2.5q-99 0 -156 -57q-24 -26 -40.5 -66
t-25.5 -82.5t-12.5 -83t-3.5 -65.5q5 -74 27.5 -149.5t66.5 -134t110.5 -94.5t162.5 -36q45 0 84.5 24.5t71.5 57.5t52.5 63.5t54.5 89.5q21 -74 24.5 -86t10.5 -34q-14 -38 -28 -72t-28 -72q-38 -24 -82 -36.5t-90.5 -18t-90 -7t-77.5 -1.5q-94 0 -181.5 36.5t-155.5 106.5
q-66 66 -103.5 153t-37.5 175z" />
    <glyph glyph-name="d" unicode="d" horiz-adv-x="1014" 
d="M306 157q0 -16 16.5 -30.5t45 -26t58 -18t48.5 -6.5q39 0 78 17.5t71 51.5q51 53 80 139t29 193v19q-2 76 -27.5 143.5t-64 120.5t-85.5 86.5t-92 45.5q-13 1 -23.5 3t-22.5 2q-75 0 -111 -69v-671zM109 854q-3 4 -5 5q-4 3 -5 3q-3 0 -6 -3t-3 -8v-2q0 -3 1 -4q1 0 1 -1
q3 2 17 10zM144 708l-174 106l89 174l212 -26h1q5 0 33 4q37 6 76 11.5t76.5 12t60.5 9.5l89 -28q64 -21 116.5 -58.5t93 -87t67 -106t42.5 -113.5q7 -33 10 -66.5t3 -64.5q0 -63 -11.5 -123.5t-28.5 -112t-39.5 -90t-42.5 -60.5q-18 -23 -63 -43t-96.5 -36.5t-102 -26.5
t-79.5 -10q-15 0 -23 2l-442 135q84 14 85 14.5t9 2.5q13 3 21.5 14t13 28.5t6 40t1.5 45.5v365q0 50 -3 88z" />
    <glyph glyph-name="e" unicode="e" horiz-adv-x="872" 
d="M278 532h51q27 0 55 1.5t51.5 6.5t39.5 12.5t52 66.5l44 -119l-120 -169q-18 58 -25.5 63.5t-21 8.5t-33.5 4t-42 1h-51v-251q0 -16 17.5 -30.5t45 -26t58 -18t48.5 -6.5q58 0 110.5 37t105.5 135l143 -148q-50 -33 -91 -54t-86.5 -37.5t-92 -26t-90.5 -9.5l-423 122
q73 29 85 57t12 85v537q-8 42 -19.5 69t-23.5 33q-10 4 -22 4q-6 0 -11.5 -0.5t-11.5 -1.5q-5 0 -13 -2l-60 -10l64 122l125 -15q39 -5 103 -12l241 37l88 -34q55 -23 100.5 -55.5t96.5 -78.5l-128 -132q-38 61 -67.5 91t-60.5 52t-62.5 33.5t-58.5 11.5h-4
q-38 -2 -68.5 -21.5t-49.5 -54.5v-278z" />
    <glyph glyph-name="f" unicode="f" horiz-adv-x="845" 
d="M77 876q-10 4 -22 4q-5 0 -13 -1t-14 -2q-10 -3 -67 -7l61 118q79 -9 126 -15l40 -4t64 -8l240 37l86 -33q56 -21 102 -55t97 -80l-128 -132q-38 61 -67.5 91t-60.5 52t-62.5 33.5t-58.5 11.5h-4q-38 -2 -68.5 -21.5t-49.5 -54.5v-277h51q27 0 55 1.5t51.5 6t39.5 12
t52 66.5l44 -119l-120 -169q-18 58 -25.5 63.5t-21 8.5t-33.5 4t-42 1h-51v-161q0 -32 2.5 -65t9 -62t17.5 -49.5t27 -29.5l42 -26l-131 -44l-244 145h74q13 4 22.5 14t14 27.5t6 41t1.5 48.5v527q-7 43 -18.5 69.5t-23.5 32.5z" />
    <glyph glyph-name="g" unicode="g" horiz-adv-x="945" 
d="M-25 450q0 86 35.5 158t89.5 131.5t118.5 104.5t122.5 77t104 50.5t75 27.5l82 -45q48 -27 94.5 -57t108.5 -69q-22 -58 -38 -103t-43 -119q-40 22 -51 27t-42 20q13 32 20 52t7 39q0 8 -3 18.5t-7 18.5q-10 13 -31 23t-51.5 16t-67 9t-71.5 3q-50 0 -89.5 -10.5
t-67.5 -38.5q-23 -27 -39.5 -67.5t-26 -83.5t-13.5 -82.5t-4 -63.5q5 -75 28 -151.5t68.5 -136.5t114.5 -96.5t166 -36.5q83 0 118.5 26t35.5 85v114q0 49 -21.5 81.5t-40.5 41.5q-5 2 -13 2q-9 0 -13 -2q-11 -9 -11 -38q0 -16 3 -32.5t8 -34.5q0 -1 6 -13l-140 -98v77
q0 21 -1 38q0 19 -1 35t-1 31l48 53q23 28 49.5 58.5t62.5 72.5l217 -111v-377q-45 -31 -102 -48t-115 -29t-109.5 -18t-80.5 -6q-98 0 -188 38t-162 111q-64 66 -101 152.5t-37 175.5z" />
    <glyph glyph-name="h" unicode="h" horiz-adv-x="1001" 
d="M109 854l-5 5q-4 3 -5 3q-3 0 -6 -3t-3 -10q0 -3 1 -4q1 0 1 -1q3 2 17 10zM145 707l-175 107l96 187q49 -10 69 -13t48 -8l123 -22v-406h381v434h178v-26q0 -6 -0.5 -7.5t-0.5 -2.5q-2 -12 -4 -31t-4 -39.5t-4 -38.5t-2 -26v-566q0 -33 2 -66t7.5 -62.5t15.5 -49.5
t22 -28l64 -26l-145 -47l-225 135l56 11q13 3 20.5 12t12 26t6 38.5t1.5 46.5v191h-381v-181q0 -31 3 -64t10.5 -62t19.5 -51.5t26 -32.5l37 -26l-129 -43q-40 23 -67 38.5t-55 33.5l-119 74q67 0 65 -2q19 5 27.5 16t14 28.5t7 40.5t1.5 50v386q0 41 -2 72z" />
    <glyph glyph-name="i" unicode="i" horiz-adv-x="447" 
d="M109 854q-3 4 -6 6t-4 2q-3 0 -6 -3t-3 -8v-2q0 -3 1 -4q1 0 1 -1q3 2 17 10zM135 714l-165 100l96 187q36 -8 47.5 -11t31 -6t51 -9t102.5 -18v-707q0 -33 2 -66.5t8.5 -63.5t17.5 -50t29 -29l38 -27l-128 -43q-40 23 -66 38t-55 33l-101 60l52 15q14 3 22.5 13.5
t13 27.5t5 41.5t0.5 50.5v386q0 44 -1 78z" />
    <glyph glyph-name="j" unicode="j" horiz-adv-x="702" 
d="M311 1001q78 -11 132 -20t135 -22l-19 -116v-508q0 -26 1 -49t5.5 -40t13 -26.5t23.5 -13.5l50 -17l-362 -218q-88 34 -157.5 63t-160.5 65l64 274l103 -54l-19 -31q-5 -14 -5 -42q0 -35 17.5 -58.5t38.5 -38.5q25 -17 55 -26t61 -9q25 0 43 4t28 14q17 11 29.5 65
t12.5 138v450q0 20 -1.5 41t-8 36t-17 22.5t-28.5 7.5h-8q-7 -1 -16 -2t-68 -16z" />
    <glyph glyph-name="k" unicode="k" horiz-adv-x="1039" 
d="M109 854l-5 5q-4 3 -5 3q-3 0 -6 -3t-3 -8v-2q0 -3 1 -4q1 0 1 -1q3 2 17 10zM359 402q-7 -10 -15 -22q-11 -15 -20 -29q-8 -11 -18 -24q-6 -8 -6 -11t4 -3v-63q0 -33 2 -66.5t9 -62.5t18 -50t98 -66h-5l-19 10l-135 -44q-68 38 -121 71l-103 61q67 17 75.5 27.5t13 27.5
t6 41.5t1.5 50.5v386q0 41 -2 73l-172 105l95 187q50 -11 71.5 -14.5t48.5 -7.5t51 -9t68 -13v-407l285 436h171q-33 -41 -48 -59.5t-31.5 -39.5t-30.5 -40.5t-20 -28.5q-44 -67 -79 -120q-15 -22 -29.5 -45t-25.5 -40t-18 -28l-6 -7q16 -35 46 -88q29 -54 66 -112t79 -114
t85.5 -99t82 -67.5t71.5 -24.5q13 0 30 6q-1 0 -1 1q0 4 33 37v-83q-1 0 -1 19v-8q-20 -23 -49 -41t-58 -25q-11 -4 -25 -5t-21 -1q-95 0 -199 74q-32 24 -70 74t-75.5 108t-71.5 116q-29 47 -35 57z" />
    <glyph glyph-name="l" unicode="l" horiz-adv-x="874" 
d="M70 887q-1 1 -18 1q-26 0 -90 -8l55 120l254 -47v-699q0 -36 3 -80.5t11 -65.5h168q36 0 75 6.5t72.5 30.5t60.5 72t47 193q53 -75 63 -90t29 -42q-21 -75 -42.5 -144.5t-45.5 -153.5h-478l-238 143q74 0 72 -1q13 5 22 15.5t14 28.5t6.5 40t1.5 48v407q0 24 -1.5 61.5
t-6.5 74t-14 61t-20 29.5z" />
    <glyph glyph-name="m" unicode="m" horiz-adv-x="1097" 
d="M109 854q-3 4 -6 6t-4 2q-3 0 -6 -3t-3 -8v-2q0 -3 1 -4q1 0 1 -1q3 2 17 10zM549 546q23 31 53.5 71t64 84.5t61 81.5t44.5 60q14 20 17 20v123h178l-14 -107l-4 -38q-1 -8 -1 -13v-578q0 -32 2.5 -66t9.5 -63.5t19.5 -51.5t69.5 -54l-135 -44q-44 27 -78 50.5
t-122 86.5q59 12 68 22t13.5 27.5t6 42t1.5 50.5v411l-264 -332l-144 182q-24 30 -46.5 58t-42.5 50v-369q0 -32 2.5 -66t10 -63.5t20.5 -51t68 -54.5l-132 -43q-29 13 -46 23t-36.5 22t-45 27t-103.5 65q69 8 78 19.5t14.5 31t7 43t1.5 41.5v392q0 41 -2 72l-173 106
l96 187q50 -11 69.5 -14.5t47.5 -7.5l123 -22v-104l123 -169q24 -33 47 -65t41 -57z" />
    <glyph glyph-name="n" unicode="n" horiz-adv-x="1002" 
d="M109 854l-5 5q-4 3 -5 3q-3 0 -6 -3t-3 -8v-2q0 -3 1 -4q1 0 1 -1q3 2 17 10zM142 709l-172 105l96 186q56 -9 82.5 -14t50 -9.5t43.5 -8.5t61 -10v-95q0 -1 23.5 -34t77 -104.5t140 -184.5t167.5 -215v460q0 18 -3.5 38t-11 35.5t-16.5 23.5t-20 8q-9 0 -21 -1.5
t-29 -3.5q3 0 3 -1q-2 -1 -48 -1q22 53 31 70.5t28 46.5q26 -5 30.5 -6.5t9.5 -2.5q45 -10 89.5 -17t116.5 -21q-10 -45 -13 -75.5t-3 -58.5v-572q0 -33 2 -65.5t9 -62t19.5 -51t68.5 -52.5l-133 -45l-200 133q78 20 85 45q-118 151 -216 275q-41 53 -82 104t-104 128v-409
q0 -32 2.5 -65t9.5 -62.5t20 -51t78 -56.5q-65 -14 -90.5 -22t-49.5 -18l-236 139q77 6 85 16t13.5 30t7 44.5t1.5 45.5v381q0 46 -2 81z" />
    <glyph glyph-name="o" unicode="o" horiz-adv-x="1031" 
d="M153 487q0 -43 8.5 -92.5t24.5 -99t42.5 -94t62 -78t81 -53t102.5 -19.5q111 0 181 70q29 30 50.5 70t34.5 81.5t18.5 82.5t5.5 77q0 89 -26 171t-71.5 143t-106.5 96.5t-132 35.5q-75 0 -126.5 -34.5t-85 -91.5t-48.5 -127.5t-15 -137.5zM415 963q9 3 32 7.5t50 10
t55 9.5t59 10q18 -12 42 -29t57.5 -45.5t70 -65t70 -79.5t59 -91.5t35.5 -97.5q6 -31 8.5 -62t2.5 -57q0 -42 -8 -95t-29.5 -109t-58 -108t-92 -95t-133 -68t-177.5 -25q-113 0 -203.5 35t-153 99.5t-94.5 153t-32 195.5q0 95 24 175.5t77 144.5t137 111t202 76z" />
    <glyph glyph-name="p" unicode="p" horiz-adv-x="786" 
d="M435 877q-10 4 -21.5 6t-23.5 2q-27 0 -50.5 -8t-36.5 -18v-289q-1 1 -2 1v-1l22 -11q27 -14 57.5 -30.5t60.5 -33.5q13 -8 20 -8q9 0 9 12q-8 -3 -10 -3t-2 1q0 2 10 10q19 17 38 43.5t31.5 63t12.5 81.5v6q0 20 -9 45.5t-23.5 51t-36 46.5t-46.5 33zM109 854q-3 4 -6 6
t-4 2q-3 0 -6 -3t-3 -8v-2q0 -3 1 -4q1 0 1 -1q3 2 17 10zM142 709l-172 105l90 176q69 -14 117.5 -18.5t95.5 -10.5q55 7 90 13.5t124 23.5q19 -6 43.5 -20.5t53 -38t57 -55.5t46.5 -70q16 -32 20 -66.5t4 -60.5q0 -51 -14.5 -90.5t-37.5 -69.5q-21 -27 -47.5 -50
t-53 -41.5t-52 -29.5t-52.5 -12l-151 68v-215q0 -32 2.5 -65t9.5 -62.5t19.5 -51t69.5 -53.5l-134 -44l-224 133q65 15 75 26.5t15 30.5t6.5 42t1.5 44v383q0 45 -2 79z" />
    <glyph glyph-name="q" unicode="q" horiz-adv-x="1092" 
d="M519 204q-6 0 -11 -5q-6 -3 -7 -15q0 -3 2 -7q5 -5 9 -5h21l47 -71q-65 7 -78.5 7.5t-31.5 3.5l-54 5q6 56 11 89.5t11 81.5q57 13 93.5 21t101.5 23q12 -39 21.5 -56t26.5 -38l32 -32q12 24 32 92t20 127v7q-1 89 -27 171t-71.5 143t-105.5 96.5t-131 35.5
q-75 0 -125.5 -34.5t-84.5 -91.5t-49 -127.5t-15 -137.5q0 -43 8 -92.5t24.5 -99t42.5 -94t62 -78t81.5 -53t102.5 -19.5q96 0 154 50l-25 27l-35 47q-8 6 -17 14q-6 4 -12.5 8t-9.5 5h-1q-8 0 -11 1zM611 999q19 -10 44.5 -29t59 -46.5t70 -64t69 -79.5t57.5 -91t35 -97
q3 -17 5 -36.5t4 -37.5q1 -21 2 -44q0 -86 -19.5 -152t-44 -113t-47.5 -72l-20 -22l1 1q76 -64 150 -64h39v-16h1v-17q-23 -23 -52.5 -34.5t-66.5 -11.5q-41 0 -90 16t-93 42q-49 -26 -116.5 -42t-136.5 -16q-114 0 -204.5 35t-153 99.5t-96 153t-33.5 195.5q0 95 25.5 175
t79.5 144.5t138.5 111.5t200.5 78z" />
    <glyph glyph-name="r" unicode="r" horiz-adv-x="1050" 
d="M108 853q-3 5 -5 7q-3 2 -4 2q-3 0 -6 -3t-3 -8v-2q0 -3 1 -4q1 0 1 -1q3 2 16 9zM142 709l-172 105l90 174l207 -27l219 37q19 -6 43.5 -20.5t53 -36.5t57 -55t46.5 -72q15 -29 21.5 -65t6.5 -63q0 -53 -20 -97.5t-47.5 -77t-55 -55t-30.5 -24.5q6 -15 36 -66t70.5 -106
t88.5 -101t97 -69q18 -10 43 -10q11 0 22.5 2t38.5 11q15 -21 16.5 -27t1.5 -16q-23 -34 -65 -55.5t-86 -21.5t-93 17.5t-101 53.5q-27 17 -54.5 50t-53 70.5t-50 78.5t-42.5 78t-31.5 67t-15.5 37l-89 41v-214q0 -32 3 -64t11 -62t22 -53t69 -58l-127 -44
q-56 32 -99.5 57.5t-125.5 75.5q64 15 74 26.5t15 30.5t6.5 42t1.5 44v383q0 45 -2 79zM290 567q97 -39 127 -53q17 -8 19 -9l22 15q22 15 42.5 38t35 54.5t14.5 69.5v19q0 19 -9 45t-25.5 51.5t-37 46.5t-43.5 31q-22 11 -50 11q-22 0 -50 -6t-42 -16z" />
    <glyph glyph-name="s" unicode="s" horiz-adv-x="697" 
d="M550 909q3 -36 5.5 -61.5t4.5 -49.5q2 -13 3.5 -28t3.5 -39l-77 -50q-19 72 -31.5 103t-29.5 50.5t-44 30t-70 10.5q-17 0 -39.5 -4.5t-41.5 -17t-33 -34t-14 -56.5q0 -33 15 -60.5t40.5 -51.5t60.5 -45.5t73 -40.5q47 -22 89.5 -47t76 -57t55.5 -73.5t25 -99.5v-6
q0 -48 -33 -96t-77 -89.5t-86.5 -73t-76.5 -52.5l-314 122q-17 66 -31 119.5t-41 158.5l66 -38q10 -6 23.5 -14t13.5 -16q39 -90 98.5 -132.5t144.5 -42.5q24 0 57.5 12.5t54.5 35.5q20 26 25 49t5 49q-3 24 -18 44.5t-39 38.5t-56.5 36t-67.5 37q-44 22 -87.5 50
t-77.5 64.5t-55 81.5t-21 100q0 11 1.5 24t3.5 27q8 41 49.5 77.5t90 65t92.5 48.5t75 31z" />
    <glyph glyph-name="t" unicode="t" horiz-adv-x="963" 
d="M767 847q1 3 1 6v3q-1 10 -3 11q-5 2 -13 2q-5 0 -11 -1l-203 -35q-4 -2 -9 -5.5t-9.5 -16.5t-7.5 -45t-3 -85v-431q0 -33 2 -66.5t8.5 -62.5t18.5 -49.5t29 -30.5l43 -27l-133 -42q-40 21 -64 36.5t-52 31.5q-16 11 -33.5 20t-73.5 45l55 12q13 3 21.5 13.5t13 27.5
t5 41.5t0.5 50.5v431q0 53 -3 85t-7.5 45t-9 16.5t-11.5 5.5l-198 35q-5 1 -10 1q-7 0 -12 -2q-3 -1 -4 -11v-3q0 -3 1 -6q9 2 31 11l34 -160l-190 116l95 185l365 -38l367 38l96 -185l-191 -115l34 159q22 -9 31 -11z" />
    <glyph glyph-name="u" unicode="u" horiz-adv-x="868" 
d="M798 958q-8 -29 -9.5 -50t-3.5 -45t-3.5 -46t-1.5 -32v-560q-4 -33 -27 -62.5t-55 -55t-69 -47.5t-70 -39.5t-60.5 -29t-48.5 -20.5q-27 8 -66 19.5t-84.5 27t-91.5 33t-81 36.5q-59 38 -59 67v546q0 44 -4.5 73t-9 45t-9.5 22l-4 4q-2 1 -22 1q-16 32 -25.5 62t-25.5 79
h256v-675q1 -18 10 -47t35 -56t76.5 -48t141.5 -25h5q36 0 65.5 15.5t51.5 38.5t33.5 51.5t11.5 54.5v531q0 25 -3 39t-6.5 18t-12.5 6t-28 2q-5 0 -13 -1t-78 -18l66 128z" />
    <glyph glyph-name="v" unicode="v" horiz-adv-x="821" 
d="M503 1000l249 -47l-58 -169q-21 -63 -45 -144.5t-46 -167t-41.5 -165t-32.5 -137.5q-6 -32 -17 -109l37 -17l-47.5 -35t-22.5 -14l-34 -24l-256 112l47 20q23 12 23 45q0 21 -5.5 43.5t-12.5 47.5l-98 370q-11 42 -24.5 82.5t-26.5 75.5t-25 60.5t-59 41.5l-42 135
l254 -46l186 -714q1 -8 4 -15q3 -15 9 -26h5q6 0 8.5 2t4.5 7q42 157 76 281q15 53 29 104.5t25 92t17.5 66t6.5 29.5q3 12 3 16v7q-1 32 -9.5 51t-24.5 28q-4 2 -10 2.5t-13 0.5q-12 0 -19 -1t-17 -2l-61 -14z" />
    <glyph glyph-name="w" unicode="w" horiz-adv-x="1188" 
d="M32 873l-24 -2l-42 133l251 -45l199 -756v1h1q2 -1 9 -1q3 0 5 2t4 7q39 146 81.5 293.5t86.5 308.5h113q-14 -39 -18.5 -52t-10.5 -28q-8 -18 -14.5 -37.5t-10.5 -35.5l120 -454q1 -1 3.5 -2.5t9.5 -1.5q4 0 8 12l157 558q-5 38 -11.5 70.5t-25.5 44.5q-5 1 -10.5 2.5
t-8.5 1.5q-6 0 -11.5 -0.5t-14.5 -3.5h-1q-2 -1 -5 -1l-62 -14l61 126l261 -49q-17 -17 -20 -17l-1 -3q0 -5 -3 -11l-21 -59q-5 -13 -9 -28.5t-9 -29t-7 -24.5t-4 -16q-11 -37 -28.5 -97t-37.5 -129.5t-40.5 -142t-35.5 -136t-25 -112t-10 -67.5q0 1 2 -9t27 -31l-100 -67
q-65 29 -114 51t-141 62q58 24 64 35t6 29q0 21 -5.5 43.5t-11.5 47.5q-15 55 -28 101q-4 16 -8 31l-15 -65q-16 -65 -25.5 -110t-13 -74t-3.5 -45q0 -14 1 -16t28 -21l-100 -69q-67 28 -116 50.5t-138 61.5q54 26 59.5 37t5.5 28q0 21 -5.5 43.5t-11.5 47.5
q-17 67 -36.5 140t-37.5 141l-24 89q-11 38 -26.5 80t-31.5 80t-30 67q-13 24 -20 37z" />
    <glyph glyph-name="x" unicode="x" horiz-adv-x="851" 
d="M109 852q-6 8 -7 9t-2 1q-2 0 -5 -3q-4 -3 -4 -8v-2q0 -3 2 -4v-1q3 1 16 8zM320 479q-61 119 -102 195q-42 76 -67 117q-7 11 -13 19l23 -111l-191 115l98 188q31 -9 52.5 -13t46 -9.5t47 -11.5t43.5 -10q57 -98 98 -170q17 -30 33.5 -60t29.5 -53l10 -18l204 329h137
l-89 -122q-56 -90 -99 -161q-19 -30 -36.5 -58.5t-32 -52.5t-23.5 -38l-4 -6l-1 1q0 -1 8 -15q9 -20 23 -47t31 -61t35 -68q41 -80 91 -180q20 -36 40.5 -63t79.5 -56q-39 -29 -52.5 -39t-27.5 -22l-33 -27q-64 22 -111 39t-132 46q45 29 51.5 39.5t6.5 21.5l-3 15
q-36 74 -67 134q-12 27 -24.5 52l-22.5 45l-4 6q-39 -63 -103 -171q-66 -109 -147 -245q-41 48 -55.5 65.5t-37.5 47.5l19 20q4 6 9 10l4 2q9 9 20.5 22.5t29.5 39t45.5 66.5t68.5 104q26 44 48 77q8 15 17.5 29.5t16.5 25.5t11 16q0 1 1 1z" />
    <glyph glyph-name="y" unicode="y" horiz-adv-x="860" 
d="M108 853q-5 6 -5 7q-2 2 -4 2t-6 -4q-2 -2 -2 -7v-2q0 -3 1 -4q1 0 1 -1q3 2 15 9zM137 811l24 -112l-191 115l98 187q43 -10 62 -14.5t37 -8.5t37 -8.5t53 -11.5l196 -339q31 57 90 157.5t120 209.5h140l-83 -117q-57 -97 -105 -175q-20 -33 -39.5 -66t-35.5 -60
t-26.5 -45t-11.5 -19v-254q0 -33 2 -66.5t9 -63t19.5 -51.5t73.5 -56q-56 -14 -66.5 -17.5t-21.5 -6.5t-21.5 -7.5t-26.5 -10.5q-44 24 -73 42.5t-60 37.5l-89 52q63 16 73.5 25.5t16.5 25t8 37.5t2 47v200q-57 112 -103.5 194t-77.5 133q-17 26 -30 46z" />
    <glyph glyph-name="z" unicode="z" horiz-adv-x="845" 
d="M512 868q-29 6 -75 10q-50 4 -102 4q-26 0 -50 -3t-49 -13q-41 -17 -41 -46q0 -6 3 -9t25 -3l27 -116q-89 50 -123.5 70.5t-90.5 51.5l112 172h637q-130 -211 -211 -342t-138 -222.5t-93 -148.5t-57 -90.5t-33 -47.5q-6 -8 -6 -9l5 5q34 -20 88.5 -36.5t115.5 -16.5
q33 0 62 9t51.5 21t37 25t36.5 54l120 -142q-28 -18 -50.5 -28.5t-58 -20.5t-85.5 -16t-115 -6q-35 0 -74.5 9t-72.5 20t-58 21q-14 6 -18 6q-1 0 -1 -1t2 -3q-20 -7 -58 -21t-90 -35l-132 124q48 6 57.5 10.5t22.5 13.5t28.5 24.5t28.5 37.5q120 197 216 351
q39 64 78 128.5t70 114t50 80.5q5 9 9 14z" />
    <glyph glyph-name="braceleft" unicode="{" horiz-adv-x="886" 
d="M433 207q0 -54 16.5 -87.5t39 -52t46.5 -27.5q42 26 62.5 55.5t34 76t37.5 148.5l143 -156q-4 -42 -6.5 -78t-6.5 -82l-232 -128q-35 18 -84 46.5t-102.5 69t-99 91t-53.5 106.5l-1 223q-2 179 -151 188l-116 -2l126 177l39 -2q99 81 103 224l2 225q11 51 53 98
q44 48 97.5 88.5t102.5 69t84 46.5l232 -128q4 -46 6.5 -82t6.5 -78l-154 -154q-23 100 -36.5 147t-29.5 76t-57 55q-60 -20 -85 -79q-6 -12 -7 -27q-4 -59 -4 -254q-9 -155 -140 -271q122 -13 133 -327z" />
    <glyph glyph-name="bar" unicode="|" horiz-adv-x="467" 
d="M77 1234q0 47 -2.5 95t-11.5 91.5t-26 74t-43 44.5l-45 28l164 56q52 -30 89.5 -52t78.5 -46l127 -77l-54 -16q-24 -5 -37 -21.5t-20.5 -43t-8 -61t-0.5 -72.5v-563h-1v-514q0 -47 2.5 -95t11.5 -91.5t26 -74t43 -44.5l45 -28l-164 -56q-52 30 -89.5 52t-78.5 46l-127 77
l54 16q24 5 37 21.5t20.5 43t8 61t0.5 72.5v543z" />
    <glyph glyph-name="braceright" unicode="}" horiz-adv-x="886" 
d="M356 1193q0 54 -16.5 87.5t-39.5 52t-47 27.5q-41 -26 -61.5 -55.5t-34.5 -76t-36 -149.5l-144 157q4 42 6.5 78t6.5 82l232 128q35 -18 84 -46.5t102.5 -69t99 -91t53.5 -106.5l1 -223q2 -179 151 -188l116 2l-126 -177l-40 2q-98 -81 -102 -224l-2 -225
q-11 -51 -53 -98q-44 -48 -97.5 -88.5t-102.5 -69t-84 -46.5l-232 128q-4 46 -6.5 82t-6.5 78l154 154q22 -100 36 -147t30 -76t57 -55q60 20 85 79q6 12 7 27q3 58 4 254q9 155 140 271q-123 13 -134 327v195z" />
    <glyph glyph-name="asciitilde" unicode="~" horiz-adv-x="874" 
d="M606 1502q-114 -30 -151 -30q-46 0 -111.5 35t-102.5 35q-53 -4 -340 -134l266 267q134 59 201 59q49 0 111.5 -38.5t97.5 -38.5q49 0 290 89z" />
    <glyph glyph-name="exclamdown" unicode="&#xa1;" horiz-adv-x="317" 
d="M169 1071l74 -963l-218 -155l-50 158l63 872zM220 1358v-121l-111 -67l-113 67v121l113 63z" />
    <glyph glyph-name="cent" unicode="&#xa2;" horiz-adv-x="870" 
d="M349 370q3 16 3 35v311h1v214q0 33 -1 52q-55 -3 -103 -48q-23 -22 -38 -55.5t-23 -69.5t-11.5 -70.5t-3.5 -54.5q5 -63 26 -127t62 -113q36 -44 88 -74zM498 249h-1q-6 0 -6 -1h7v1zM511 249q2 -1 4 -3l24 -24l-94 -48q-33 29 -50 44.5t-37 31.5l-2 2q-48 6 -103 27
q-81 32 -145 91q-63 57 -98 132t-35 151q0 73 32 135t81 113t107.5 90.5t113.5 68.5q26 13 35 17q-3 15 -10 37q-7 19 -18 27l-24 24l94 46q33 -28 50 -43t37 -32l4 -3l267 -141q-14 -42 -24.5 -66t-21.5 -50l-44 -109l-42 26q-13 10 -48 31q18 23 29 44.5t11 44.5
q0 15 -10 28q-9 11 -28.5 19.5t-86.5 17.5v-308h-1v-214q0 -33 1 -66q1 -29 5 -57q7 -1 31 -1q41 0 78.5 21.5t67.5 49t48 53t51 90.5q21 -78 25 -87.5t11 -31.5q-15 -33 -27.5 -62t-27.5 -63q-36 -21 -77 -31.5t-84 -15.5q-36 -4 -69 -6z" />
    <glyph glyph-name="sterling" unicode="&#xa3;" horiz-adv-x="1118" 
d="M441 747q38 0 78 2q40 1 74.5 8.5t59.5 19.5t66 76l54 -143l-156 -219q-20 64 -33 73.5t-34 14.5t-49.5 6t-61.5 1h-52l1 -224q0 -50 4 -132.5t31 -84.5h136q53 0 110.5 10t107 45.5t89.5 105.5t63 255q60 -86 74.5 -107t40.5 -58q-29 -104 -59.5 -203.5t-63.5 -212.5
h-764l-200 180q88 18 148 36.5t67 41.5t8.5 55.5t1.5 68.5v221q-3 -1 -30 -6q-34 -8 -59 -20t-66 -76l-54 143l156 219q20 -64 33 -73q9 -7 20 -11v279q0 15 1.5 33.5t5.5 37.5q10 56 68.5 106.5t126.5 91t130.5 68.5t100.5 44l289 -126q5 -47 8 -83t7 -70q3 -20 5 -41
t3 -51l-91 -58q-24 87 -41.5 133t-43.5 75t-67 45t-105 16q-25 0 -59 -6.5t-63 -25.5t-50 -52t-21 -86l1 -341h54v-1z" />
    <glyph glyph-name="currency" unicode="&#xa4;" horiz-adv-x="1172" 
d="M481 743q0 -43 6.5 -94.5t20 -94.5t33 -67.5t39.5 -24.5q21 0 38.5 22t29 61t16 82.5t4.5 74.5v4q0 52 -9.5 105.5t-26 95.5t-35.5 64.5t-35 22.5t-31.5 -19.5t-27 -56.5t-17 -84t-5.5 -91zM172 1213v1q-17 21 -19 23q-4 3 -11 3q-8 0 -15 -7q-8 -7 -8 -18v-3
q1 -8 5.5 -11t7.5 -3q6 0 40 15zM175 1209l40 -190l-246 147l135 255q35 -10 66 -16t65 -14t66.5 -16t59.5 -15q77 -135 136 -237q4 -7 5 -7l-3 4q7 4 42 18q6 4 23 9t33 9.5t31.5 8.5t32.5 4q51 -50 63 -68l185 299h170l-117 -162q-79 -129 -142 -229q-12 -19 -18 -30
q1 -3 6 -14q29 -60 37 -125q2 -26 3 -55t1 -53q0 -60 -12 -131q-10 -46 -23 -82q2 -2 6 -11q58 -114 130 -256q30 -53 59.5 -92.5t103.5 -75.5q-45 -33 -64.5 -48.5t-38.5 -31.5l-43 -35q-84 29 -151 53.5t-176 61.5q56 31 66 48t10 37l-5 21q-41 85 -66 135q-18 -9 -73 -9
q-65 0 -117 31q-32 18 -33 19q-16 -26 -47 -79q-93 -157 -203 -338q-46 58 -66.5 82.5t-50.5 62.5l25 27l14 12l6 5q9 10 26 29t43 56t65.5 96t97.5 149q7 11 8 13q-15 31 -27 77q-18 73 -18 161q0 135 39 222q-5 9 -13 24q-60 109 -96 168q-33 53 -50 76z" />
    <glyph glyph-name="yen" unicode="&#xa5;" horiz-adv-x="1186" 
d="M171 1213l-17 22q-7 5 -13 5q-9 0 -16 -7t-7 -18v-3q1 -8 5.5 -11t7.5 -3q6 0 40 15zM174 1208l40 -189l-244 147l131 254q54 -12 81.5 -18.5t53 -12.5t52.5 -12.5t70 -15.5l289 -497q54 98 138 242t168 294h176l-111 -154q-81 -139 -149 -250q-29 -48 -57.5 -95
t-51 -85.5t-37.5 -64.5q-4 -8 -4 -9l7 10h-2l27 2q39 1 73.5 8.5t59.5 19.5t66 76l54 -143l-156 -219q-20 64 -33 73.5t-34 14.5t-48 6q-26 1 -28 1v-149q9 0 46 2q39 1 73.5 8.5t59.5 19.5t66 76l54 -143l-156 -219q-20 64 -33 73.5t-34 14.5t-48 6l-24 -18q3 -48 13 -91
t28.5 -76.5t85.5 -68.5q-53 -20 -69 -24.5t-32.5 -9.5t-29.5 -10t-32 -15q-59 33 -100 59t-86 53l-113 66q76 18 92.5 33t25.5 38.5t13 65.5q-11 0 -48 -1q-39 -2 -73.5 -9.5t-59.5 -19.5t-66 -76l-54 143l156 219q20 -64 33 -73.5t34 -14.5t49 -6q27 -1 31 -1v149
q-12 0 -50 -1q-39 -2 -73.5 -9.5t-59.5 -19.5t-66 -76l-54 143l156 219q20 -64 33 -73.5t55 -19.5q-44 72 -89 151q-66 117 -111.5 190t-69.5 107z" />
    <glyph glyph-name="brokenbar" unicode="&#xa6;" horiz-adv-x="467" 
d="M76 783l1 451q0 47 -2.5 95t-11.5 91.5t-26 74t-43 44.5l-45 28l164 56q52 -30 89.5 -52t78.5 -46l127 -77l-54 -16q-24 -5 -37 -21.5t-20.5 -43t-8 -61t-0.5 -72.5v-583zM287 581v-424q0 -47 2.5 -95t11.5 -91.5t26 -74t43 -44.5l45 -28l-164 -56q-52 30 -89.5 52
t-78.5 46l-127 77l54 16q24 5 37 21.5t20.5 43t8 61t0.5 72.5v555z" />
    <glyph glyph-name="section" unicode="&#xa7;" horiz-adv-x="953" 
d="M351 733q0 -43 6.5 -94.5t20 -94.5t33 -67.5t39.5 -24.5q21 0 38.5 22t29 61t16 82.5t4.5 74.5v4q0 52 -9.5 105.5t-26 95.5t-35.5 64.5t-35 22.5t-31.5 -19.5t-27 -56.5t-17 -84t-5.5 -91zM645 426q-28 -44 -67 -76q-54 -44 -136 -44q-65 0 -116.5 30.5t-87.5 84
t-54.5 127t-18.5 161.5q0 38 2 65l-8 9q-48 50 -77.5 113.5t-29.5 141.5q0 15 1.5 33.5t5.5 37.5q10 56 68.5 106.5t126.5 91t130.5 68.5t100.5 44l289 -126q5 -47 8 -83t7 -70q3 -20 5 -41t3 -51l-91 -58q-24 87 -41.5 133t-43.5 75t-67 45t-105 16q-25 0 -59 -6.5
t-63 -25.5t-50 -52t-21 -86q0 -29 8 -55q40 52 147 94q6 4 23 9t33 9.5t31.5 8.5t32.5 4q52 -51 88 -102q32 -45 60 -103.5t36 -123.5q2 -26 3 -55t1 -53q0 -18 -1 -30q21 -14 47 -38q47 -45 77.5 -103t35.5 -139v-9q0 -66 -46.5 -133t-108.5 -126t-123 -103.5t-102 -73.5
l-440 171q-22 91 -42 167t-53 203l71 -39q15 -8 31.5 -18t16.5 -20q59 -131 146 -194t213 -63q36 0 86 18.5t83 54.5q29 39 36.5 72.5t7.5 72.5q-2 18 -9 34z" />
    <glyph glyph-name="dieresis" unicode="&#xa8;" horiz-adv-x="700" 
d="M356 1500v147l134 78l135 -78v-147l-135 -80zM-25 1499v148l134 78l135 -78v-148l-135 -79z" />
    <glyph glyph-name="copyright" unicode="&#xa9;" horiz-adv-x="1000" 
d="M705 727q5 5 10 11q110 117 110 287t-110.5 287.5t-264.5 117.5t-264.5 -117.5t-110.5 -287.5t110.5 -287.5t264.5 -117.5q137 0 239 92q-23 -12 -48 -19q-33 -9 -66 -13t-65 -5.5t-56 -1.5q-69 0 -133 27t-113 78q-49 47 -76 110.5t-27 126.5q0 62 25 113.5t62.5 94.5
t82 76.5t87 57.5t76 38.5t61.5 22.5l206 -119q-11 -36 -19.5 -56.5t-16.5 -41.5l-38 -100l-38 30q-10 7 -39 26q15 21 23 38.5t8 36.5q0 13 -7 23q-6 9 -19.5 15t-34 10t-45 6t-48.5 2q-67 0 -105 -39q-17 -18 -28.5 -45.5t-17.5 -58t-8.5 -59t-2.5 -46.5q3 -51 19 -104.5
t46.5 -94.5t76.5 -65.5t112 -24.5q30 0 57 16.5t49.5 39.5t36.5 44t41 89q26 -78 28.5 -87t8.5 -27q-11 -28 -21 -52q-9 -21 -18 -47zM925 1025q0 -204 -138.5 -349.5t-336.5 -145.5t-336.5 145.5t-138.5 349.5t138.5 349.5t336.5 145.5t336.5 -145.5t138.5 -349.5z" />
    <glyph glyph-name="ordfeminine" unicode="&#xaa;" 
d="M0 200v1100q0 200 200 200h1100q200 0 200 -200v-1100q0 -200 -200 -200h-1100q-200 0 -200 200zM1475 201v1099q0 175 -175 175h-1100q-174 0 -175 -175v-1100q1 -175 175 -175h1101q174 0 174 176z" />
    <glyph glyph-name="guillemotleft" unicode="&#xab;" horiz-adv-x="1208" 
d="M175 874l363 286h239q-237 -159 -311 -216q-101 -84 -197 -166l-37 -38q29 -30 60 -60t68 -67.5t75 -76.5q102 -98 127 -119q37 -42 169 -154l-223 -112q-66 72 -151 142q-95 96 -160 163q-27 29 -54 57.5t-49 50.5t-35 37t-16 18q-67 70 -67 86q197 170 199 169z
M575 874l363 286h239q-237 -159 -311 -216q-101 -84 -197 -166l-37 -38q29 -30 60 -60t68 -67.5t75 -76.5q102 -98 127 -119q37 -42 169 -154l-223 -112q-66 72 -151 142q-95 96 -160 163q-27 29 -54 57.5t-49 50.5t-35 37t-16 18q-67 70 -67 86q197 170 199 169z" />
    <glyph glyph-name="logicalnot" unicode="&#xac;" 
d="M0 200v1100q0 200 200 200h1100q200 0 200 -200v-1100q0 -200 -200 -200h-1100q-200 0 -200 200zM1475 201v1099q0 175 -175 175h-1100q-174 0 -175 -175v-1100q1 -175 175 -175h1101q174 0 174 176z" />
    <glyph glyph-name="registered" unicode="&#xae;" horiz-adv-x="1000" 
d="M179 745q3 -4 7 -7q110 -118 264 -118q132 0 193 53q-49 26 -87 52q-20 14 -40 37.5t-38.5 50.5t-36 56.5t-30 56t-22.5 48t-11 24.5l-50 23v-142q0 -23 2 -45.5t7.5 -43.5t15 -36.5t56.5 -45.5l-105 -37q-43 25 -74 44q-18 10 -51 30zM735 762q90 105 90 263
q0 170 -110.5 287.5t-264.5 117.5q-116 0 -167 -37l19 -3l157 27q16 -5 34 -15.5t39 -27t41.5 -40.5t33.5 -53q11 -20 16 -46.5t5 -46.5q0 -39 -15 -71.5t-34.5 -56t-39.5 -39.5l-19 -16q2 -7 23.5 -43t50.5 -75t62.5 -71.5t67.5 -48.5zM421 1066l13 9q15 10 29 25.5t24 37
t10 48.5v13q0 13 -6.5 31t-18 35.5t-25.5 31.5t-29 21q-14 7 -32 7q-15 0 -34 -4t-25 -8v-199l4 -2l34 -18q26 -14 45 -23zM205 1203l-71 43q-59 -84 -59 -221q0 -140 75 -245q37 10 42 15q5 7 8.5 20.5t5 29.5t1.5 30v273q0 31 -2 55zM925 1025q0 -204 -138.5 -349.5
t-336.5 -145.5t-336.5 145.5t-138.5 349.5t138.5 349.5t336.5 145.5t336.5 -145.5t138.5 -349.5z" />
    <glyph glyph-name="macron" unicode="&#xaf;" 
d="M0 200v1100q0 200 200 200h1100q200 0 200 -200v-1100q0 -200 -200 -200h-1100q-200 0 -200 200zM1475 201v1099q0 175 -175 175h-1100q-174 0 -175 -175v-1100q1 -175 175 -175h1101q174 0 174 176z" />
    <glyph glyph-name="degree" unicode="&#xb0;" horiz-adv-x="586" 
d="M244 1181q-64 0 -111 -47t-47 -116t47 -115t111 -46t110 46t46 115t-46.5 116t-109.5 47zM244 1282q112 0 189.5 -78t77.5 -185t-78 -185.5t-191 -78.5q-114 0 -190.5 77.5t-76.5 186.5q0 108 77.5 185.5t191.5 77.5z" />
    <glyph glyph-name="plusminus" unicode="&#xb1;" 
d="M0 200v1100q0 200 200 200h1100q200 0 200 -200v-1100q0 -200 -200 -200h-1100q-200 0 -200 200zM1475 201v1099q0 175 -175 175h-1100q-174 0 -175 -175v-1100q1 -175 175 -175h1101q174 0 174 176z" />
    <glyph glyph-name="uni00B2" unicode="&#xb2;" 
d="M0 200v1100q0 200 200 200h1100q200 0 200 -200v-1100q0 -200 -200 -200h-1100q-200 0 -200 200zM1475 201v1099q0 175 -175 175h-1100q-174 0 -175 -175v-1100q1 -175 175 -175h1101q174 0 174 176z" />
    <glyph glyph-name="uni00B3" unicode="&#xb3;" 
d="M0 200v1100q0 200 200 200h1100q200 0 200 -200v-1100q0 -200 -200 -200h-1100q-200 0 -200 200zM1475 201v1099q0 175 -175 175h-1100q-174 0 -175 -175v-1100q1 -175 175 -175h1101q174 0 174 176z" />
    <glyph glyph-name="acute" unicode="&#xb4;" horiz-adv-x="503" 
d="M235 1720q33 33 55.5 46.5t48.5 13.5q41 0 65 -24t24 -58q0 -25 -16.5 -46.5t-47.5 -41.5l-296 -181h-119z" />
    <glyph glyph-name="mu" unicode="&#xb5;" horiz-adv-x="868" 
d="M288 22q-8 3 -9 3q0 -1 10 -5q-1 1 -1 2zM320 11l-119 -40q-40 23 -66 38.5t-55 31.5l-101 61l52 15q14 3 22 13t13 27q1 6 2 9v534q0 45 -4.5 74t-9 44t-9.5 21q-4 4 -4 5h1q-3 1 -24 1q-16 32 -25.5 62t-23.5 79h254v-673q2 -20 11 -49t35 -56t76.5 -47.5t141.5 -24.5
h4q37 0 66 15t51 38.5t33.5 51.5t11.5 54v531q0 25 -3 39t-6.5 18t-12.5 6t-28 2q-5 0 -13 -1t-78 -17l67 127l218 -41q-7 -30 -9 -51t-4 -44.5t-3 -45t-1 -33.5v-560q-5 -32 -27.5 -62t-54.5 -55.5t-69 -47.5t-70.5 -39.5t-61 -29t-49.5 -20.5q-26 8 -64 20q-30 9 -64 20z
" />
    <glyph glyph-name="paragraph" unicode="&#xb6;" horiz-adv-x="832" 
d="M757 1276v-102h-111v-1194h-122v1194h-95v-1194h-124v647q-139 7 -234.5 95.5t-95.5 227.5q0 145 101.5 235.5t267.5 90.5h413z" />
    <glyph glyph-name="periodcentered" unicode="&#xb7;" horiz-adv-x="319" 
d="M-25 755v148l134 78l135 -78v-148l-135 -79z" />
    <glyph glyph-name="periodcentered" unicode="&#x2219;" horiz-adv-x="319" 
d="M-25 755v148l134 78l135 -78v-148l-135 -79z" />
    <glyph glyph-name="cedilla" unicode="&#xb8;" horiz-adv-x="535" 
d="M-55 -203q153 -92 217 -92q61 0 83.5 17t22.5 56q0 36 -38 51t-97 15q-15 0 -69 -8l63 233h120l-37 -106h31q101 0 160 -48.5t59 -134.5q0 -90 -69.5 -143.5t-189.5 -53.5q-104 0 -172 42z" />
    <glyph glyph-name="uni00B9" unicode="&#xb9;" 
d="M0 200v1100q0 200 200 200h1100q200 0 200 -200v-1100q0 -200 -200 -200h-1100q-200 0 -200 200zM1475 201v1099q0 175 -175 175h-1100q-174 0 -175 -175v-1100q1 -175 175 -175h1101q174 0 174 176z" />
    <glyph glyph-name="ordmasculine" unicode="&#xba;" 
d="M0 200v1100q0 200 200 200h1100q200 0 200 -200v-1100q0 -200 -200 -200h-1100q-200 0 -200 200zM1475 201v1099q0 175 -175 175h-1100q-174 0 -175 -175v-1100q1 -175 175 -175h1101q174 0 174 176z" />
    <glyph glyph-name="guillemotright" unicode="&#xbb;" horiz-adv-x="1208" 
d="M1133 705q0 -16 -67 -86q-3 -3 -16 -18t-35 -37t-49 -50.5t-55 -57.5q-65 -67 -160 -163q-85 -70 -151 -142l-222 112q132 112 169 154q25 21 126 120q39 38 75.5 75.5t67.5 67.5t60 60l-36 38q-96 82 -197 166q-74 57 -311 216h238l368 -291q5 0 195 -164zM733 705
q0 -16 -67 -86q-3 -3 -16 -18t-35 -37t-49 -50.5t-55 -57.5q-65 -67 -160 -163q-85 -70 -151 -142l-222 112q132 112 169 154q25 21 126 120q39 38 75.5 75.5t67.5 67.5t60 60l-36 38q-96 82 -197 166q-74 57 -311 216h238l368 -291q5 0 195 -164z" />
    <glyph glyph-name="onequarter" unicode="&#xbc;" 
d="M0 200v1100q0 200 200 200h1100q200 0 200 -200v-1100q0 -200 -200 -200h-1100q-200 0 -200 200zM1475 201v1099q0 175 -175 175h-1100q-174 0 -175 -175v-1100q1 -175 175 -175h1101q174 0 174 176z" />
    <glyph glyph-name="onehalf" unicode="&#xbd;" 
d="M0 200v1100q0 200 200 200h1100q200 0 200 -200v-1100q0 -200 -200 -200h-1100q-200 0 -200 200zM1475 201v1099q0 175 -175 175h-1100q-174 0 -175 -175v-1100q1 -175 175 -175h1101q174 0 174 176z" />
    <glyph glyph-name="threequarters" unicode="&#xbe;" 
d="M0 200v1100q0 200 200 200h1100q200 0 200 -200v-1100q0 -200 -200 -200h-1100q-200 0 -200 200zM1475 201v1099q0 175 -175 175h-1100q-174 0 -175 -175v-1100q1 -175 175 -175h1101q174 0 174 176z" />
    <glyph glyph-name="questiondown" unicode="&#xbf;" horiz-adv-x="827" 
d="M512 -52q-6 0 -39 4t-78 12.5t-100.5 22t-107.5 33.5t-96.5 48t-63.5 66q-51 92 -52 168v5q0 73 28 137q29 66 78.5 123.5t98.5 111.5q31 33 64.5 65t63.5 65.5t52 67t29 79.5l180 124q4 -58 4 -75q0 -53 -12 -104q-17 -65 -46.5 -126t-70 -115t-80.5 -97
q-39 -45 -76 -88t-61.5 -85.5t-30.5 -87.5q-2 -12 -2 -25q0 -32 12 -67q18 -51 47 -75t61 -33q25 -7 47 -7q7 0 14 1q32 3 51 9q55 18 83.5 45.5t41.5 66.5q12 38 12 85v6q-1 52 -14 148l136 -41l69 -249l-225 -218h-17zM569 1360v-123l-114 -68l-117 68v123l117 66z" />
    <glyph glyph-name="Agrave" unicode="&#xc0;" horiz-adv-x="1333" 
d="M874 1429h-119l-296 181q-31 20 -47.5 41.5t-16.5 46.5q0 34 24 58t65 24q26 0 48.5 -13.5t55.5 -46.5zM594 1063l-226 -583h444zM487 1205q-10 20 -16 26q-8 7 -18 7q-5 0 -13 -6.5t-8 -18.5t7.5 -17.5t13.5 -5.5h16q-1 0 18 15zM443 1047l-196 119l122 251
q96 -15 181 -28t173 -28l467 -1249q14 -34 88 -85q-42 -16 -59.5 -23.5t-36.5 -14.5q-23 -9 -59 -21q-59 30 -103.5 57t-89.5 55q-20 10 -36.5 22t-73.5 47q68 14 81.5 21.5t20.5 14.5l-52 139h-568l-100 -251q-15 -33 -28.5 -51t-34.5 -35t-48 -17q-35 0 -62.5 14t-63.5 37
l35 35q29 0 51.5 21t43.5 71q112 284 199 513q38 96 73.5 189t64.5 167q6 15 11 30z" />
    <glyph glyph-name="Aacute" unicode="&#xc1;" horiz-adv-x="1333" 
d="M655 1720q33 33 55.5 46.5t48.5 13.5q41 0 65 -24t24 -58q0 -25 -16.5 -46.5t-47.5 -41.5l-296 -181h-119zM594 1063l-226 -583h444zM487 1205q-10 20 -16 26q-8 7 -18 7q-5 0 -13 -6.5t-8 -18.5t7.5 -17.5t13.5 -5.5h16q-1 0 18 15zM443 1047l-196 119l122 251
q96 -15 181 -28t173 -28l467 -1249q14 -34 88 -85q-42 -16 -59.5 -23.5t-36.5 -14.5q-23 -9 -59 -21q-59 30 -103.5 57t-89.5 55q-20 10 -36.5 22t-73.5 47q68 14 81.5 21.5t20.5 14.5l-52 139h-568l-100 -251q-15 -33 -28.5 -51t-34.5 -35t-48 -17q-35 0 -62.5 14t-63.5 37
l35 35q29 0 51.5 21t43.5 71q112 284 199 513q38 96 73.5 189t64.5 167q6 15 11 30z" />
    <glyph glyph-name="Acircumflex" unicode="&#xc2;" horiz-adv-x="1333" 
d="M597 1628q-85 -78 -183 -207l-124 109q90 131 332 350q119 -72 181 -141q32 -36 69 -74.5t90 -90.5l-153 -159q-163 186 -212 213zM594 1063l-226 -583h444zM487 1205q-10 20 -16 26q-8 7 -18 7q-5 0 -13 -6.5t-8 -18.5t7.5 -17.5t13.5 -5.5h16q-1 0 18 15zM443 1047
l-196 119l122 251q96 -15 181 -28t173 -28l467 -1249q14 -34 88 -85q-42 -16 -59.5 -23.5t-36.5 -14.5q-23 -9 -59 -21q-59 30 -103.5 57t-89.5 55q-20 10 -36.5 22t-73.5 47q68 14 81.5 21.5t20.5 14.5l-52 139h-568l-100 -251q-15 -33 -28.5 -51t-34.5 -35t-48 -17
q-35 0 -62.5 14t-63.5 37l35 35q29 0 51.5 21t43.5 71q112 284 199 513q38 96 73.5 189t64.5 167q6 15 11 30z" />
    <glyph glyph-name="Atilde" unicode="&#xc3;" horiz-adv-x="1333" 
d="M846 1502q-114 -30 -151 -30q-46 0 -111.5 35t-102.5 35q-53 -4 -340 -134l266 267q134 59 201 59q49 0 111.5 -38.5t97.5 -38.5q49 0 290 89zM594 1063l-226 -583h444zM487 1205q-10 20 -16 26q-8 7 -18 7q-5 0 -13 -6.5t-8 -18.5t7.5 -17.5t13.5 -5.5h16q-1 0 18 15z
M443 1047l-196 119l122 251q96 -15 181 -28t173 -28l467 -1249q14 -34 88 -85q-42 -16 -59.5 -23.5t-36.5 -14.5q-23 -9 -59 -21q-59 30 -103.5 57t-89.5 55q-20 10 -36.5 22t-73.5 47q68 14 81.5 21.5t20.5 14.5l-52 139h-568l-100 -251q-15 -33 -28.5 -51t-34.5 -35
t-48 -17q-35 0 -62.5 14t-63.5 37l35 35q29 0 51.5 21t43.5 71q112 284 199 513q38 96 73.5 189t64.5 167q6 15 11 30z" />
    <glyph glyph-name="Adieresis" unicode="&#xc4;" horiz-adv-x="1333" 
d="M686 1500v147l134 78l135 -78v-147l-135 -80zM305 1499v148l134 78l135 -78v-148l-135 -79zM594 1063l-226 -583h444zM487 1205q-10 20 -16 26q-8 7 -18 7q-5 0 -13 -6.5t-8 -18.5t7.5 -17.5t13.5 -5.5h16q-1 0 18 15zM443 1047l-196 119l122 251q96 -15 181 -28t173 -28
l467 -1249q14 -34 88 -85q-42 -16 -59.5 -23.5t-36.5 -14.5q-23 -9 -59 -21q-59 30 -103.5 57t-89.5 55q-20 10 -36.5 22t-73.5 47q68 14 81.5 21.5t20.5 14.5l-52 139h-568l-100 -251q-15 -33 -28.5 -51t-34.5 -35t-48 -17q-35 0 -62.5 14t-63.5 37l35 35q29 0 51.5 21
t43.5 71q112 284 199 513q38 96 73.5 189t64.5 167q6 15 11 30z" />
    <glyph glyph-name="Aring" unicode="&#xc5;" horiz-adv-x="1333" 
d="M789.5 1807q70.5 -67 70.5 -160q0 -92 -70.5 -159t-171.5 -67t-172 67t-71 159q0 93 71 160t172 67t171.5 -67zM588 1751q-29 0 -53.5 -31t-24.5 -78t24.5 -78t53.5 -31t53.5 31t24.5 78t-24.5 78t-53.5 31zM594 1063l-226 -583h444zM487 1205q-10 20 -16 26q-8 7 -18 7
q-5 0 -13 -6.5t-8 -18.5t7.5 -17.5t13.5 -5.5h16q-1 0 18 15zM443 1047l-196 119l122 251q96 -15 181 -28t173 -28l467 -1249q14 -34 88 -85q-42 -16 -59.5 -23.5t-36.5 -14.5q-23 -9 -59 -21q-59 30 -103.5 57t-89.5 55q-20 10 -36.5 22t-73.5 47q68 14 81.5 21.5
t20.5 14.5l-52 139h-568l-100 -251q-15 -33 -28.5 -51t-34.5 -35t-48 -17q-35 0 -62.5 14t-63.5 37l35 35q29 0 51.5 21t43.5 71q112 284 199 513q38 96 73.5 189t64.5 167q6 15 11 30z" />
    <glyph glyph-name="AE" unicode="&#xc6;" horiz-adv-x="1953" 
d="M594 1063l-226 -583h444zM487 1204q-10 21 -16 27q-8 7 -18 7q-5 0 -13 -6.5t-8 -18.5t7.5 -17.5t13.5 -5.5h16q-1 0 18 14zM762 1257l170 -456v306q-11 62 -28.5 102t-39.5 51q-16 6 -36 6q-8 0 -16.5 -0.5t-15.5 -1.5q-11 -2 -22 -5zM1276 26q-41 -15 -57 -22
q-18 -8 -37 -15q-23 -9 -59 -21q-59 30 -103.5 57t-89.5 55q-20 10 -37 23q-15 10 -28 18l-57 14q88 37 104 74v2l-42 113h-568l-100 -251q-15 -33 -28.5 -51t-34.5 -35t-48 -17q-35 0 -62.5 14t-63.5 37l35 35q29 0 51.5 21t43.5 71q112 284 199 513q38 96 73.5 189
t64.5 167q6 15 11 30l-196 119l122 251q96 -15 181 -28t173 -28l19 -50l48 91l169 -20q57 -7 104 -12l46 -6l342 53l122 -48q79 -32 143 -78t130 -105l-167 -173q-47 76 -90 119.5t-88.5 75.5t-92 49t-87.5 17h-6q-57 -3 -103.5 -32t-75.5 -83v-407h84q39 0 79.5 1.5t75 9
t59.5 19.5t66 76l54 -143l-156 -219q-20 64 -33 73.5t-34 14.5t-49.5 6t-61.5 1h-84v-335l31 -83q25 -20 63 -36q42 -17 87 -26.5t72 -9.5q86 0 163.5 54t147.5 183l187 -194q-63 -42 -121.5 -71.5t-122.5 -52.5t-129 -36.5t-125 -13.5l-70 20q-31 25 -43 36z" />
    <glyph glyph-name="Ccedilla" unicode="&#xc7;" horiz-adv-x="1276" 
d="M504 -15q-46 9 -112 37q-123 51 -219 149q-93 93 -145.5 216t-52.5 247q0 118 48 219.5t121.5 185.5t161.5 149.5t171.5 113t149 75.5t105.5 42l389 -226q-18 -58 -34.5 -99t-32.5 -83l-64 -169l-49 38q-18 15 -61 43q20 29 37.5 66t17.5 79q0 30 -17 54q-15 23 -47 38
t-75.5 23t-94 12t-99.5 4q-146 0 -231 -86q-37 -38 -60.5 -96t-36 -119.5t-17.5 -119t-5 -94.5q7 -106 39.5 -215t96.5 -194t161 -137.5t237 -52.5q68 0 126.5 36.5t105.5 84t75.5 91t63.5 112.5q24 -87 29.5 -103.5t15.5 -48.5q-21 -51 -40.5 -99.5t-39.5 -101.5
q-49 -31 -110.5 -48t-127 -25t-127.5 -10.5t-110 -2.5h-35l-2 -7h31q101 0 160 -48.5t59 -134.5q0 -90 -69.5 -143.5t-189.5 -53.5q-104 0 -172 42l-84 172q153 -92 217 -92q61 0 83.5 17t22.5 56q0 36 -38 51t-97 15q-15 0 -69 -8z" />
    <glyph glyph-name="Egrave" unicode="&#xc8;" horiz-adv-x="1203" 
d="M386 752h84q39 0 79.5 1.5t75 9t59.5 19.5t66 76l54 -143l-156 -219q-20 64 -33 73.5t-34 14.5t-49.5 6t-61.5 1h-84v-367q0 -26 27.5 -48.5t68 -39t85.5 -26t72 -9.5q86 0 163.5 54t147.5 183l187 -194q-63 -42 -121.5 -71.5t-122.5 -52.5t-129 -36.5t-125 -13.5
l-578 167q85 35 103 77t18 125v768q-11 62 -28.5 102t-39.5 51q-16 6 -36 6q-8 0 -16.5 -0.5t-15.5 -1.5q-11 -2 -22 -5l-65 -10l81 153l169 -20q57 -7 104 -12l46 -6l342 53l122 -48q79 -32 143 -78t130 -105l-167 -173q-47 76 -90 119.5t-88.5 75.5t-92 49t-87.5 17h-6
q-57 -3 -103.5 -32t-75.5 -83v-407zM804 1429h-119l-296 181q-31 20 -47.5 41.5t-16.5 46.5q0 34 24 58t65 24q26 0 48.5 -13.5t55.5 -46.5z" />
    <glyph glyph-name="Eacute" unicode="&#xc9;" horiz-adv-x="1203" 
d="M386 752h84q39 0 79.5 1.5t75 9t59.5 19.5t66 76l54 -143l-156 -219q-20 64 -33 73.5t-34 14.5t-49.5 6t-61.5 1h-84v-367q0 -26 27.5 -48.5t68 -39t85.5 -26t72 -9.5q86 0 163.5 54t147.5 183l187 -194q-63 -42 -121.5 -71.5t-122.5 -52.5t-129 -36.5t-125 -13.5
l-578 167q85 35 103 77t18 125v768q-11 62 -28.5 102t-39.5 51q-16 6 -36 6q-8 0 -16.5 -0.5t-15.5 -1.5q-11 -2 -22 -5l-65 -10l81 153l169 -20q57 -7 104 -12l46 -6l342 53l122 -48q79 -32 143 -78t130 -105l-167 -173q-47 76 -90 119.5t-88.5 75.5t-92 49t-87.5 17h-6
q-57 -3 -103.5 -32t-75.5 -83v-407zM585 1720q33 33 55.5 46.5t48.5 13.5q41 0 65 -24t24 -58q0 -25 -16.5 -46.5t-47.5 -41.5l-296 -181h-119z" />
    <glyph glyph-name="Ecircumflex" unicode="&#xca;" horiz-adv-x="1203" 
d="M386 752h84q39 0 79.5 1.5t75 9t59.5 19.5t66 76l54 -143l-156 -219q-20 64 -33 73.5t-34 14.5t-49.5 6t-61.5 1h-84v-367q0 -26 27.5 -48.5t68 -39t85.5 -26t72 -9.5q86 0 163.5 54t147.5 183l187 -194q-63 -42 -121.5 -71.5t-122.5 -52.5t-129 -36.5t-125 -13.5
l-578 167q85 35 103 77t18 125v768q-11 62 -28.5 102t-39.5 51q-16 6 -36 6q-8 0 -16.5 -0.5t-15.5 -1.5q-11 -2 -22 -5l-65 -10l81 153l169 -20q57 -7 104 -12l46 -6l342 53l122 -48q79 -32 143 -78t130 -105l-167 -173q-47 76 -90 119.5t-88.5 75.5t-92 49t-87.5 17h-6
q-57 -3 -103.5 -32t-75.5 -83v-407zM537 1628q-85 -78 -183 -207l-124 109q90 131 332 350q119 -72 181 -141q32 -36 69 -74.5t90 -90.5l-153 -159q-163 186 -212 213z" />
    <glyph glyph-name="Edieresis" unicode="&#xcb;" horiz-adv-x="1203" 
d="M386 752h84q39 0 79.5 1.5t75 9t59.5 19.5t66 76l54 -143l-156 -219q-20 64 -33 73.5t-34 14.5t-49.5 6t-61.5 1h-84v-367q0 -26 27.5 -48.5t68 -39t85.5 -26t72 -9.5q86 0 163.5 54t147.5 183l187 -194q-63 -42 -121.5 -71.5t-122.5 -52.5t-129 -36.5t-125 -13.5
l-578 167q85 35 103 77t18 125v768q-11 62 -28.5 102t-39.5 51q-16 6 -36 6q-8 0 -16.5 -0.5t-15.5 -1.5q-11 -2 -22 -5l-65 -10l81 153l169 -20q57 -7 104 -12l46 -6l342 53l122 -48q79 -32 143 -78t130 -105l-167 -173q-47 76 -90 119.5t-88.5 75.5t-92 49t-87.5 17h-6
q-57 -3 -103.5 -32t-75.5 -83v-407zM606 1500v147l134 78l135 -78v-147l-135 -80zM225 1499v148l134 78l135 -78v-148l-135 -79z" />
    <glyph glyph-name="Igrave" unicode="&#xcc;" horiz-adv-x="597" 
d="M504 1429h-119l-296 181q-31 20 -47.5 41.5t-16.5 46.5q0 34 24 58t65 24q26 0 48.5 -13.5t55.5 -46.5zM200 1092q-4 40 -9 66q-8 35 -17 52h-1zM170 1215q-7 13 -15 20q-7 5 -13 5q-9 0 -16 -7t-7 -18v-3q1 -8 5.5 -11t7.5 -3q5 0 38 17zM204 1026l-234 140l132 254
q42 -9 58.5 -13.5t44.5 -9t73 -13t139 -24.5v-1003q0 -47 2.5 -95t11.5 -91.5t26 -74t43 -44.5l45 -28l-164 -56q-52 30 -89.5 52t-78.5 46l-127 77l54 16q24 5 37 21.5t20.5 43t8 61t0.5 72.5v551q0 68 -2 118z" />
    <glyph glyph-name="Iacute" unicode="&#xcd;" horiz-adv-x="597" 
d="M285 1720q33 33 55.5 46.5t48.5 13.5q41 0 65 -24t24 -58q0 -25 -16.5 -46.5t-47.5 -41.5l-296 -181h-119zM200 1092q-4 40 -9 66q-8 35 -17 52h-1zM170 1215q-7 13 -15 20q-7 5 -13 5q-9 0 -16 -7t-7 -18v-3q1 -8 5.5 -11t7.5 -3q5 0 38 17zM204 1026l-234 140l132 254
q42 -9 58.5 -13.5t44.5 -9t73 -13t139 -24.5v-1003q0 -47 2.5 -95t11.5 -91.5t26 -74t43 -44.5l45 -28l-164 -56q-52 30 -89.5 52t-78.5 46l-127 77l54 16q24 5 37 21.5t20.5 43t8 61t0.5 72.5v551q0 68 -2 118z" />
    <glyph glyph-name="Icircumflex" unicode="&#xce;" horiz-adv-x="653" 
d="M220 1628q-85 -78 -183 -207l-124 109q90 131 332 350q119 -72 181 -141q32 -36 69 -74.5t90 -90.5l-153 -159q-163 186 -212 213zM200 1092q-4 40 -9 66q-8 35 -17 52h-1zM170 1215q-7 13 -15 20q-7 5 -13 5q-9 0 -16 -7t-7 -18v-3q1 -8 5.5 -11t7.5 -3q5 0 38 17z
M204 1026l-234 140l132 254q42 -9 58.5 -13.5t44.5 -9t73 -13t139 -24.5v-1003q0 -47 2.5 -95t11.5 -91.5t26 -74t43 -44.5l45 -28l-164 -56q-52 30 -89.5 52t-78.5 46l-127 77l54 16q24 5 37 21.5t20.5 43t8 61t0.5 72.5v551q0 68 -2 118z" />
    <glyph glyph-name="Idieresis" unicode="&#xcf;" horiz-adv-x="650" 
d="M306 1500v147l134 78l135 -78v-147l-135 -80zM-75 1499v148l134 78l135 -78v-148l-135 -79zM200 1092q-4 40 -9 66q-8 35 -17 52h-1zM170 1215q-7 13 -15 20q-7 5 -13 5q-9 0 -16 -7t-7 -18v-3q1 -8 5.5 -11t7.5 -3q5 0 38 17zM204 1026l-234 140l132 254
q42 -9 58.5 -13.5t44.5 -9t73 -13t139 -24.5v-1003q0 -47 2.5 -95t11.5 -91.5t26 -74t43 -44.5l45 -28l-164 -56q-52 30 -89.5 52t-78.5 46l-127 77l54 16q24 5 37 21.5t20.5 43t8 61t0.5 72.5v551q0 68 -2 118z" />
    <glyph glyph-name="Eth" unicode="&#xd0;" horiz-adv-x="1407" 
d="M438 952q38 0 78 2q40 1 74.5 8.5t59.5 19.5t66 76l54 -143l-156 -219q-20 64 -33 73.5t-34 14.5t-49.5 6t-61.5 1h-9v-567q0 -26 26 -48.5t68 -39t85.5 -26t71.5 -9.5q58 0 116 26t106 75q74 77 116 201.5t42 277.5v27q-4 110 -40.5 207.5t-92.5 174.5t-124.5 126
t-135.5 66q-19 3 -34.5 5.5t-33.5 2.5q-114 0 -170 -106v-231h11v-1zM221 791q-38 -2 -71 -9q-35 -8 -60 -20t-66 -76l-54 143l156 219q20 -64 33 -73.5t34 -14.5q12 -3 27 -5q-1 44 -6 91q-8 64 -18 105.5t-20.5 59.5t-18.5 22q-9 7 -15 7q-9 0 -16 -7t-7 -18v-3
q1 -8 5.5 -11t7.5 -3q5 0 40 18l44 -197l-246 147l123 236l299 -37q4 0 49 7q50 8 106 16t110 17t83 13l124 -39q90 -28 164 -81.5t131 -123t94.5 -149t59.5 -161.5q10 -46 14.5 -93.5t4.5 -91.5q0 -90 -16.5 -176t-41 -158.5t-56 -127.5t-58.5 -84q-25 -32 -88 -60
t-135.5 -51t-143.5 -37.5t-112 -14.5q-19 0 -28 2l-589 180q81 18 82 18.5t9 2.5q20 6 34 24t21.5 43.5t9 58.5t1.5 65v427z" />
    <glyph glyph-name="Ntilde" unicode="&#xd1;" horiz-adv-x="1389" 
d="M212 1035q0 9 -1 19q-8 63 -17 102t-20 57l-2 2zM172 1216q-10 14 -15 18q-9 6 -15 6q-9 0 -16 -7t-7 -18v-3q1 -8 5.5 -11t7.5 -3q5 0 40 18zM152 1409l275 266q134 59 201 59q49 0 111.5 -38.5t97.5 -38.5q49 0 290 89l-261 -244q-114 -30 -151 -30q-46 0 -111.5 35
t-102.5 35q-53 -4 -339 -133q29 -5 50 -9q38 -7 71 -13t62 -12.5t79 -14.5v-128q0 -4 34 -51t110.5 -150t200 -264.5t258.5 -331.5v687q0 26 -4.5 55t-16.5 52.5t-27 36.5t-34 13q-15 0 -32.5 -1.5t-40.5 -5.5q-3 0 -5.5 -0.5t-42.5 -0.5q27 63 39 88t33 60q32 -6 37 -8
t13 -2q66 -15 129.5 -25.5t156.5 -27.5q-13 -59 -17.5 -102.5t-4.5 -83.5v-817q0 -47 2.5 -94t13 -90t29 -75.5t86.5 -68.5l-167 -57l-266 177q99 25 111 70q-171 218 -310 395q-59 76 -117.5 149t-105 131t-76.5 97q-9 11 -11 11q-1 0 -1 -1q0 -8 26 -61v-583
q0 -46 3.5 -93.5t13.5 -90.5t29 -75t94 -72q-70 -17 -106.5 -28.5t-67.5 -23.5l-307 181q86 8 100.5 25t22 46t10 65.5t2.5 65.5v545q0 69 -4 122l-244 146l132 253q34 -6 50 -10z" />
    <glyph glyph-name="Ograve" unicode="&#xd2;" horiz-adv-x="1430" 
d="M208 696q0 -62 11.5 -133.5t35 -142.5t61.5 -136t90 -113.5t119 -77t152 -28.5q164 0 267 103q43 44 73.5 101.5t49.5 118t27 119t8 110.5q0 128 -37.5 246.5t-103.5 207t-155.5 140.5t-194.5 52q-111 0 -187 -51t-124.5 -133.5t-70 -184.5t-21.5 -198zM597 1368
q12 4 44 10.5t71 14t78.5 13.5t77.5 12q23 -12 57 -37t82 -64.5t99.5 -92t99 -113.5t83.5 -129.5t49 -137.5q10 -43 13.5 -87.5t3.5 -80.5q0 -60 -12 -135t-42.5 -154.5t-81 -153t-129 -133t-187 -95t-249.5 -35.5q-160 0 -287 49t-214.5 139.5t-132.5 216t-45 277.5
q0 135 33 248t108.5 203.5t193.5 156.5t287 108zM904 1429h-119l-296 181q-31 20 -47.5 41.5t-16.5 46.5q0 34 24 58t65 24q26 0 48.5 -13.5t55.5 -46.5z" />
    <glyph glyph-name="Oacute" unicode="&#xd3;" horiz-adv-x="1430" 
d="M208 696q0 -62 11.5 -133.5t35 -142.5t61.5 -136t90 -113.5t119 -77t152 -28.5q164 0 267 103q43 44 73.5 101.5t49.5 118t27 119t8 110.5q0 128 -37.5 246.5t-103.5 207t-155.5 140.5t-194.5 52q-111 0 -187 -51t-124.5 -133.5t-70 -184.5t-21.5 -198zM597 1368
q12 4 44 10.5t71 14t78.5 13.5t77.5 12q23 -12 57 -37t82 -64.5t99.5 -92t99 -113.5t83.5 -129.5t49 -137.5q10 -43 13.5 -87.5t3.5 -80.5q0 -60 -12 -135t-42.5 -154.5t-81 -153t-129 -133t-187 -95t-249.5 -35.5q-160 0 -287 49t-214.5 139.5t-132.5 216t-45 277.5
q0 135 33 248t108.5 203.5t193.5 156.5t287 108zM685 1720q33 33 55.5 46.5t48.5 13.5q41 0 65 -24t24 -58q0 -25 -16.5 -46.5t-47.5 -41.5l-296 -181h-119z" />
    <glyph glyph-name="Ocircumflex" unicode="&#xd4;" horiz-adv-x="1430" 
d="M208 696q0 -62 11.5 -133.5t35 -142.5t61.5 -136t90 -113.5t119 -77t152 -28.5q164 0 267 103q43 44 73.5 101.5t49.5 118t27 119t8 110.5q0 128 -37.5 246.5t-103.5 207t-155.5 140.5t-194.5 52q-111 0 -187 -51t-124.5 -133.5t-70 -184.5t-21.5 -198zM597 1368
q12 4 44 10.5t71 14t78.5 13.5t77.5 12q23 -12 57 -37t82 -64.5t99.5 -92t99 -113.5t83.5 -129.5t49 -137.5q10 -43 13.5 -87.5t3.5 -80.5q0 -60 -12 -135t-42.5 -154.5t-81 -153t-129 -133t-187 -95t-249.5 -35.5q-160 0 -287 49t-214.5 139.5t-132.5 216t-45 277.5
q0 135 33 248t108.5 203.5t193.5 156.5t287 108zM627 1628q-85 -78 -183 -207l-124 109q90 131 332 350q119 -72 181 -141q32 -36 69 -74.5t90 -90.5l-153 -159q-163 186 -212 213z" />
    <glyph glyph-name="Otilde" unicode="&#xd5;" horiz-adv-x="1430" 
d="M208 696q0 -62 11.5 -133.5t35 -142.5t61.5 -136t90 -113.5t119 -77t152 -28.5q164 0 267 103q43 44 73.5 101.5t49.5 118t27 119t8 110.5q0 128 -37.5 246.5t-103.5 207t-155.5 140.5t-194.5 52q-111 0 -187 -51t-124.5 -133.5t-70 -184.5t-21.5 -198zM597 1368
q12 4 44 10.5t71 14t78.5 13.5t77.5 12q23 -12 57 -37t82 -64.5t99.5 -92t99 -113.5t83.5 -129.5t49 -137.5q10 -43 13.5 -87.5t3.5 -80.5q0 -60 -12 -135t-42.5 -154.5t-81 -153t-129 -133t-187 -95t-249.5 -35.5q-160 0 -287 49t-214.5 139.5t-132.5 216t-45 277.5
q0 135 33 248t108.5 203.5t193.5 156.5t287 108zM866 1502q-114 -30 -151 -30q-46 0 -111.5 35t-102.5 35q-53 -4 -340 -134l266 267q134 59 201 59q49 0 111.5 -38.5t97.5 -38.5q49 0 290 89z" />
    <glyph glyph-name="Odieresis" unicode="&#xd6;" horiz-adv-x="1430" 
d="M208 696q0 -62 11.5 -133.5t35 -142.5t61.5 -136t90 -113.5t119 -77t152 -28.5q164 0 267 103q43 44 73.5 101.5t49.5 118t27 119t8 110.5q0 128 -37.5 246.5t-103.5 207t-155.5 140.5t-194.5 52q-111 0 -187 -51t-124.5 -133.5t-70 -184.5t-21.5 -198zM597 1368
q12 4 44 10.5t71 14t78.5 13.5t77.5 12q23 -12 57 -37t82 -64.5t99.5 -92t99 -113.5t83.5 -129.5t49 -137.5q10 -43 13.5 -87.5t3.5 -80.5q0 -60 -12 -135t-42.5 -154.5t-81 -153t-129 -133t-187 -95t-249.5 -35.5q-160 0 -287 49t-214.5 139.5t-132.5 216t-45 277.5
q0 135 33 248t108.5 203.5t193.5 156.5t287 108zM706 1500v147l134 78l135 -78v-147l-135 -80zM325 1499v148l134 78l135 -78v-148l-135 -79z" />
    <glyph glyph-name="multiply" unicode="&#xd7;" horiz-adv-x="1052" 
d="M172 1113v1q-17 21 -19 23q-4 3 -11 3q-8 0 -15 -7q-8 -7 -8 -18v-3q1 -8 5.5 -11t7.5 -3q6 0 40 15zM399 684q-88 174 -113 232q-25 59 -61 118q-33 52 -50 75l40 -190l-246 147l135 255q35 -10 66 -16t65 -14t66.5 -16t65.5 -16q3 -37 60 -136q25 -43 48.5 -86.5
t42 -76t24.5 -39.5l237 379h170l-117 -162q-19 -29 -82 -129q-27 -43 -52 -84.5t-45.5 -75.5t-33.5 -54l-9 -14l12 -23q13 -27 33.5 -65.5t44.5 -87t50 -97.5q58 -114 80 -156q30 -53 59.5 -92.5t103.5 -75.5q-45 -33 -64.5 -48.5t-38.5 -31.5l-43 -35q-84 29 -151 53.5
t-176 61.5q56 31 66 48t10 37l-5 22q-3 8 -45 92q-18 38 -36 74t-32 65q-8 15 -14 28q-66 -106 -129 -213t-173 -288q-46 58 -66.5 82.5t-50.5 62.5l25 27l14 12l6 5q9 10 26 29t43.5 57t36 47t66.5 97q38 63 69 110q12 22 25.5 42t23 36t15.5 24q2 3 4 4z" />
    <glyph glyph-name="Oslash" unicode="&#xd8;" horiz-adv-x="1430" 
d="M314 288l21 31q39 59 97 149q38 63 69 110q12 22 25.5 42t23 36t15.5 24l6 8q140 236 141 233l154 249q-22 19 -61 42q-89 51 -194 51q-111 0 -187 -51t-124.5 -133.5t-70 -184.5t-21.5 -198q0 -62 11.5 -133.5t35.5 -142.5q22 -68 59 -132zM405 171l1 -1
q52 -48 119 -76.5t152 -28.5q164 0 267 103q43 44 73.5 101.5t49.5 118t27 119t8 110.5q0 128 -37.5 246.5t-103.5 207.5l-1 1q-13 -20 -40 -63t-52 -84.5t-45.5 -75.5t-32.5 -53q-12 -26 -131 -206q-91 -147 -184 -303q-38 -64 -70 -116zM181 130q-5 4 -29 29
q-87 90 -132 215.5t-45 277.5q0 135 33 248t108.5 203.5t193.5 156.5t287 108q12 4 44 10.5t71 14t78.5 13.5t77.5 12q22 -12 58 -37q30 -23 48 -37l35 56h170l-104 -144q10 -9 32 -31q51 -53 98.5 -114t83.5 -129.5t49 -137.5q10 -43 13.5 -87.5t3.5 -80.5q0 -60 -12 -135
t-42.5 -154.5t-81 -153t-129 -133t-187 -95t-249.5 -35.5q-160 0 -287 49q-34 13 -42 17q-11 -18 -53 -87q-46 58 -66.5 82.5t-50.5 62.5l25 27l14 12l4 3q-3 0 -17 -6z" />
    <glyph glyph-name="Ugrave" unicode="&#xd9;" horiz-adv-x="1197" 
d="M1126 1363q-8 -34 -11 -64.5t-5.5 -64.5t-4 -65t-1.5 -47v-800q-7 -45 -38.5 -86t-76.5 -77t-97 -67t-99.5 -55.5t-86.5 -41l-65 -27.5q-35 10 -90 27t-120 39t-130.5 46.5t-114.5 50.5q-78 52 -78 90v779q0 64 -6.5 106t-13.5 65t-15 32.5t-9 9.5q-8 3 -31 3
q-20 40 -33.5 82.5t-31.5 101.5h340v-955q2 -28 15.5 -70.5t52 -82.5t113 -70.5t206.5 -36.5h7q55 0 99 22.5t76.5 57.5t49.5 76.5t17 79.5v759q0 37 -4.5 58t-12 28.5t-22 11t-43.5 3.5q-7 0 -20 -1.5t-92 -18.5l83 158zM804 1429h-119l-296 181q-31 20 -47.5 41.5
t-16.5 46.5q0 34 24 58t65 24q26 0 48.5 -13.5t55.5 -46.5z" />
    <glyph glyph-name="Uacute" unicode="&#xda;" horiz-adv-x="1197" 
d="M1126 1363q-8 -34 -11 -64.5t-5.5 -64.5t-4 -65t-1.5 -47v-800q-7 -45 -38.5 -86t-76.5 -77t-97 -67t-99.5 -55.5t-86.5 -41l-65 -27.5q-35 10 -90 27t-120 39t-130.5 46.5t-114.5 50.5q-78 52 -78 90v779q0 64 -6.5 106t-13.5 65t-15 32.5t-9 9.5q-8 3 -31 3
q-20 40 -33.5 82.5t-31.5 101.5h340v-955q2 -28 15.5 -70.5t52 -82.5t113 -70.5t206.5 -36.5h7q55 0 99 22.5t76.5 57.5t49.5 76.5t17 79.5v759q0 37 -4.5 58t-12 28.5t-22 11t-43.5 3.5q-7 0 -20 -1.5t-92 -18.5l83 158zM585 1720q33 33 55.5 46.5t48.5 13.5q41 0 65 -24
t24 -58q0 -25 -16.5 -46.5t-47.5 -41.5l-296 -181h-119z" />
    <glyph glyph-name="Ucircumflex" unicode="&#xdb;" horiz-adv-x="1197" 
d="M1126 1363q-8 -34 -11 -64.5t-5.5 -64.5t-4 -65t-1.5 -47v-800q-7 -45 -38.5 -86t-76.5 -77t-97 -67t-99.5 -55.5t-86.5 -41l-65 -27.5q-35 10 -90 27t-120 39t-130.5 46.5t-114.5 50.5q-78 52 -78 90v779q0 64 -6.5 106t-13.5 65t-15 32.5t-9 9.5q-8 3 -31 3
q-20 40 -33.5 82.5t-31.5 101.5h340v-955q2 -28 15.5 -70.5t52 -82.5t113 -70.5t206.5 -36.5h7q55 0 99 22.5t76.5 57.5t49.5 76.5t17 79.5v759q0 37 -4.5 58t-12 28.5t-22 11t-43.5 3.5q-7 0 -20 -1.5t-92 -18.5l83 158zM537 1628q-85 -78 -183 -207l-124 109
q90 131 332 350q119 -72 181 -141q32 -36 69 -74.5t90 -90.5l-153 -159q-163 186 -212 213z" />
    <glyph glyph-name="Udieresis" unicode="&#xdc;" horiz-adv-x="1197" 
d="M1126 1363q-8 -34 -11 -64.5t-5.5 -64.5t-4 -65t-1.5 -47v-800q-7 -45 -38.5 -86t-76.5 -77t-97 -67t-99.5 -55.5t-86.5 -41l-65 -27.5q-35 10 -90 27t-120 39t-130.5 46.5t-114.5 50.5q-78 52 -78 90v779q0 64 -6.5 106t-13.5 65t-15 32.5t-9 9.5q-8 3 -31 3
q-20 40 -33.5 82.5t-31.5 101.5h340v-955q2 -28 15.5 -70.5t52 -82.5t113 -70.5t206.5 -36.5h7q55 0 99 22.5t76.5 57.5t49.5 76.5t17 79.5v759q0 37 -4.5 58t-12 28.5t-22 11t-43.5 3.5q-7 0 -20 -1.5t-92 -18.5l83 158zM606 1500v147l134 78l135 -78v-147l-135 -80z
M225 1499v148l134 78l135 -78v-148l-135 -79z" />
    <glyph glyph-name="Yacute" unicode="&#xdd;" horiz-adv-x="1186" 
d="M585 1720q33 33 55.5 46.5t48.5 13.5q41 0 65 -24t24 -58q0 -25 -16.5 -46.5t-47.5 -41.5l-296 -181h-119zM171 1213l-17 22q-7 5 -13 5q-9 0 -16 -7t-7 -18v-3q1 -8 5.5 -11t7.5 -3q6 0 40 15zM174 1208l40 -189l-244 147l131 254q54 -12 81.5 -18.5t53 -12.5
t52.5 -12.5t70 -15.5l289 -497q54 98 138 242t168 294h176l-111 -154q-81 -139 -149 -250q-29 -48 -57.5 -95t-51 -85.5t-37.5 -64.5t-18 -31v-363q0 -46 3.5 -94.5t13.5 -91.5t28.5 -76.5t85.5 -68.5q-53 -20 -69 -24.5t-32.5 -9.5t-29.5 -10t-32 -15q-59 33 -100 59
t-86 53l-113 66q76 18 92.5 33t25.5 38.5t12 55.5t3 68v287q-82 162 -148 279t-111.5 190t-69.5 107z" />
    <glyph glyph-name="Thorn" unicode="&#xde;" horiz-adv-x="1074" 
d="M622 1003q-15 6 -33.5 8.5t-36.5 2.5q-40 0 -75.5 -12t-58.5 -29v-422h-1q0 -1 35 -18q39 -20 81.5 -43.5t82.5 -45.5q21 -12 31 -12q9 0 9 9q-3 -1 -4 -1t-1 1q0 3 20 20q29 25 56.5 63.5t46 92t18.5 118.5v9q0 29 -13 66.5t-35 75t-53.5 68.5t-68.5 49zM170 1215
q-7 13 -15 20q-7 5 -13 5q-9 0 -16 -7t-7 -18v-3q1 -8 5.5 -11t7.5 -3q5 0 38 17zM173 1210l27 -118q-4 40 -9 66q-8 35 -17 52h-1zM204 1026l-234 140l132 254q42 -9 58.5 -13.5t44.5 -9t73 -13t139 -24.5v-250q51 7 99 16q50 10 174 33q23 -7 57 -27t74 -53t80 -78.5
t66 -99.5q22 -44 27 -92t5 -85q0 -71 -19.5 -127t-52.5 -98q-29 -37 -66.5 -69.5t-74.5 -58.5t-72 -41t-69 -16l-227 102v6h-1v-65q0 -47 2.5 -95t11.5 -91.5t26 -74t43 -44.5l45 -28l-164 -56q-52 30 -89.5 52t-78.5 46l-127 77l54 16q24 5 37 21.5t20.5 43t8 61t0.5 72.5
v551q0 68 -2 118z" />
    <glyph glyph-name="germandbls" unicode="&#xdf;" horiz-adv-x="1143" 
d="M75 1049q6 322 330 367h116q135 -19 177.5 -48.5t81 -63.5t68.5 -72.5t47 -80.5q23 -57 23 -110q0 -43 -13 -84.5t-32 -76t-39 -61.5l-18 -23l1 1q101 -32 176 -124t75 -230v-27l-5 -98q-10 -165 -138.5 -251.5t-347.5 -86.5h-52l-133 122l126 2q49 0 100.5 16.5t95 47
t73 71.5t38.5 94q2 8 2 15v18q0 35 -7.5 79t-22.5 88.5t-37.5 82t-50.5 60.5q-34 26 -78 26h-161l-135 137h294q29 9 50.5 34t33 56t15 61t3.5 49q-40 242 -249 248l-41 -1q-159 -26 -161 -187v-742q0 -47 2.5 -95t11.5 -91.5t26 -74t43 -44.5l45 -28l-164 -56
q-52 30 -89.5 52t-78.5 46l-127 77l54 16q24 5 37 21.5t20.5 43t8 61t0.5 72.5z" />
    <glyph glyph-name="agrave" unicode="&#xe0;" horiz-adv-x="963" 
d="M627 994h-101l-209 128q-23 15 -35.5 31.5t-12.5 35.5q0 26 19 44.5t51 18.5q20 0 37.5 -10t41.5 -34zM333 843q-5 11 -8 14q-4 4 -8 4l-3 -3q-4 -3 -4 -9t3 -8t4 -2h11q0 1 5 4zM416 722l-148 -380h290zM302 731l-138 83l89 185q74 -12 133.5 -21t125.5 -20l328 -878
q9 -21 65 -59q-36 -18 -48.5 -23.5t-25.5 -10.5q-16 -6 -46 -16q-45 23 -76 42l-62 38q-13 7 -25.5 15.5t-59.5 39.5q57 14 65 18.5t10 5.5l-33 91h-387l-68 -172q-11 -23 -21 -36.5t-26 -26.5t-39 -13q-26 0 -46 10.5t-52 30.5l31 31q21 0 35 13t29 47q77 199 139 359
q26 68 51 133l45 117q4 9 7 17z" />
    <glyph glyph-name="aacute" unicode="&#xe1;" horiz-adv-x="963" 
d="M333 843q-5 11 -8 14q-4 4 -8 4l-3 -3q-4 -3 -4 -9t3 -8t4 -2h11q0 1 5 4zM416 722l-148 -380h290zM251 994h-8l210 214q24 23 41 33.5t37 10.5q33 0 51.5 -18.5t18.5 -44.5q0 -19 -12.5 -35.5t-35.5 -31.5l-209 -128h-60q56 -9 103 -16q59 -9 125 -20l328 -878
q9 -21 65 -59q-36 -18 -48.5 -23.5t-25.5 -10.5q-16 -6 -46 -16q-45 23 -76 42l-62 38q-13 7 -25.5 15.5t-59.5 39.5q57 14 65 18.5t10 5.5l-33 91h-387l-68 -172q-11 -23 -21 -36.5t-26 -26.5t-39 -13q-26 0 -46 10.5t-52 30.5l31 31q21 0 35 13t29 47q77 199 139 359
q26 68 51 133l45 117q4 9 7 17l-138 83z" />
    <glyph glyph-name="acircumflex" unicode="&#xe2;" horiz-adv-x="963" 
d="M333 843q-5 11 -8 14q-4 4 -8 4l-3 -3q-4 -3 -4 -9t3 -8t4 -2h11q0 1 5 4zM416 722l-148 -380h290zM280 995l-86 75q67 96 241 254q89 -54 133 -102q23 -26 48.5 -53t66.5 -66l-117 -123q-119 137 -147 152q-53 -49 -123 -140q49 -8 91 -14q59 -9 125 -20l328 -878
q9 -21 65 -59q-36 -18 -48.5 -23.5t-25.5 -10.5q-16 -6 -46 -16q-45 23 -76 42l-62 38q-13 7 -25.5 15.5t-59.5 39.5q57 14 65 18.5t10 5.5l-33 91h-387l-68 -172q-11 -23 -21 -36.5t-26 -26.5t-39 -13q-26 0 -46 10.5t-52 30.5l31 31q21 0 35 13t29 47q77 199 139 359
q26 68 51 133l45 117q4 9 7 17l-138 83l89 185q14 -2 27 -4z" />
    <glyph glyph-name="atilde" unicode="&#xe3;" horiz-adv-x="963" 
d="M596 1046q-82 -22 -109 -22q-35 0 -80.5 24.5t-69.5 24.5q-36 -3 -269 -108l212 212q97 43 146 43q36 0 80 -27t66 -27q33 0 231 73zM333 843q-5 11 -8 14q-4 4 -8 4l-3 -3q-4 -3 -4 -9t3 -8t4 -2h11q0 1 5 4zM416 722l-148 -380h290zM302 731l-138 83l89 185
q74 -12 133.5 -21t125.5 -20l328 -878q9 -21 65 -59q-36 -18 -48.5 -23.5t-25.5 -10.5q-16 -6 -46 -16q-45 23 -76 42l-62 38q-13 7 -25.5 15.5t-59.5 39.5q57 14 65 18.5t10 5.5l-33 91h-387l-68 -172q-11 -23 -21 -36.5t-26 -26.5t-39 -13q-26 0 -46 10.5t-52 30.5l31 31
q21 0 35 13t29 47q77 199 139 359q26 68 51 133l45 117q4 9 7 17z" />
    <glyph glyph-name="adieresis" unicode="&#xe4;" horiz-adv-x="963" 
d="M473 1047v109l101 59l102 -59v-109l-102 -60zM333 843q-5 11 -8 14q-4 4 -8 4l-3 -3q-4 -3 -4 -9t3 -8t4 -2h11q0 1 5 4zM416 722l-148 -380h290zM299 992l-93 54v110l101 59l102 -59v-110l-97 -56q40 -7 75 -12q59 -9 125 -20l328 -878q9 -21 65 -59
q-36 -18 -48.5 -23.5t-25.5 -10.5q-16 -6 -46 -16q-45 23 -76 42l-62 38q-13 7 -25.5 15.5t-59.5 39.5q57 14 65 18.5t10 5.5l-33 91h-387l-68 -172q-11 -23 -21 -36.5t-26 -26.5t-39 -13q-26 0 -46 10.5t-52 30.5l31 31q21 0 35 13t29 47q77 199 139 359q26 68 51 133
l45 117q4 9 7 17l-138 83l89 185q24 -4 46 -7z" />
    <glyph glyph-name="aring" unicode="&#xe5;" horiz-adv-x="963" 
d="M558.5 1269q51.5 -49 51.5 -116t-51.5 -116t-126.5 -49q-74 0 -125.5 49t-51.5 116t51.5 116t125.5 49q75 0 126.5 -49zM412 1220q-17 0 -32.5 -19.5t-15.5 -51.5q0 -31 15.5 -50.5t32.5 -19.5q16 0 31.5 19.5t15.5 50.5q0 32 -15.5 51.5t-31.5 19.5zM333 843
q-5 11 -8 14q-4 4 -8 4l-3 -3q-4 -3 -4 -9t3 -8t4 -2h11q0 1 5 4zM416 722l-148 -380h290zM302 731l-138 83l89 185q74 -12 133.5 -21t125.5 -20l328 -878q9 -21 65 -59q-36 -18 -48.5 -23.5t-25.5 -10.5q-16 -6 -46 -16q-45 23 -76 42l-62 38q-13 7 -25.5 15.5t-59.5 39.5
q57 14 65 18.5t10 5.5l-33 91h-387l-68 -172q-11 -23 -21 -36.5t-26 -26.5t-39 -13q-26 0 -46 10.5t-52 30.5l31 31q21 0 35 13t29 47q77 199 139 359q26 68 51 133l45 117q4 9 7 17z" />
    <glyph glyph-name="ae" unicode="&#xe6;" horiz-adv-x="1397" 
d="M416 724l-148 -382h291zM333 843q-5 11 -8 14q-4 4 -8 4l-3 -3q-4 -3 -4 -9t3 -8t4 -2h11q0 1 5 4zM543 876l102 -275v174q-7 41 -19 68t-24 34q-10 3 -22 3h-14q-2 0 -6 -1q-9 -1 -16 -3h-1zM521 935l28 53l123 -15q39 -4 104 -12l241 37l87 -34q57 -23 101.5 -55.5
t96.5 -77.5l-127 -133q-39 61 -68.5 91t-60.5 52t-62.5 33.5t-58.5 11.5h-4q-38 -2 -68.5 -21t-49.5 -55v-278h51q27 0 55 1.5t51.5 6.5t39.5 12.5t52 66.5l44 -119l-120 -169q-18 58 -25.5 63.5t-21 8.5t-33.5 4t-42 1h-51v-228l20 -56q16 -12 42 -23q28 -11 58.5 -17.5
t48.5 -6.5q58 0 110.5 36.5t105.5 134.5l143 -148q-50 -33 -91 -54t-86.5 -37.5t-92 -26t-90.5 -9.5q-55 47 -70 47q-2 0 -2 -1t3 -4q-35 -14 -46.5 -18.5t-25.5 -9.5q-17 -7 -44 -17q-45 24 -76.5 43t-62.5 38q-13 7 -28 16q-9 8 -17 12l-49 17q68 29 78 51v1l-28 73h-386
l-68 -172q-11 -23 -21 -36.5t-26 -26.5t-38 -13q-27 0 -47 10.5t-52 30.5l31 31q21 0 35 13.5t28 46.5q79 199 140 360q26 67 51 132l45 117q4 9 7 17l-138 83l91 185q72 -12 131.5 -21t125.5 -20z" />
    <glyph glyph-name="ccedilla" unicode="&#xe7;" horiz-adv-x="923" 
d="M436 -20l1 2l-4 -1zM504 -26q36 -9 62 -29q44 -36 44 -99q0 -65 -51 -104.5t-138 -39.5q-75 0 -127 32l-69 140q126 -74 168 -74q40 0 53.5 10t13.5 35q0 21 -22 30q-25 10 -65 10q-10 0 -59 -7l30 107q-26 5 -73 25q-87 36 -156 106q-66 66 -103 153t-37 175
q0 83 34 155t86 131.5t114 106t121 79.5t105 53t78 31l280 -162q-14 -45 -25.5 -74t-22.5 -58l-48 -128l-44 34q-12 10 -47 33q17 24 29 49t12 54q0 19 -11 35q-10 14 -30.5 24t-50.5 15.5t-65 8t-69 2.5q-98 0 -155 -57q-26 -26 -42 -65.5t-24.5 -82.5t-12 -83.5
t-3.5 -65.5q5 -73 27.5 -149t66.5 -134.5t110 -94t162 -35.5q45 0 85 24.5t72 57t52 62.5t50 101q25 -84 29 -95.5t11 -35.5q-15 -38 -28.5 -71.5t-28.5 -71.5q-37 -25 -81 -37t-90 -17.5t-90 -7.5q-14 -1 -27 -1z" />
    <glyph glyph-name="egrave" unicode="&#xe8;" horiz-adv-x="872" 
d="M475 995l-207 127q-23 15 -35.5 31.5t-12.5 35.5q0 26 19 44.5t51 18.5q20 0 37.5 -10t41.5 -34l209 -214h-76l78 -30q55 -23 100.5 -55.5t96.5 -78.5l-128 -132q-38 61 -67.5 91t-60.5 52t-62.5 33.5t-58.5 11.5h-4q-38 -2 -68.5 -21.5t-49.5 -54.5v-278h51q27 0 55 1.5
t51.5 6.5t39.5 12.5t52 66.5l44 -119l-120 -169q-18 58 -25.5 63.5t-21 8.5t-33.5 4t-42 1h-51v-251q0 -16 17.5 -30.5t45 -26t58 -18t48.5 -6.5q58 0 110.5 37t105.5 135l143 -148q-50 -33 -91 -54t-86.5 -37.5t-92 -26t-90.5 -9.5l-423 122q73 29 85 57t12 85v537
q-8 42 -19.5 69t-23.5 33q-10 4 -22 4q-6 0 -11.5 -0.5t-11.5 -1.5q-5 0 -13 -2l-60 -10l64 122l125 -15q39 -5 103 -12z" />
    <glyph glyph-name="eacute" unicode="&#xe9;" horiz-adv-x="872" 
d="M404 1208q24 23 41 33.5t37 10.5q33 0 51.5 -18.5t18.5 -44.5q0 -19 -12.5 -35.5t-35.5 -31.5l-209 -128h-101zM278 532h51q27 0 55 1.5t51.5 6.5t39.5 12.5t52 66.5l44 -119l-120 -169q-18 58 -25.5 63.5t-21 8.5t-33.5 4t-42 1h-51v-251q0 -16 17.5 -30.5t45 -26
t58 -18t48.5 -6.5q58 0 110.5 37t105.5 135l143 -148q-50 -33 -91 -54t-86.5 -37.5t-92 -26t-90.5 -9.5l-423 122q73 29 85 57t12 85v537q-8 42 -19.5 69t-23.5 33q-10 4 -22 4q-6 0 -11.5 -0.5t-11.5 -1.5q-5 0 -13 -2l-60 -10l64 122l125 -15q39 -5 103 -12l241 37l88 -34
q55 -23 100.5 -55.5t96.5 -78.5l-128 -132q-38 61 -67.5 91t-60.5 52t-62.5 33.5t-58.5 11.5h-4q-38 -2 -68.5 -21.5t-49.5 -54.5v-278z" />
    <glyph glyph-name="ecircumflex" unicode="&#xea;" horiz-adv-x="872" 
d="M517 988q-113 129 -140 144q-55 -51 -128 -147l-97 85q67 96 241 254q89 -54 133 -102q23 -26 48.5 -53t66.5 -66l-113 -119l52 -20q55 -23 100.5 -55.5t96.5 -78.5l-128 -132q-38 61 -67.5 91t-60.5 52t-62.5 33.5t-58.5 11.5h-4q-38 -2 -68.5 -21.5t-49.5 -54.5v-278
h51q27 0 55 1.5t51.5 6.5t39.5 12.5t52 66.5l44 -119l-120 -169q-18 58 -25.5 63.5t-21 8.5t-33.5 4t-42 1h-51v-251q0 -16 17.5 -30.5t45 -26t58 -18t48.5 -6.5q58 0 110.5 37t105.5 135l143 -148q-50 -33 -91 -54t-86.5 -37.5t-92 -26t-90.5 -9.5l-423 122q73 29 85 57
t12 85v537q-8 42 -19.5 69t-23.5 33q-10 4 -22 4q-6 0 -11.5 -0.5t-11.5 -1.5q-5 0 -13 -2l-60 -10l64 122l125 -15q39 -5 103 -12l241 37z" />
    <glyph glyph-name="edieresis" unicode="&#xeb;" horiz-adv-x="872" 
d="M150 1046v110l101 59l102 -59v-110l-102 -59zM513 990l-96 57v109l101 59l102 -59v-109l-101 -59l61 -24q55 -23 100.5 -55.5t96.5 -78.5l-128 -132q-38 61 -67.5 91t-60.5 52t-62.5 33.5t-58.5 11.5h-4q-38 -2 -68.5 -21.5t-49.5 -54.5v-278h51q27 0 55 1.5t51.5 6.5
t39.5 12.5t52 66.5l44 -119l-120 -169q-18 58 -25.5 63.5t-21 8.5t-33.5 4t-42 1h-51v-251q0 -16 17.5 -30.5t45 -26t58 -18t48.5 -6.5q58 0 110.5 37t105.5 135l143 -148q-50 -33 -91 -54t-86.5 -37.5t-92 -26t-90.5 -9.5l-423 122q73 29 85 57t12 85v537q-8 42 -19.5 69
t-23.5 33q-10 4 -22 4q-6 0 -11.5 -0.5t-11.5 -1.5q-5 0 -13 -2l-60 -10l64 122l125 -15q39 -5 103 -12l241 37z" />
    <glyph glyph-name="igrave" unicode="&#xec;" horiz-adv-x="448" 
d="M368 994h-101l-209 128q-23 15 -35.5 31.5t-12.5 35.5q0 26 19 44.5t51 18.5q20 0 37.5 -10t41.5 -34zM109 854q-3 4 -6 6t-4 2q-3 0 -6 -3t-3 -8v-2q0 -3 1 -4q1 0 1 -1q3 2 17 10zM135 714l-165 100l96 187q36 -8 47.5 -11t31 -6t51 -9t102.5 -18v-707q0 -33 2 -66.5
t8.5 -63.5t17.5 -50t29 -29l38 -27l-128 -43q-40 23 -66 38t-55 33l-101 60l52 15q14 3 22.5 13.5t13 27.5t5 41.5t0.5 50.5v386q0 44 -1 78z" />
    <glyph glyph-name="iacute" unicode="&#xed;" horiz-adv-x="448" 
d="M109 854q-3 4 -6 6t-4 2q-3 0 -6 -3t-3 -8v-2q0 -3 1 -4q1 0 1 -1q3 2 17 10zM62 994h-78l210 214q24 23 41 33.5t37 10.5q33 0 51.5 -18.5t18.5 -44.5q0 -19 -12.5 -35.5t-35.5 -31.5l-206 -126q18 -4 26 -6q11 -3 30.5 -6t51 -9t102.5 -18v-707q0 -33 2 -66.5
t8.5 -63.5t17.5 -50t29 -29l38 -27l-128 -43q-40 23 -66 38t-55 33l-101 60l52 15q14 3 22.5 13.5t13 27.5t5 41.5t0.5 50.5v386q0 44 -1 78l-165 100z" />
    <glyph glyph-name="icircumflex" unicode="&#xee;" horiz-adv-x="487" 
d="M155 1132q-54 -51 -128 -147l-97 85q67 96 241 254q89 -54 133 -102q23 -26 48.5 -53t66.5 -66l-117 -123q-119 137 -147 152zM109 854q-3 4 -6 6t-4 2q-3 0 -6 -3t-3 -8v-2q0 -3 1 -4q1 0 1 -1q3 2 17 10zM135 714l-165 100l96 187q36 -8 47.5 -11t31 -6t51 -9
t102.5 -18v-707q0 -33 2 -66.5t8.5 -63.5t17.5 -50t29 -29l38 -27l-128 -43q-40 23 -66 38t-55 33l-101 60l52 15q14 3 22.5 13.5t13 27.5t5 41.5t0.5 50.5v386q0 44 -1 78z" />
    <glyph glyph-name="idieresis" unicode="&#xef;" horiz-adv-x="485" 
d="M207 1047v109l101 59l102 -59v-109l-102 -60zM-60 1046v110l101 59l102 -59v-110l-102 -59zM109 854q-3 4 -6 6t-4 2q-3 0 -6 -3t-3 -8v-2q0 -3 1 -4q1 0 1 -1q3 2 17 10zM135 714l-165 100l96 187q36 -8 47.5 -11t31 -6t51 -9t102.5 -18v-707q0 -33 2 -66.5t8.5 -63.5
t17.5 -50t29 -29l38 -27l-128 -43q-40 23 -66 38t-55 33l-101 60l52 15q14 3 22.5 13.5t13 27.5t5 41.5t0.5 50.5v386q0 44 -1 78z" />
    <glyph glyph-name="eth" unicode="&#xf0;" horiz-adv-x="1015" 
d="M306 548v-391q0 -16 17 -30.5t45.5 -25.5t58 -17.5t48.5 -6.5q38 0 77.5 17.5t71.5 50.5q51 53 80 139t29 193v19q-3 76 -28 143.5t-64 120.5t-85.5 86.5t-92.5 45.5q-12 2 -22.5 3.5t-22.5 1.5q-75 0 -112 -69v-155h8v-1q23 0 46 2q28 1 51.5 6t39.5 12.5t52 66.5
l44 -119l-120 -169q-18 58 -25.5 63.5t-21 8.5t-33.5 4t-41 1zM94 740q16 -49 23 -53q7 -6 21 -9q4 -1 9 -2q-1 15 -3 34zM93 845q4 1 19 7q-4 5 -7 7q-4 3 -6 3t-6 -4q-2 -2 -2 -7v-2q0 -3 1 -3zM87 744l-117 70l91 174l215 -26q3 0 33 5q34 5 73 10.5t76.5 12t60.5 9.5
l89 -28q64 -20 116.5 -58t93 -87.5t67 -105.5t42.5 -114q7 -33 10 -66.5t3 -64.5q0 -63 -11.5 -123.5t-29 -111.5t-39.5 -90.5t-42 -59.5q-18 -24 -63.5 -44t-96.5 -36t-101.5 -26.5t-79.5 -10.5q-15 0 -23 2l-420 128q68 23 74 23h-4q13 4 22 15.5t14 28.5t6 39.5t1 45.5
v291l9 1q-26 -1 -49.5 -6t-39.5 -12.5t-52 -66.5l-44 119z" />
    <glyph glyph-name="ntilde" unicode="&#xf1;" horiz-adv-x="1002" 
d="M109 854l-5 5q-4 3 -5 3q-3 0 -6 -3t-3 -8v-2q0 -3 1 -4q1 0 1 -1q3 2 17 10zM110 993l184 184q97 43 146 43q36 0 80 -27t66 -27q33 0 231 73l-207 -193q-82 -22 -109 -22q-35 0 -80.5 24.5t-69.5 24.5q-32 -3 -216 -84q7 -2 14 -3q26 -5 49.5 -9.5t43.5 -8.5t61 -10
v-95q0 -1 23.5 -34t77 -104.5t140 -184.5t167.5 -215v460q0 18 -3.5 38t-11 35.5t-16.5 23.5t-20 8q-9 0 -21 -1.5t-29 -3.5q3 0 3 -1q-2 -1 -48 -1q22 53 31 70.5t28 46.5q26 -5 30.5 -6.5t9.5 -2.5q45 -10 89.5 -17t116.5 -21q-10 -45 -13 -75.5t-3 -58.5v-572
q0 -33 2 -65.5t9 -62t19.5 -51t68.5 -52.5l-133 -45l-200 133q78 20 85 45q-118 151 -216 275q-41 53 -82 104t-104 128v-409q0 -32 2.5 -65t9.5 -62.5t20 -51t78 -56.5q-65 -14 -90.5 -22t-49.5 -18l-236 139q77 6 85 16t13.5 30t7 44.5t1.5 45.5v381q0 46 -2 81l-172 105
l96 186q25 -4 44 -7z" />
    <glyph glyph-name="ograve" unicode="&#xf2;" horiz-adv-x="1031" 
d="M153 487q0 -43 8 -92.5t24.5 -99t42.5 -94t61.5 -78t81 -52.5t103.5 -19q111 0 181 69q29 30 50 70t34.5 82t19 82.5t5.5 76.5q0 89 -26 171t-71.5 143t-106.5 96.5t-132 35.5q-75 0 -126.5 -34.5t-85 -91.5t-48.5 -127.5t-15 -137.5zM619 994q15 -10 33 -23
q24 -18 58 -45.5t70.5 -64.5t70 -80t59 -91.5t34.5 -97.5q7 -31 9.5 -62t2.5 -57q0 -42 -8.5 -95t-30 -109t-57.5 -108.5t-91.5 -94.5t-133 -67.5t-177.5 -25.5q-114 0 -204.5 35t-152.5 99.5t-94 153t-32 195.5q0 96 23.5 176t77 144t137 111t202.5 76q9 3 31.5 7.5l50 10
t55.5 9.5q13 2 25 4h-30l-209 128q-23 15 -35.5 31.5t-12.5 35.5q0 26 19 44.5t51 18.5q20 0 37.5 -10t41.5 -34l209 -214h-29z" />
    <glyph glyph-name="oacute" unicode="&#xf3;" horiz-adv-x="1031" 
d="M153 487q0 -43 8 -92.5t24.5 -99t42.5 -94t61.5 -78t81 -52.5t103.5 -19q111 0 181 69q29 30 50 70t34.5 82t19 82.5t5.5 76.5q0 89 -26 171t-71.5 143t-106.5 96.5t-132 35.5q-75 0 -126.5 -34.5t-85 -91.5t-48.5 -127.5t-15 -137.5zM415 963q9 3 31.5 7.5l50 10
t55.5 9.5t57 10q19 -11 43 -29t58 -45.5t70.5 -64.5t70 -80t59 -91.5t34.5 -97.5q7 -31 9.5 -62t2.5 -57q0 -42 -8.5 -95t-30 -109t-57.5 -108.5t-91.5 -94.5t-133 -67.5t-177.5 -25.5q-114 0 -204.5 35t-152.5 99.5t-94 153t-32 195.5q0 96 23.5 176t77 144t137 111
t202.5 76zM474 1208q24 23 41 33.5t37 10.5q33 0 51.5 -18.5t18.5 -44.5q0 -19 -12.5 -35.5t-35.5 -31.5l-209 -128h-101z" />
    <glyph glyph-name="ocircumflex" unicode="&#xf4;" horiz-adv-x="1031" 
d="M153 487q0 -43 8 -92.5t24.5 -99t42.5 -94t61.5 -78t81 -52.5t103.5 -19q111 0 181 69q29 30 50 70t34.5 82t19 82.5t5.5 76.5q0 89 -26 171t-71.5 143t-106.5 96.5t-132 35.5q-75 0 -126.5 -34.5t-85 -91.5t-48.5 -127.5t-15 -137.5zM605 999q2 1 4 1q19 -11 43 -29
t58 -45.5t70.5 -64.5t70 -80t59 -91.5t34.5 -97.5q7 -31 9.5 -62t2.5 -57q0 -42 -8.5 -95t-30 -109t-57.5 -108.5t-91.5 -94.5t-133 -67.5t-177.5 -25.5q-114 0 -204.5 35t-152.5 99.5t-94 153t-32 195.5q0 96 23.5 176t77 144t137 111t202.5 76q9 3 31.5 7.5l50 10
t55.5 9.5q11 2 23 4q-108 124 -135 138q-55 -51 -128 -147l-97 85q67 96 241 254q89 -54 133 -102q23 -26 48.5 -53t66.5 -66z" />
    <glyph glyph-name="otilde" unicode="&#xf5;" horiz-adv-x="1031" 
d="M153 487q0 -43 8 -92.5t24.5 -99t42.5 -94t61.5 -78t81 -52.5t103.5 -19q111 0 181 69q29 30 50 70t34.5 82t19 82.5t5.5 76.5q0 89 -26 171t-71.5 143t-106.5 96.5t-132 35.5q-75 0 -126.5 -34.5t-85 -91.5t-48.5 -127.5t-15 -137.5zM415 963q9 3 31.5 7.5l50 10
t55.5 9.5t57 10q19 -11 43 -29t58 -45.5t70.5 -64.5t70 -80t59 -91.5t34.5 -97.5q7 -31 9.5 -62t2.5 -57q0 -42 -8.5 -95t-30 -109t-57.5 -108.5t-91.5 -94.5t-133 -67.5t-177.5 -25.5q-114 0 -204.5 35t-152.5 99.5t-94 153t-32 195.5q0 96 23.5 176t77 144t137 111
t202.5 76zM610 1046q-82 -22 -109 -22q-35 0 -80.5 24.5t-69.5 24.5q-36 -3 -269 -108l212 212q97 43 146 43q36 0 80 -27t66 -27q33 0 231 73z" />
    <glyph glyph-name="odieresis" unicode="&#xf6;" horiz-adv-x="1031" 
d="M153 487q0 -43 8 -92.5t24.5 -99t42.5 -94t61.5 -78t81 -52.5t103.5 -19q111 0 181 69q29 30 50 70t34.5 82t19 82.5t5.5 76.5q0 89 -26 171t-71.5 143t-106.5 96.5t-132 35.5q-75 0 -126.5 -34.5t-85 -91.5t-48.5 -127.5t-15 -137.5zM220 1046v110l101 59l102 -59v-110
l-102 -59zM610 1000q18 -11 42 -29t58 -45.5t70.5 -64.5t70 -80t59 -91.5t34.5 -97.5q7 -31 9.5 -62t2.5 -57q0 -42 -8.5 -95t-30 -109t-57.5 -108.5t-91.5 -94.5t-133 -67.5t-177.5 -25.5q-114 0 -204.5 35t-152.5 99.5t-94 153t-32 195.5q0 96 23.5 176t77 144t137 111
t202.5 76q9 3 31.5 7.5l50 10t55.5 9.5l24 4l-89 53v109l101 59l102 -59v-109z" />
    <glyph glyph-name="divide" unicode="&#xf7;" horiz-adv-x="1087" 
d="M365 235v147l134 78l135 -78v-147l-135 -80zM365 955v148l134 78l135 -78v-148l-135 -79zM306 592q-38 0 -77 -1q-41 -2 -75.5 -9.5t-59.5 -19.5t-66 -76l-54 143l156 219q20 -64 33 -73.5t34 -14.5t49.5 -6t61.5 -1h134v-1h238q39 0 79.5 1.5t75 9t59.5 19.5t66 76
l54 -143l-156 -219q-20 64 -33 73.5t-34 14.5t-49.5 6t-61.5 1h-374v1z" />
    <glyph glyph-name="oslash" unicode="&#xf8;" horiz-adv-x="1031" 
d="M100 108q-61 64 -93 152.5t-32 195.5q0 96 23.5 176t77 144t137 111t202.5 76q9 3 31.5 7.5l50 10t55.5 9.5t57 10q19 -11 44 -29q21 -16 27 -20l22 35h136l-77 -106q4 -3 18 -17q38 -39 71.5 -82t59 -91.5t34.5 -97.5q7 -31 9.5 -62t2.5 -57q0 -42 -8.5 -95t-30 -109
t-57.5 -108.5t-91.5 -94.5t-133 -67.5t-177.5 -25.5q-114 0 -203 35l-25 9q-3 -6 -40 -66q-38 51 -52.5 68t-36.5 46l20 25q-3 0 -21 18zM670 735l-19 -31q-19 -30 -36.5 -59t-32 -53t-22.5 -37q-8 -18 -92 -145q-64 -103 -129 -211q-26 -45 -46 -77q-4 3 -5 3l2 -2
q35 -33 80.5 -52t103.5 -19q111 0 181 69q29 30 50 70t34.5 82t19 82.5t5.5 76.5q0 89 -26 171t-68 132zM216 209l12 17q27 41 68 104q26 44 48 77q8 15 17.5 29.5t16.5 25.5t11 16l3 5q104 176 107 176l98 159q-12 10 -38 26q-60 34 -131 34q-75 0 -126.5 -34.5t-85 -91.5
t-48.5 -127.5t-15 -137.5q0 -43 8 -92.5t24.5 -99t30.5 -86.5z" />
    <glyph glyph-name="ugrave" unicode="&#xf9;" horiz-adv-x="868" 
d="M577 995l2 5l218 -41q-7 -30 -9 -51t-4 -44.5t-3 -45t-1 -33.5v-560q-5 -32 -27.5 -62t-54.5 -55.5t-69 -47.5t-70.5 -39.5t-61 -29t-49.5 -20.5q-26 8 -64.5 20t-84.5 27.5t-92 32.5t-81 36q-58 38 -58 68v545q0 45 -4.5 74t-9 44t-9.5 21q-4 4 -4 5h1q-3 1 -24 1
q-16 32 -25.5 62t-23.5 79h254v-673q2 -20 11 -49t35 -56t76.5 -47.5t141.5 -24.5h4q37 0 66 15t51 38.5t33.5 51.5t11.5 54v531q0 25 -3 39t-6.5 18t-12.5 6t-28 2q-5 0 -13 -1t-78 -17l64 121h-99l-209 128q-23 15 -35.5 31.5t-12.5 35.5q0 26 19 44.5t51 18.5
q20 0 37.5 -10t41.5 -34z" />
    <glyph glyph-name="uacute" unicode="&#xfa;" horiz-adv-x="868" 
d="M797 959q-7 -30 -9 -51t-4 -44.5t-3 -45t-1 -33.5v-560q-5 -32 -27.5 -62t-54.5 -55.5t-69 -47.5t-70.5 -39.5t-61 -29t-49.5 -20.5q-26 8 -64.5 20t-84.5 27.5t-92 32.5t-81 36q-58 38 -58 68v545q0 45 -4.5 74t-9 44t-9.5 21q-4 4 -4 5h1q-3 1 -24 1q-16 32 -25.5 62
t-23.5 79h254v-673q2 -20 11 -49t35 -56t76.5 -47.5t141.5 -24.5h4q37 0 66 15t51 38.5t33.5 51.5t11.5 54v531q0 25 -3 39t-6.5 18t-12.5 6t-28 2q-5 0 -13 -1t-78 -17l67 127zM404 1208q24 23 41 33.5t37 10.5q33 0 51.5 -18.5t18.5 -44.5q0 -19 -12.5 -35.5t-35.5 -31.5
l-209 -128h-101z" />
    <glyph glyph-name="ucircumflex" unicode="&#xfb;" horiz-adv-x="868" 
d="M797 959q-7 -30 -9 -51t-4 -44.5t-3 -45t-1 -33.5v-560q-5 -32 -27.5 -62t-54.5 -55.5t-69 -47.5t-70.5 -39.5t-61 -29t-49.5 -20.5q-26 8 -64.5 20t-84.5 27.5t-92 32.5t-81 36q-58 38 -58 68v545q0 45 -4.5 74t-9 44t-9.5 21q-4 4 -4 5h1q-3 1 -24 1q-16 32 -25.5 62
t-23.5 79h254v-673q2 -20 11 -49t35 -56t76.5 -47.5t141.5 -24.5h4q37 0 66 15t51 38.5t33.5 51.5t11.5 54v531q0 25 -3 39t-6.5 18t-12.5 6t-28 2q-5 0 -13 -1t-78 -17l67 127zM377 1132q-55 -51 -128 -147l-97 85q67 96 241 254q89 -54 133 -102q23 -26 48.5 -53t66.5 -66
l-117 -123q-119 137 -147 152z" />
    <glyph glyph-name="udieresis" unicode="&#xfc;" horiz-adv-x="868" 
d="M797 959q-7 -30 -9 -51t-4 -44.5t-3 -45t-1 -33.5v-560q-5 -32 -27.5 -62t-54.5 -55.5t-69 -47.5t-70.5 -39.5t-61 -29t-49.5 -20.5q-26 8 -64.5 20t-84.5 27.5t-92 32.5t-81 36q-58 38 -58 68v545q0 45 -4.5 74t-9 44t-9.5 21q-4 4 -4 5h1q-3 1 -24 1q-16 32 -25.5 62
t-23.5 79h254v-673q2 -20 11 -49t35 -56t76.5 -47.5t141.5 -24.5h4q37 0 66 15t51 38.5t33.5 51.5t11.5 54v531q0 25 -3 39t-6.5 18t-12.5 6t-28 2q-5 0 -13 -1t-78 -17l67 127zM417 1047v109l101 59l102 -59v-109l-102 -60zM150 1046v110l101 59l102 -59v-110l-102 -59z
" />
    <glyph glyph-name="yacute" unicode="&#xfd;" horiz-adv-x="860" 
d="M404 1208q24 23 41 33.5t37 10.5q33 0 51.5 -18.5t18.5 -44.5q0 -19 -12.5 -35.5t-35.5 -31.5l-209 -128h-101zM136 813l24 -113l-190 114l96 187q45 -10 64 -14.5t37 -8.5t37 -8.5t52 -11.5l197 -339q31 57 89.5 157.5t119.5 209.5h141l-84 -116q-56 -97 -104 -175
q-20 -34 -40 -67t-35.5 -59.5t-26.5 -45.5t-12 -21v-252q0 -32 2.5 -66t9.5 -63.5t19 -51.5t75 -56q-57 -14 -69 -17.5t-22.5 -7t-19 -6t-24.5 -12.5q-47 25 -75.5 43.5t-60.5 37.5l-90 52q65 16 75.5 25.5t16 24.5t7.5 37.5t2 47.5v200q-56 112 -102.5 194t-77.5 133
q-18 28 -31 48z" />
    <glyph glyph-name="thorn" unicode="&#xfe;" horiz-adv-x="782" 
d="M432 697q-9 4 -21.5 5.5t-24.5 1.5q-26 0 -49.5 -8t-36.5 -18v-289q-1 1 -2 1v-1l22 -11q28 -14 57.5 -30t59.5 -33q13 -8 21 -8q9 0 9 12q-8 -4 -11 -4q-1 0 -1 1q0 2 9 11q20 17 39 43.5t31.5 63t12.5 81.5v6q0 19 -9 45t-24 51.5t-36 46.5t-46 33zM93 845q3 1 18 7
q-4 5 -7 8q-3 2 -5 2t-6 -4q-2 -2 -2 -7v-2q0 -3 1 -3zM136 715l-167 99l98 187q36 -8 47.5 -11t31 -6t51 -9t102.5 -18v-173q27 4 60 10q35 7 125 24q19 -6 43.5 -20.5t52.5 -38t56.5 -56t47.5 -70.5q16 -32 19.5 -66t3.5 -60q0 -51 -14 -91t-38 -70q-20 -26 -47 -49
t-53 -42t-52 -29.5t-52 -11.5l-151 67v-29l-1 1v-3q0 -33 2 -66.5t8 -63t17.5 -50t27.5 -29.5l43 -26l-131 -44q-40 23 -66 38.5t-55 31.5l-101 61l52 15q14 3 22 13t13 28t5.5 41.5t0.5 50.5v386q0 45 -1 79z" />
    <glyph glyph-name="ydieresis" unicode="&#xff;" horiz-adv-x="860" 
d="M417 1047v109l101 59l102 -59v-109l-102 -60zM150 1046v110l101 59l102 -59v-110l-102 -59zM136 813l24 -113l-190 114l96 187q45 -10 64 -14.5t37 -8.5t37 -8.5t52 -11.5l197 -339q31 57 89.5 157.5t119.5 209.5h141l-84 -116q-56 -97 -104 -175q-20 -34 -40 -67
t-35.5 -59.5t-26.5 -45.5t-12 -21v-252q0 -32 2.5 -66t9.5 -63.5t19 -51.5t75 -56q-57 -14 -69 -17.5t-22.5 -7t-19 -6t-24.5 -12.5q-47 25 -75.5 43.5t-60.5 37.5l-90 52q65 16 75.5 25.5t16 24.5t7.5 37.5t2 47.5v200q-56 112 -102.5 194t-77.5 133q-18 28 -31 48z" />
    <glyph glyph-name="dotlessi" unicode="&#x131;" horiz-adv-x="447" 
d="M109 854q-3 4 -6 6t-4 2q-3 0 -6 -3t-3 -8v-2q0 -3 1 -4q1 0 1 -1q3 2 17 10zM135 714l-165 100l96 187q36 -8 47.5 -11t31 -6t51 -9t102.5 -18v-707q0 -33 2 -66.5t8.5 -63.5t17.5 -50t29 -29l38 -27l-128 -43q-40 23 -66 38t-55 33l-101 60l52 15q14 3 22.5 13.5
t13 27.5t5 41.5t0.5 50.5v386q0 44 -1 78z" />
    <glyph glyph-name="OE" unicode="&#x152;" horiz-adv-x="2173" 
d="M1136 1196q3 -2 4 -2q0 2 -5 9q1 -4 1 -7zM208 696q0 -62 11.5 -133.5t35 -142.5t61.5 -136t90 -113.5t119 -77t152 -28.5q164 0 267 103q43 44 73.5 101.5t49.5 118t27 119t8 110.5q0 128 -37.5 246.5t-103.5 207t-155.5 140.5t-194.5 52q-111 0 -187 -51t-124.5 -133.5
t-70 -184.5t-21.5 -198zM1124 1208q0 1 -1 2q-17 39 -39 50q-8 3 -17 5l38 -38q11 -12 19 -19zM1109 115q-3 -3 -18 -14q-80 -60 -188 -95.5t-249 -35.5q-160 0 -287 49t-214.5 139.5t-132.5 216t-45 277.5q0 135 33 248t108.5 203.5t193.5 156.5t287 108q12 4 44 10.5
t71 14t78.5 13.5t77.5 12q22 -12 57 -37q33 -24 53 -40l32 61l169 -20q57 -7 104 -12l46 -6l342 53l122 -48q79 -32 143 -78t130 -105l-167 -173q-47 76 -90 119.5t-88.5 75.5t-92 49t-87.5 17h-6q-57 -3 -103.5 -32t-75.5 -83v-407h84q39 0 79.5 1.5t75 9t59.5 19.5t66 76
l54 -143l-156 -219q-20 64 -33 73.5t-34 14.5t-49.5 6t-61.5 1h-84v-367q0 -26 27.5 -48.5t68 -39t85.5 -26t72 -9.5q86 0 163.5 54t147.5 183l187 -194q-63 -42 -121.5 -71.5t-122.5 -52.5t-129 -36.5t-125 -13.5z" />
    <glyph glyph-name="oe" unicode="&#x153;" horiz-adv-x="1551" 
d="M783 859q12 -13 14 -13q0 2 -16 22q1 -5 2 -9zM153 487q0 -43 8 -92.5t24.5 -99t42.5 -94t61.5 -78t81 -52.5t103.5 -19q111 0 181 69q29 30 50 70t34.5 82t19 82.5t5.5 76.5q0 89 -26 171t-71.5 143t-106.5 96.5t-132 35.5q-75 0 -126.5 -34.5t-85 -91.5t-48.5 -127.5
t-15 -137.5zM778 73q0 -1 -11 -7q-54 -42 -131.5 -67.5t-177.5 -25.5q-114 0 -204.5 35t-152.5 99.5t-94 153t-32 195.5q0 96 23.5 176t77 144t137 111t202.5 76q9 3 31.5 7.5l50 10t55.5 9.5t57 10q19 -11 43 -29q24 -17 30 -21l21 38l123 -15q39 -4 104 -12l241 37l87 -34
q57 -23 101.5 -55.5t96.5 -77.5l-127 -133q-39 61 -68.5 91t-60.5 52t-62.5 33.5t-58.5 11.5h-4q-38 -2 -68.5 -21t-49.5 -55v-278h51q27 0 55 1.5t51.5 6.5t39.5 12.5t52 66.5l44 -119l-120 -169q-18 58 -25.5 63.5t-21 8.5t-33.5 4t-42 1h-51v-251q0 -16 17.5 -30.5
t45 -25.5t58 -17.5t48.5 -6.5q58 0 110.5 36.5t105.5 134.5l143 -148q-50 -33 -91 -54t-86.5 -37.5t-92 -26t-90.5 -9.5z" />
    <glyph glyph-name="circumflex" unicode="&#x2c6;" horiz-adv-x="710" 
d="M277 1628q-85 -78 -183 -207l-124 109q90 131 332 350q119 -72 181 -141q32 -36 69 -74.5t90 -90.5l-153 -159q-163 186 -212 213z" />
    <glyph glyph-name="caron" unicode="&#x2c7;" horiz-adv-x="710" 
d="M333 1674q85 78 183 207l124 -109q-90 -131 -332 -350q-119 72 -181 141q-32 36 -69 74.5t-90 90.5l153 159q163 -186 212 -213z" />
    <glyph glyph-name="uni02C9" unicode="&#x2c9;" horiz-adv-x="552" 
d="M-25 1026v149h502v-149h-502z" />
    <glyph glyph-name="breve" unicode="&#x2d8;" horiz-adv-x="611" 
d="M-28 1200h93q17 -72 60.5 -97.5t130.5 -25.5t129.5 25t59.5 98h94q-22 -144 -93 -210t-190 -66q-118 0 -190 66.5t-94 209.5z" />
    <glyph glyph-name="dotaccent" unicode="&#x2d9;" horiz-adv-x="319" 
d="M-25 1499v148l134 78l135 -78v-148l-135 -79z" />
    <glyph glyph-name="ring" unicode="&#x2da;" horiz-adv-x="535" 
d="M389.5 1807q70.5 -67 70.5 -160q0 -92 -70.5 -159t-171.5 -67t-172 67t-71 159q0 93 71 160t172 67t171.5 -67zM188 1751q-29 0 -53.5 -31t-24.5 -78t24.5 -78t53.5 -31t53.5 31t24.5 78t-24.5 78t-53.5 31z" />
    <glyph glyph-name="ogonek" unicode="&#x2db;" horiz-adv-x="422" 
d="M294 20q-99 -86 -131 -133t-32 -90q0 -34 17 -52t45 -18t47.5 10.5t46.5 55.5l66 -37q-43 -75 -96.5 -108.5t-118.5 -33.5q-71 0 -117 37t-46 94q0 71 56.5 146t155.5 129h107z" />
    <glyph glyph-name="tilde" unicode="&#x2dc;" horiz-adv-x="874" 
d="M606 1502q-114 -30 -151 -30q-46 0 -111.5 35t-102.5 35q-53 -4 -340 -134l266 267q134 59 201 59q49 0 111.5 -38.5t97.5 -38.5q49 0 290 89z" />
    <glyph glyph-name="hungarumlaut" unicode="&#x2dd;" horiz-adv-x="615" 
d="M-38 924l141 267q23 42 47 63t56 21q37 0 61 -24t24 -55q0 -18 -10.5 -37.5t-30.5 -40.5l-187 -194h-101zM211 924l141 267q23 42 47 63t57 21q36 0 60 -24t24 -55q0 -18 -10.5 -37.5t-30.5 -40.5l-187 -194h-101z" />
    <glyph glyph-name="endash" unicode="&#x2013;" horiz-adv-x="1087" 
d="M306 592q-38 0 -77 -1q-41 -2 -75.5 -9.5t-59.5 -19.5t-66 -76l-54 143l156 219q20 -64 33 -73.5t34 -14.5t49.5 -6t61.5 -1h134v-1h238q39 0 79.5 1.5t75 9t59.5 19.5t66 76l54 -143l-156 -219q-20 64 -33 73.5t-34 14.5t-49.5 6t-61.5 1h-374v1z" />
    <glyph glyph-name="emdash" unicode="&#x2014;" horiz-adv-x="1287" 
d="M306 592q-38 0 -77 -1q-41 -2 -75.5 -9.5t-59.5 -19.5t-66 -76l-54 143l156 219q20 -64 33 -73.5t34 -14.5t49.5 -6t61.5 -1h134v-1h438q39 0 79.5 1.5t75 9t59.5 19.5t66 76l54 -143l-156 -219q-20 64 -33 73.5t-34 14.5t-49.5 6t-61.5 1h-574v1z" />
    <glyph glyph-name="quoteleft" unicode="&#x2018;" horiz-adv-x="330" 
d="M299 1467l-135 -398l77 -45v-145l-135 -80l-134 80v168z" />
    <glyph glyph-name="quoteright" unicode="&#x2019;" horiz-adv-x="320" 
d="M-82 698l135 398l-77 45v145l135 80l134 -80v-168z" />
    <glyph glyph-name="quotesinglbase" unicode="&#x201a;" horiz-adv-x="320" 
d="M-79 -419l130 397l-75 43v147l134 75l135 -75v-170z" />
    <glyph glyph-name="quotedblleft" unicode="&#x201c;" horiz-adv-x="674" 
d="M316 1047l325 418l-132 -396l75 -45v-145l-134 -80l-134 80v168zM-23 1047l328 420l-136 -398l77 -45v-145l-135 -80l-134 80v168z" />
    <glyph glyph-name="quotedblright" unicode="&#x201d;" horiz-adv-x="672" 
d="M258 1118l-325 -418l132 396l-75 45v145l134 80l134 -80v-168zM597 1118l-328 -420l136 398l-77 45v145l135 80l134 -80v-168z" />
    <glyph glyph-name="quotedblbase" unicode="&#x201e;" horiz-adv-x="658" 
d="M244 25l-325 -418l132 396l-75 45v145l134 80l134 -80v-168zM583 25l-328 -420l136 398l-77 45v145l135 80l134 -80v-168z" />
    <glyph glyph-name="dagger" unicode="&#x2020;" horiz-adv-x="864" 
d="M336 917q-5 57 -43 125q-52 92 -52 121q0 51 39 82.5t102 31.5q60 0 100 -29.5t40 -76.5q0 -32 -50 -128q-38 -71 -44 -127q48 4 114 42q94 53 127 53q56 0 88 -38.5t32 -96.5q0 -55 -29.5 -95.5t-82.5 -40.5q-35 0 -133 52q-70 38 -117 43q6 -124 97 -214
q-95 -409 -100 -877h-83q-5 468 -102 877q91 90 98 214q-49 -4 -115 -41q-95 -54 -127 -54q-56 0 -88 38.5t-32 97.5q0 55 29.5 95t82.5 40q35 0 134 -52q69 -38 115 -42z" />
    <glyph glyph-name="daggerdbl" unicode="&#x2021;" horiz-adv-x="864" 
d="M427 186q47 5 117 44q98 51 133 51q53 0 82.5 -40.5t29.5 -95.5q0 -58 -32 -96.5t-88 -38.5q-33 0 -127 54q-66 37 -114 41q6 -55 44 -127q50 -96 50 -128q0 -47 -40 -76.5t-100 -29.5q-63 0 -102 31.5t-39 82.5q0 29 52 121q38 68 43 125q-46 -4 -115 -42
q-99 -52 -134 -52q-53 0 -82.5 40t-29.5 95q0 59 32 97.5t88 38.5q32 0 127 -54q66 -36 115 -41q-6 170 -99 325q93 155 99 324q-49 -4 -115 -41q-95 -54 -127 -54q-56 0 -88 38.5t-32 97.5q0 55 29.5 95t82.5 40q35 0 134 -52q69 -38 115 -42q-5 57 -43 125q-52 92 -52 121
q0 51 39 82.5t102 31.5q60 0 100 -29.5t40 -76.5q0 -32 -50 -128q-38 -71 -44 -127q48 4 114 42q94 53 127 53q56 0 88 -38.5t32 -96.5q0 -55 -29.5 -95.5t-82.5 -40.5q-35 0 -133 52q-70 38 -117 43q6 -169 98 -324q-92 -155 -98 -325z" />
    <glyph glyph-name="bullet" unicode="&#x2022;" horiz-adv-x="618" 
d="M-25 628q0 115 82.5 196.5t202.5 81.5q119 0 201 -82t82 -196q0 -113 -83 -196.5t-202 -83.5t-201 83t-82 197z" />
    <glyph glyph-name="ellipsis" unicode="&#x2026;" horiz-adv-x="919" 
d="M-25 35v147l134 78l135 -78v-147l-135 -80zM275 34v148l134 78l135 -78v-148l-135 -79zM575 34v148l134 78l135 -78v-148l-135 -79z" />
    <glyph glyph-name="perthousand" unicode="&#x2030;" horiz-adv-x="1607" 
d="M184 1026q0 -26 4 -56.5t11 -61t18.5 -58t26.5 -47t32.5 -29.5t37.5 -10q41 0 68 38q13 18 22.5 42.5t15 49.5t8 50.5t2.5 47.5q0 54 -11.5 104.5t-31.5 88t-44 57t-50 19.5t-46 -19t-34.5 -53t-21.5 -77.5t-7 -85.5zM593 376q0 -26 4 -56.5t11 -61t18.5 -58t26.5 -47
t32.5 -29.5t37.5 -10q41 0 68 38q13 18 22.5 42.5t15 49.5t8 50.5t2.5 47.5q0 54 -11.5 104.5t-31.5 88t-44 57t-50 19.5t-46 -19t-34.5 -53t-21.5 -77.5t-7 -85.5zM1063 376q0 -26 4 -56.5t11 -61t18.5 -58t26.5 -47t32.5 -29.5t37.5 -10q41 0 68 38q13 18 22.5 42.5
t15 49.5t8 50.5t2.5 47.5q0 54 -11.5 104.5t-31.5 88t-44 57t-50 19.5t-46 -19t-34.5 -53t-21.5 -77.5t-7 -85.5zM309 680q-78 0 -141 24t-106 68.5t-65 105.5t-22 134q0 65 16 120t53 99.5t94.5 76.5t138.5 52q6 2 21.5 5t34.5 7t37.5 7t41.5 6q16 -8 32.5 -20.5t40 -31.5
t48 -44t47.5 -54.5t40.5 -63t24.5 -66.5q4 -21 6 -42.5t2 -38.5q0 -29 -6 -65v-1q2 0 48 148l182 294h170l-117 -162q-79 -129 -142 -229q-27 -43 -52 -84.5t-45.5 -75.5t-32.5 -53q-12 -25 -45 -76l73 -10q6 2 21.5 5t34.5 7t37.5 7t41.5 6q16 -8 32.5 -20.5t40 -31.5
t46.5 -42l20 -20q12 12 58 37q57 32 138 52q6 2 21.5 5t34.5 7t37.5 7t41.5 6q16 -8 32.5 -20.5t40 -31.5t48 -44t47.5 -54.5t40.5 -63t24.5 -66.5q4 -21 6 -42.5t2 -38.5q0 -29 -6 -65.5t-21 -75t-39.5 -74t-63 -65t-92 -47t-122.5 -17.5q-78 0 -141 24t-93 57q1 1 -21 -16
q-40 -30 -93 -47.5t-122 -17.5q-78 0 -141 24t-106 68.5t-65 105.5t-22 134q0 20 -3 20q-6 0 -21 -64l13 21q0 -1 -30 -52q-93 -157 -203 -338q-46 58 -66.5 82.5t-50.5 62.5l25 27l14 12l6 5q9 10 26 29t43 56t65.5 96t97.5 149q38 63 69 110q12 22 25.5 42t23 36t15.5 24
l6 8q-61 -8 -130 -8z" />
    <glyph glyph-name="guilsinglleft" unicode="&#x2039;" horiz-adv-x="808" 
d="M175 874l363 286h239q-237 -159 -311 -216q-101 -84 -197 -166l-37 -38q29 -30 60 -60t68 -67.5t75 -76.5q102 -98 127 -119q37 -42 169 -154l-223 -112q-66 72 -151 142q-95 96 -160 163q-27 29 -54 57.5t-49 50.5t-35 37t-16 18q-67 70 -67 86q197 170 199 169z" />
    <glyph glyph-name="guilsinglright" unicode="&#x203a;" horiz-adv-x="808" 
d="M733 705q0 -16 -67 -86q-3 -3 -16 -18t-35 -37t-49 -50.5t-55 -57.5q-65 -67 -160 -163q-85 -70 -151 -142l-222 112q132 112 169 154q25 21 126 120q39 38 75.5 75.5t67.5 67.5t60 60l-36 38q-96 82 -197 166q-74 57 -311 216h238l368 -291q5 0 195 -164z" />
    <glyph glyph-name="fraction" unicode="&#x2044;" horiz-adv-x="1054" 
d="M530 921l297 479h170l-117 -162q-79 -129 -142 -229q-27 -43 -52 -84.5t-45.5 -75.5t-32.5 -53q-12 -26 -131 -206q-91 -147 -184 -303.5t-203 -337.5q-46 58 -66.5 82.5t-50.5 62.5l25 27l14 12l6 5q9 10 26 29t43 56t65.5 96t97.5 149q38 63 69 110q12 22 25.5 42
t23 36t15.5 24l6 8q140 236 141 233z" />
    <glyph glyph-name="fraction" unicode="&#x2215;" horiz-adv-x="1054" 
d="M530 921l297 479h170l-117 -162q-79 -129 -142 -229q-27 -43 -52 -84.5t-45.5 -75.5t-32.5 -53q-12 -26 -131 -206q-91 -147 -184 -303.5t-203 -337.5q-46 58 -66.5 82.5t-50.5 62.5l25 27l14 12l6 5q9 10 26 29t43 56t65.5 96t97.5 149q38 63 69 110q12 22 25.5 42
t23 36t15.5 24l6 8q140 236 141 233z" />
    <glyph glyph-name="franc" unicode="&#x20a3;" horiz-adv-x="1164" 
d="M441 347q38 0 78 2q40 1 74.5 8.5t59.5 19.5t66 76l54 -143l-156 -219q-20 64 -33 73.5t-34 14.5t-49.5 6t-61.5 1h-53v-33q0 -46 3.5 -93.5t13 -89.5t26.5 -73t42 -45l44 -28l-164 -56l-318 189h77q23 7 37.5 23t22 43t9 60.5t1.5 69.5v29q-2 0 -28 -5q-34 -8 -59 -20
t-66 -76l-54 143l156 219q20 -64 33 -73q8 -6 18 -10v747q-10 62 -27 102t-39 51q-16 6 -36 6q-7 0 -18.5 -1.5t-23.5 -3.5q-14 -3 -76 -10l80 151q102 -13 171 -20q28 -4 55.5 -6.5t49.5 -5t35 -4.5l10 -2l340 53l121 -46q78 -30 143 -78t131 -107l-167 -173
q-47 76 -90 119.5t-88.5 75.5t-92 49t-87.5 17h-6q-57 -3 -103.5 -32t-75.5 -83v-406h84q39 0 80 2t75.5 8.5t59 18.5t65.5 76l54 -143l-156 -219q-20 64 -33 73.5t-34 14.5t-49.5 6t-61.5 1h-84v-243h55v-1z" />
    <glyph glyph-name="lira" unicode="&#x20a4;" horiz-adv-x="1118" 
d="M441 582q38 0 78 2q40 1 74.5 8.5t59.5 19.5t66 76l54 -143l-156 -219q-20 64 -33 73.5t-34 14.5t-49.5 6t-61.5 1h-51v-59q0 -50 4 -132.5t31 -84.5h136q53 0 110.5 10t107 45.5t89.5 105.5t63 255q60 -86 74.5 -107t40.5 -58q-29 -104 -59.5 -203.5t-63.5 -212.5h-764
l-200 180q88 18 148 36.5t67 41.5t8.5 55.5t1.5 68.5v56q-3 -1 -30 -6q-34 -8 -59 -20t-66 -76l-54 143l156 219q20 -64 33 -73q9 -7 20 -11v155q-3 -1 -30 -6q-34 -8 -59 -20t-66 -76l-54 143l156 219q20 -64 33 -73q9 -7 20 -11v113q0 15 1.5 33.5t5.5 37.5
q10 56 68.5 106.5t126.5 91t130.5 68.5t100.5 44l289 -126q5 -47 8 -83t7 -70q3 -20 5 -41t3 -51l-91 -58q-24 87 -41.5 133t-43.5 75t-67 45t-105 16q-25 0 -59 -6.5t-63 -25.5t-50 -52t-21 -86l1 -175h54v-1q38 0 78 2q40 1 74.5 8.5t59.5 19.5t66 76l54 -143l-156 -219
q-20 64 -33 73.5t-34 14.5t-49.5 6t-61.5 1h-52v-169h54v-1z" />
    <glyph glyph-name="peseta" unicode="&#x20a7;" horiz-adv-x="1080" 
d="M628 1261q-15 6 -33.5 8.5t-36.5 2.5q-40 0 -75.5 -12t-58.5 -29v-422h-1q0 -1 35 -18q39 -20 81.5 -43.5t82.5 -45.5q21 -12 31 -12q9 0 9 9q-3 -1 -4 -1t-1 1q0 3 20 20q29 25 56.5 63.5t46 92t18.5 118.5v9q0 29 -13 66.5t-35 75t-53.5 68.5t-68.5 49zM171 1216
q-10 14 -16 19q-7 5 -13 5q-9 0 -16 -7t-7 -18v-3q1 -8 5.5 -11t7.5 -3q5 0 39 18zM173 1213l40 -179q-1 10 -2 21q-8 62 -17 101t-20 56zM218 186q-35 -3 -65 -9q-35 -8 -60 -20t-66 -76l-54 143l156 219q20 -64 33 -73.5t32 -14.5q23 -5 24 -5v550q0 68 -4 120l-244 146
l123 237q91 -17 160.5 -23.5t138.5 -15.5q80 11 130 20.5t174 32.5q23 -7 57 -27t74 -53t80 -78.5t66 -99.5q22 -44 27 -92t5 -85q0 -71 -19.5 -127t-52.5 -98q-29 -37 -66.5 -69.5t-74.5 -58.5t-72 -41t-69 -16l-227 102v-326h17v-1q38 0 78 2q40 1 74.5 8.5t59.5 19.5
t66 76l54 -143l-156 -219q-20 64 -33 73.5t-34 14.5t-49.5 6t-61.5 1h-15v-33q0 -46 3.5 -93.5t13.5 -90.5t29 -75.5t86 -68.5l-167 -57l-299 177q77 17 92.5 36t23 48t10 62t2.5 62v33z" />
    <glyph glyph-name="Euro" unicode="&#x20ac;" horiz-adv-x="1276" 
d="M405 387q-39 0 -79 -1h-4q21 -50 67 -111q64 -85 160.5 -137.5t236.5 -52.5q68 0 126.5 36.5t105.5 84t75.5 91t63.5 112.5q24 -87 29.5 -103.5t15.5 -48.5q-21 -51 -40.5 -99.5t-39.5 -101.5q-49 -31 -110.5 -48t-127 -25t-127.5 -10.5t-110 -2.5q-132 0 -255 51.5
t-219 149.5q-93 93 -145.5 216t-52.5 247q0 118 48 219.5t121.5 185.5t161.5 149.5t171.5 113t149 75.5t105.5 42l389 -226q-18 -58 -34.5 -99t-32.5 -83l-64 -169l-49 38q-18 15 -61 43q20 29 37.5 66t17.5 79q0 30 -17 54q-15 23 -47 38t-75.5 23t-94 12t-99.5 4
q-146 0 -231 -86q-36 -38 -59 -95q-22 -52 -32 -94q2 0 15 -3q22 -5 50.5 -6t61.5 -1h134v-1q38 0 78 2q40 1 74.5 8.5t59.5 19.5t66 76l54 -143l-156 -219q-20 64 -33 73.5t-34 14.5t-49.5 6t-61.5 1h-134v1q-38 0 -77 -1q-41 -2 -75 -9l-4 -1l5 1q-2 -29 -2 -59
q4 -61 16 -118q11 -7 28 -11q21 -5 49.5 -6t61.5 -1h134v-1q38 0 78 2q40 1 74.5 8.5t59.5 19.5t66 76l54 -143l-156 -219q-20 64 -33 73.5t-34 14.5t-49.5 6t-61.5 1h-134v1z" />
    <glyph glyph-name="uni2116" unicode="&#x2116;" horiz-adv-x="1292" 
d="M643 1047q0 -31 6 -66t17.5 -69.5t29.5 -66t43 -54.5t56 -36.5t70 -13.5q76 0 124 48q20 21 35 48.5t24 57t13 58.5t4 54q0 63 -18 121t-50 100.5t-74 67t-91 24.5q-51 0 -86 -23.5t-58.5 -63t-34 -89.5t-10.5 -97zM634 737q-22 16 -41 35l-1 1q0 -1 45 -52q-2 9 -3 16z
M618 1299q26 21 57 38q60 34 146 55q6 2 22.5 5.5t36.5 7.5t40 7t43 6q16 -8 34 -21t42.5 -33t51 -47t50 -58t42 -66t25.5 -71q5 -22 7 -44.5t2 -40.5q0 -31 -6 -69t-22 -79t-42 -78.5t-66.5 -68.5t-97 -49.5t-129.5 -18.5q-83 0 -149 26q-8 3 -17 6l-103 -35l-156 104
q64 16 68 29q-83 106 -153 195q-29 38 -58.5 74t-52.5 65t-39 50q-2 2 -3 2t-1 -3q0 -15 35 -120v-192q0 -23 1.5 -46t6.5 -43.5t13.5 -35t65.5 -46.5q-61 -12 -78 -17.5t-39 -15.5l-183 109q66 8 70.5 13.5t8 18.5t5 31t1.5 32v273q0 31 -2 55l-125 75l74 143
q46 -10 65 -13t35.5 -6t30.5 -6t50 -8v-74q1 0 16 -21q16 -22 54 -73.5t100 -132.5t106 -136v309q0 12 -2 25.5t-7.5 24t-10 14.5t-8.5 4q-7 0 -15.5 -0.5t-19.5 -2.5h1q-1 -1 -44 -1q19 44 25 57t21 39q27 -5 30 -6l6 -2q32 -7 63.5 -12t90.5 -16q-9 -38 -11 -59
q-1 -14 -2 -26z" />
    <glyph glyph-name="trademark" unicode="&#x2122;" horiz-adv-x="1378" 
d="M662 1202l-71 42l-99 -59l27 126l-132 -23q-1 0 -3 -2t-5 -10.5t-5 -31t-2 -59.5v-308q0 -24 1 -47.5t6 -43.5t12.5 -34t18.5 -20l41 -24l-111 -36q-31 16 -48.5 27.5t-37.5 23.5q-10 7 -23 13.5t-67 41.5l56 9q6 2 11 8t8 17.5t3.5 28.5t0.5 36v308q0 37 -2 59.5t-5 31
t-4.5 10t-5.5 2.5l-128 23l28 -126l-157 93l75 140l264 -28l267 28l16 -32l18 34q41 -9 55 -11.5t34 -5.5l93 -17v-77l88 -119q17 -24 33.5 -47t29.5 -40q5 -7 9 -12q17 22 39 51t46 60.5t43.5 58t31.5 42.5q9 12 10 12t1 -1v94h143l-11 -83l-3 -27q-1 -5 -1 -8v-413
q0 -23 2 -47t6.5 -44.5t13 -35t60.5 -41.5l-115 -38q-35 21 -59 38l-96 68q52 12 57 17.5t8 17.5t4 29t1 36v274l-181 -228l-109 137q-17 21 -33 42q-9 12 -18 23v-248q0 -23 2 -46.5t7.5 -44.5t14 -35.5t58.5 -41.5l-111 -37q-25 11 -37 18.5t-26 16t-32 19t-88 54.5
q64 8 69 14.5t8.5 20t5 30t1.5 28.5v279q0 28 -1 50z" />
    <glyph glyph-name="partialdiff" unicode="&#x2202;" 
d="M0 200v1100q0 200 200 200h1100q200 0 200 -200v-1100q0 -200 -200 -200h-1100q-200 0 -200 200zM1475 201v1099q0 175 -175 175h-1100q-174 0 -175 -175v-1100q1 -175 175 -175h1101q174 0 174 176z" />
    <glyph glyph-name="Delta" unicode="&#x2206;" 
d="M0 200v1100q0 200 200 200h1100q200 0 200 -200v-1100q0 -200 -200 -200h-1100q-200 0 -200 200zM1475 201v1099q0 175 -175 175h-1100q-174 0 -175 -175v-1100q1 -175 175 -175h1101q174 0 174 176z" />
    <glyph glyph-name="product" unicode="&#x220f;" 
d="M0 200v1100q0 200 200 200h1100q200 0 200 -200v-1100q0 -200 -200 -200h-1100q-200 0 -200 200zM1475 201v1099q0 175 -175 175h-1100q-174 0 -175 -175v-1100q1 -175 175 -175h1101q174 0 174 176z" />
    <glyph glyph-name="summation" unicode="&#x2211;" 
d="M0 200v1100q0 200 200 200h1100q200 0 200 -200v-1100q0 -200 -200 -200h-1100q-200 0 -200 200zM1475 201v1099q0 175 -175 175h-1100q-174 0 -175 -175v-1100q1 -175 175 -175h1101q174 0 174 176z" />
    <glyph glyph-name="minus" unicode="&#x2212;" horiz-adv-x="1087" 
d="M306 592q-38 0 -77 -1q-41 -2 -75.5 -9.5t-59.5 -19.5t-66 -76l-54 143l156 219q20 -64 33 -73.5t34 -14.5t49.5 -6t61.5 -1h134v-1h238q39 0 79.5 1.5t75 9t59.5 19.5t66 76l54 -143l-156 -219q-20 64 -33 73.5t-34 14.5t-49.5 6t-61.5 1h-374v1z" />
    <glyph glyph-name="approxequal" unicode="&#x2248;" 
d="M0 200v1100q0 200 200 200h1100q200 0 200 -200v-1100q0 -200 -200 -200h-1100q-200 0 -200 200zM1475 201v1099q0 175 -175 175h-1100q-174 0 -175 -175v-1100q1 -175 175 -175h1101q174 0 174 176z" />
    <glyph glyph-name="lessequal" unicode="&#x2264;" 
d="M0 200v1100q0 200 200 200h1100q200 0 200 -200v-1100q0 -200 -200 -200h-1100q-200 0 -200 200zM1475 201v1099q0 175 -175 175h-1100q-174 0 -175 -175v-1100q1 -175 175 -175h1101q174 0 174 176z" />
    <glyph glyph-name="greaterequal" unicode="&#x2265;" 
d="M0 200v1100q0 200 200 200h1100q200 0 200 -200v-1100q0 -200 -200 -200h-1100q-200 0 -200 200zM1475 201v1099q0 175 -175 175h-1100q-174 0 -175 -175v-1100q1 -175 175 -175h1101q174 0 174 176z" />
    <glyph glyph-name="uniF001" unicode="&#xf001;" horiz-adv-x="100" 
 />
    <glyph glyph-name="uniF001" unicode="&#xfb01;" horiz-adv-x="100" 
 />
    <glyph glyph-name="uniF002" unicode="&#xf002;" horiz-adv-x="100" 
 />
    <glyph glyph-name="uniF002" unicode="&#xfb02;" horiz-adv-x="100" 
 />
    </font>
</defs>
</svg>
