<?xml version="1.0" standalone="no"?>
<!DOCTYPE svg PUBLIC "-//W3C//DTD SVG 1.1//EN" "http://www.w3.org/Graphics/SVG/1.1/DTD/svg11.dtd" >
<svg xmlns="http://www.w3.org/2000/svg" xmlns:xlink="http://www.w3.org/1999/xlink" version="1.1">
<metadata>
Created by FontForge 20170731 at Thu Jan 21 14:44:55 2016
 By Aleksey,,,
Draconis (c) (Neale Davidson). 2016. All Rights Reserved
</metadata>
<defs>
<font id="Draconis-Italic" horiz-adv-x="800" >
  <font-face 
    font-family="Draconis"
    font-weight="400"
    font-style="italic"
    font-stretch="normal"
    units-per-em="2048"
    panose-1="2 0 5 0 0 0 0 0 0 0"
    ascent="1638"
    descent="-410"
    x-height="1120"
    cap-height="1400"
    bbox="-80 -300 1625 1950"
    underline-thickness="150"
    underline-position="-442"
    slope="-15"
    unicode-range="U+001D-F002"
  />
<missing-glyph horiz-adv-x="1650" 
d="M0 200v1100q0 200 200 200h1100q200 0 200 -200v-1100q0 -200 -200 -200h-1100q-200 0 -200 200zM1475 201v1099q0 175 -175 175h-1100q-174 0 -175 -175v-1100q1 -175 175 -175h1101q174 0 174 176z" />
    <glyph glyph-name=".notdef" horiz-adv-x="1650" 
d="M0 200v1100q0 200 200 200h1100q200 0 200 -200v-1100q0 -200 -200 -200h-1100q-200 0 -200 200zM1475 201v1099q0 175 -175 175h-1100q-174 0 -175 -175v-1100q1 -175 175 -175h1101q174 0 174 176z" />
    <glyph glyph-name=".null" horiz-adv-x="0" 
 />
    <glyph glyph-name=".null" horiz-adv-x="0" 
 />
    <glyph glyph-name="nonmarkingreturn" horiz-adv-x="508" 
 />
    <glyph glyph-name="space" unicode=" " horiz-adv-x="600" 
 />
    <glyph glyph-name="space" unicode="&#xa0;" horiz-adv-x="600" 
 />
    <glyph glyph-name="exclam" unicode="!" horiz-adv-x="500" 
d="M346 214q17 -24 17 -55q0 -16 -5 -34q-13 -52 -59.5 -88.5t-98.5 -36.5t-78 37q-18 24 -18 55q0 16 4 33q14 52 60.5 88.5t98.5 36.5t79 -36zM538 700q-39 -145 -110.5 -247.5t-133.5 -102.5t-78 103q-5 30 -5 64q0 81 27 183l160 600q3 11 3 19q0 31 -39 31l13 50h400
l-13 -50q-50 0 -64 -50z" />
    <glyph glyph-name="quotedbl" unicode="&#x22;" horiz-adv-x="650" 
d="M448 1251q-43 3 -66 36q-19 24 -19 55q0 16 5 33q14 52 60.5 88.5t98.5 36.5t79 -36q17 -24 17 -55q0 -16 -5 -34q-46 -175 -273 -275l-37 50q89 50 140 101zM748 1251q-43 3 -66 36q-19 24 -19 55q0 16 5 33q14 52 60.5 88.5t98.5 36.5t79 -36q17 -24 17 -55
q0 -16 -5 -34q-46 -175 -273 -275l-37 50q89 50 140 101z" />
    <glyph glyph-name="numbersign" unicode="#" 
d="M521 450h-100l-54 -200h-200l54 200h-100l53 200h100l54 200h-100l53 200h100l54 200h200l-54 -200h100l54 200h200l-54 -200h100l-53 -200h-100l-54 -200h100l-53 -200h-100l-54 -200h-200zM474 650h100l54 200h-100z" />
    <glyph glyph-name="dollar" unicode="$" horiz-adv-x="750" 
d="M632 1424l20 76h200l-24 -90q12 -2 25 -2q44 0 79 17q26 -66 26 -230v-45l-63 -50q-23 100 -73 100h-100q-100 0 -135 -36.5t-49 -88.5q-5 -18 -5 -35q0 -33 18 -65l178 -383q28 -56 28 -129q0 -63 -20 -138q-39 -145 -146 -247q-71 -67 -144 -91l-24 -87h-200l23 84
l-26 4q-25 4 -48 4q-44 0 -79 -17q-26 66 -26 230v45l63 50q24 -100 74 -100h100q100 0 134.5 36.5t48.5 88.5q5 18 5 35q0 33 -18 65l-177 383q-29 56 -29 131q0 62 20 136q39 145 147 248q96 91 197 101z" />
    <glyph glyph-name="percent" unicode="%" horiz-adv-x="1200" 
d="M897 550q-21 0 -47 -44t-43 -106q-14 -54 -14 -94q0 -6 1 -12q2 -44 23 -44t47.5 44t42.5 106q14 53 14 92v14q-3 44 -24 44zM658 1150q-21 0 -47 -44t-43 -106q-14 -53 -14 -92v-14q3 -44 24 -44t47 44t43 106q14 53 14 92v14q-3 44 -24 44zM609 659q-42 -9 -85 -9
q-145 0 -220 103q-49 67 -49 153q0 44 13 94q39 145 169 247.5t275 102.5t220 -102q24 -34 37 -72l156 224h200l-458 -659q41 9 84 9q145 0 220 -102q49 -68 49 -154q0 -44 -13 -94q-39 -145 -169 -247.5t-275 -102.5t-219 103q-25 33 -38 71l-156 -224h-200z" />
    <glyph glyph-name="ampersand" unicode="&#x26;" horiz-adv-x="900" 
d="M574 650q-41 0 -88 -66t-72 -159q-20 -73 -20 -123q0 -24 5 -43q14 -59 55 -59zM878 850q50 0 113 50l43 -25l-67 -250l-56 -25q-37 50 -87 50l-120 -450q50 0 126 100l37 -50q-104 -200 -174 -275q-25 17 -68 25h-225q-166 0 -249 125q-54 79 -54 180q0 57 17 120
q47 176 198 301q10 8 20 15q-31 63 -31 139q0 57 17 120q44 166 178 283t279 117h25q47 8 82 25q26 -66 26 -230v-45l-63 -50q-23 100 -73 100h-50q-21 0 -49.5 -51t-47.5 -124q-19 -69 -19 -119v-4q1 -52 22 -52q50 0 120 75h150z" />
    <glyph glyph-name="quotesingle" unicode="'" horiz-adv-x="350" 
d="M448 1251q-43 3 -66 36q-19 24 -19 55q0 16 5 33q14 52 60.5 88.5t98.5 36.5t79 -36q17 -24 17 -55q0 -16 -5 -34q-46 -175 -273 -275l-37 50q89 50 140 101z" />
    <glyph glyph-name="parenleft" unicode="(" horiz-adv-x="600" 
d="M852 1500h50l-54 -200h-50q-62 0 -153 -175.5t-157 -424.5q-67 -249 -70 -424v-16q0 -160 59 -160h50l-54 -200h-50q-186 0 -255 235q-30 102 -30 223q0 156 50 342q88 331 283 565.5t381 234.5z" />
    <glyph glyph-name="parenright" unicode=")" horiz-adv-x="600" 
d="M707 1266q30 -104 30 -225q0 -155 -49 -341q-89 -331 -284 -565.5t-381 -234.5h-50l54 200h50q62 0 153 175.5t158 424.5q66 249 69 425v15q0 160 -59 160h-50l54 200h50q186 0 255 -234z" />
    <glyph glyph-name="asterisk" unicode="*" 
d="M782 1238l167 50l55 -32l5 -95l-49 -63l-167 -50l59 -132l-29 -70l-97 -59l-67 12l-60 131l-130 -131l-73 -12l-65 59l7 70l131 132l-141 50l-15 63l57 95l71 32l141 -50l43 162l64 50h100l36 -50z" />
    <glyph glyph-name="plus" unicode="+" 
d="M424 650h-250l54 200h250l67 250h200l-67 -250h250l-54 -200h-250l-67 -250h-200z" />
    <glyph glyph-name="comma" unicode="," horiz-adv-x="350" 
d="M113 1q-43 3 -66 36q-18 24 -18 56q0 15 4 32q14 52 60.5 88.5t98.5 36.5t79 -36q17 -24 17 -55q0 -16 -5 -34q-46 -175 -273 -275l-37 50q89 50 140 101z" />
    <glyph glyph-name="hyphen" unicode="-" 
d="M228 850h700l-54 -200h-700z" />
    <glyph glyph-name="hyphen" unicode="&#xad;" 
d="M228 850h700l-54 -200h-700z" />
    <glyph glyph-name="period" unicode="." horiz-adv-x="350" 
d="M271 214q17 -24 17 -55q0 -16 -5 -34q-13 -52 -59.5 -88.5t-98.5 -36.5t-78 37q-18 24 -18 55q0 16 4 33q14 52 60.5 88.5t98.5 36.5t79 -36z" />
    <glyph glyph-name="slash" unicode="/" horiz-adv-x="900" 
d="M200 0h-200l975 1400h200z" />
    <glyph glyph-name="zero" unicode="0" horiz-adv-x="850" 
d="M960 1195q23 -85 23 -186q0 -140 -45 -309q-78 -290 -243 -495t-320 -205t-210 205q-23 85 -23 184q0 141 46 311q77 290 242 495t320 205t210 -205zM697 1200q-41 0 -110 -146.5t-124 -353.5q-56 -207 -65 -353q-2 -28 -2 -51q0 -96 33 -96q41 0 109.5 146.5
t124.5 353.5q55 207 65 354q2 28 2 51q0 95 -33 95z" />
    <glyph glyph-name="one" unicode="1" horiz-adv-x="600" 
d="M575 1400h300l-13 -50q-50 0 -64 -50l-321 -1200q-3 -11 -3 -19q0 -31 39 -31l-13 -50h-400l13 50q51 1 64 50l268 1000h-150l27 100q100 1 163 50.5t90 149.5z" />
    <glyph glyph-name="two" unicode="2" horiz-adv-x="825" 
d="M497 1200q-89 -50 -102 -100l-37 50q104 200 174 275q43 -25 243 -25q119 0 174 -110q31 -63 31 -140q0 -58 -18 -125q-42 -155 -155 -265q-336 -310 -472 -535l-6 -25h325q88 50 101 100l37 -50q-104 -200 -174 -275q-43 25 -93 25h-475l-37 50l19 70q41 151 265 430
q217 250 299 330q55 55 75 133q6 21 8 40l1 5q3 11 3 22q0 17 -7 34q-3 16 -9 31q-23 48 -70 54l1 1h-101z" />
    <glyph glyph-name="three" unicode="3" horiz-adv-x="900" 
d="M474 650l-36 50l26 100l64 50h100q21 0 49 51.5t48 123.5q19 71 19 121v3q-1 51 -22 51h-200q-50 0 -127 -100l-37 50q104 200 174 275q25 -17 68 -25h175q145 0 216 -117q44 -72 44 -163q0 -56 -17 -120q-40 -149 -152 -259q6 -7 12 -15q53 -80 53 -180q0 -57 -17 -121
q-47 -176 -197.5 -300.5t-316.5 -124.5h-225q-47 -8 -82 -25q-26 66 -26 230v45l63 50q24 -100 74 -100h250q41 0 86 58.5t67 141.5l7 25q17 63 17 113q0 25 -4 46q-12 66 -53 66h-100z" />
    <glyph glyph-name="four" unicode="4" horiz-adv-x="950" 
d="M925 1399q50 1 107 26q26 -66 26 -230v-45l-63 -50l-161 -600h100l-54 -200h-100l-53 -200q-3 -11 -3 -19q0 -31 39 -31l-13 -50h-400l13 50q50 0 64 50l53 200h-300l-46 200l591 900zM359 500h175l127 475z" />
    <glyph glyph-name="five" unicode="5" horiz-adv-x="750" 
d="M300 0h-100q-50 0 -107 -25q-27 65 -27 222q0 25 1 53l63 50q-2 -9 -2 -17q0 -42 51 -83h175q21 0 57 80.5t66 194.5q31 114 38 195q2 20 2 35q0 45 -16 45q-21 0 -56 -80l-10 -20h-211l-23 100l274 650h275q75 0 132 25q26 -66 26 -230v-45l-38 -50q-12 50 -48 100h-225
l-113 -258q36 8 71 8q145 0 210 -139q36 -77 36 -171q0 -77 -24 -165q-53 -197 -192.5 -336t-284.5 -139z" />
    <glyph glyph-name="six" unicode="6" horiz-adv-x="850" 
d="M576 750q-31 0 -74.5 -80.5t-74.5 -194.5q-30 -112 -30 -192q0 -1 1 -2q0 -81 31 -81t74.5 80.5t73.5 194.5q31 112 31 192v3q-1 80 -32 80zM194 725h1q81 268 240 463q174 212 340 212q50 0 75 -12q24 -5 47 -5q44 0 78 17q26 -66 26 -230v-45l-63 -50q-23 100 -73 100
h-150q-41 0 -109 -146q-20 -40 -37 -84q31 5 61 5q155 0 228 -139q41 -80 41 -180q0 -73 -22 -156q-53 -197 -200 -336t-302 -139t-228 139q-42 81 -42 181q0 72 22 155z" />
    <glyph glyph-name="seven" unicode="7" horiz-adv-x="825" 
d="M721 1200h-274q-89 -50 -102 -100l-37 50q104 200 174 275q43 -24 93 -25h475l23 -100q-415 -525 -598 -1200h2q-3 -11 -3 -19q0 -31 39 -31l-13 -50h-325q181 675 546 1200z" />
    <glyph glyph-name="eight" unicode="8" horiz-adv-x="900" 
d="M722 1200q-21 0 -49.5 -51t-47.5 -124q-19 -69 -19 -119v-4q1 -52 22 -52t49 51.5t48 123.5q19 71 19 121v3q-1 51 -22 51zM866 741q6 -7 12 -15q53 -80 53 -180q0 -57 -17 -121q-47 -176 -197.5 -300.5t-316.5 -124.5t-249 125q-54 79 -54 180q0 57 17 120
q47 176 198 301q10 8 20 15q-31 63 -31 139q0 57 17 120q44 166 178 283t279 117t216 -117q44 -72 44 -163q0 -56 -17 -120q-40 -149 -152 -259zM574 650q-41 0 -88 -66t-72 -159q-17 -63 -17 -113q0 -25 4 -46q12 -66 53 -66t88 66t72 159q17 63 17 113q0 25 -4 46
q-12 66 -53 66z" />
    <glyph glyph-name="nine" unicode="9" horiz-adv-x="850" 
d="M549 650q31 0 74.5 80.5t74.5 194.5q30 114 30 195q0 80 -31 80t-75 -80.5t-74 -194.5q-31 -112 -31 -192q0 -1 1 -2q0 -81 31 -81zM931 675h-1q-81 -268 -240 -463q-174 -212 -340 -212q-50 0 -75 12q-23 5 -46 5q-44 0 -79 -17q-26 66 -26 230v45l63 50
q23 -100 73 -100h150q41 0 109 146q20 40 37 84q-30 -5 -60 -5q-155 0 -228 139q-42 81 -42 181q0 72 22 155q53 197 200 336t302 139t228 -139q42 -81 42 -181q0 -72 -22 -155z" />
    <glyph glyph-name="colon" unicode=":" horiz-adv-x="350" 
d="M271 214q17 -24 17 -55q0 -16 -5 -34q-13 -52 -59.5 -88.5t-98.5 -36.5t-78 37q-18 24 -18 55q0 16 4 33q14 52 60.5 88.5t98.5 36.5t79 -36zM432 814q17 -24 17 -55q0 -16 -5 -34q-14 -52 -60 -88.5t-98 -36.5t-79 37q-18 24 -18 54q0 16 5 34q14 52 60.5 88.5
t98.5 36.5t79 -36z" />
    <glyph glyph-name="semicolon" unicode=";" horiz-adv-x="350" 
d="M113 1q-43 3 -66 36q-18 24 -18 56q0 15 4 32q14 52 60.5 88.5t98.5 36.5t79 -36q17 -24 17 -55q0 -16 -5 -34q-46 -175 -273 -275l-37 50q89 50 140 101zM432 814q17 -24 17 -55q0 -16 -5 -34q-14 -52 -60 -88.5t-98 -36.5t-79 37q-18 24 -18 54q0 16 5 34
q14 52 60.5 88.5t98.5 36.5t79 -36z" />
    <glyph glyph-name="semicolon" unicode="&#x37e;" horiz-adv-x="350" 
d="M113 1q-43 3 -66 36q-18 24 -18 56q0 15 4 32q14 52 60.5 88.5t98.5 36.5t79 -36q17 -24 17 -55q0 -16 -5 -34q-46 -175 -273 -275l-37 50q89 50 140 101zM432 814q17 -24 17 -55q0 -16 -5 -34q-14 -52 -60 -88.5t-98 -36.5t-79 37q-18 24 -18 54q0 16 5 34
q14 52 60.5 88.5t98.5 36.5t79 -36z" />
    <glyph glyph-name="less" unicode="&#x3c;" 
d="M434 750l413 -200l-53 -200l-620 300l54 200l780 300l-53 -200z" />
    <glyph glyph-name="equal" unicode="=" 
d="M174 650h700l-53 -200h-700zM281 1050h700l-53 -200h-700z" />
    <glyph glyph-name="greater" unicode="&#x3e;" 
d="M255 950l53 200l620 -300l-54 -200l-780 -300l53 200l521 200z" />
    <glyph glyph-name="question" unicode="?" horiz-adv-x="700" 
d="M421 214q17 -24 17 -55q0 -16 -5 -34q-13 -52 -59.5 -88.5t-98.5 -36.5t-78 37q-18 24 -18 55q0 16 4 33q14 52 60.5 88.5t98.5 36.5t79 -36zM229 350q109 350 317 530q55 55 75 133q6 21 8 40l1 5q3 11 3 22q0 17 -7 34q-3 16 -9 31q-23 48 -70 54l1 1h-101
q-89 -50 -102 -100l-37 50q104 200 174 275q43 -25 243 -25q119 0 180 -110q36 -66 36 -148q0 -55 -16 -117q-42 -155 -155 -265q-175 -127 -252 -334q3 -26 39 -26l-13 -50h-315z" />
    <glyph glyph-name="at" unicode="@" horiz-adv-x="1000" 
d="M791 900q-21 0 -47 -44t-43 -106q-14 -53 -14 -92v-14q3 -44 24 -44t47 44t43 106q14 53 14 92v14q-3 44 -24 44zM1101 750l-94 -350h-100l-42 57q-100 -57 -208 -57q-128 0 -201 79q0 -29 2 -54q10 -125 72 -125h150q50 0 127 100l37 -50q-104 -200 -174 -275
q-25 17 -69 17l-124 8q-186 0 -267 191q-43 100 -43 223q0 109 34 236q72 269 255 459.5t369 190.5t267 -190q43 -101 43 -224q0 -109 -34 -236zM605 1023q111 75 234 77q-13 100 -67 100q-62 0 -142 -132q-13 -22 -25 -45z" />
    <glyph glyph-name="A" unicode="A" horiz-adv-x="1000" 
d="M399 242l-72 -176q8 -16 36 -16l-13 -50h-350l13 50q31 0 74 39l511 1245q-8 16 -36 16l13 50h500l-13 -50q-28 0 -46 -16l-155 -1245q21 -39 52 -39l-13 -50h-350l13 50q28 0 46 16l22 176q-80 -17 -121 -17t-111 17zM656 444l75 605l-249 -605q39 -19 82 -19t92 19z
" />
    <glyph glyph-name="B" unicode="B" horiz-adv-x="1000" 
d="M673 1200l-95 -350h50q41 0 84 51.5t63 123.5q10 40 10 74q0 27 -6 50q-16 51 -57 51h-49zM454 200q83 0 159 66t101 159q9 35 9 67q0 51 -25 92q-41 66 -124 66h-51l-121 -450h52zM1 0l12 48q49 2 64 51l322 1202q2 10 2 17q0 32 -39 32l13 50h400q166 0 254 -110
q59 -75 59 -171q0 -45 -13 -94q-40 -148 -176 -255q27 -20 50 -44q79 -88 79 -201q0 -48 -14 -100q-47 -176 -227 -300.5t-387 -124.5h-399z" />
    <glyph glyph-name="C" unicode="C" horiz-adv-x="850" 
d="M782 1425q50 0 125 -12q23 -5 46 -5q44 0 79 17q26 -66 26 -230v-45l-63 -50q-23 100 -73 100h-200q-41 0 -110 -146.5t-124 -353.5q-56 -207 -65 -353q-2 -28 -2 -51q0 -96 33 -96h200q50 0 126 100l37 -50q-104 -200 -174 -275q-25 17 -69 17q-23 0 -49 -5
q-82 -12 -132 -12q-166 0 -226 213q-26 90 -26 196q0 144 47 316q80 300 254 512.5t340 212.5z" />
    <glyph glyph-name="D" unicode="D" horiz-adv-x="950" 
d="M504 200q41 0 109.5 146.5t124.5 353.5q55 207 65 354q2 28 2 51q0 95 -33 95l-100 1l-267 -1001h99zM450 0h-450l13 50q49 0 64 50l321 1200q3 11 3 19q0 31 -39 31l13 50h450q166 0 228 -205q28 -91 28 -200q0 -134 -43 -295q-78 -290 -250 -495t-338 -205z" />
    <glyph glyph-name="E" unicode="E" horiz-adv-x="850" 
d="M13 50q50 1 64 51l321 1199q3 11 3 20q0 31 -39 31l13 49h550q50 0 107 25q27 -65 27 -222q0 -25 -1 -53l-63 -50q2 9 2 18q0 41 -50 82h-275l-94 -350h200q50 0 113 50l43 -25l-67 -250l-56 -25q-37 50 -87 50l-200 1l-120 -451h275q88 50 101 100l37 -50
q-103 -200 -174 -275q-43 25 -93 25h-550z" />
    <glyph glyph-name="F" unicode="F" horiz-adv-x="850" 
d="M375 1400h550q50 0 107 25q27 -65 27 -222q0 -25 -1 -53l-63 -50q2 9 2 18q0 41 -50 82h-275l-94 -350h200q50 0 113 50l43 -25l-67 -250l-56 -25q-37 50 -87 50l-200 1l-147 -551q-3 -11 -3 -19q0 -31 39 -31l-13 -50h-400l13 50q50 1 64 51l321 1199q3 11 3 20
q0 31 -39 31z" />
    <glyph glyph-name="G" unicode="G" horiz-adv-x="900" 
d="M827 100q-3 -11 -3 -19q0 -31 39 -31l-13 -50h-250q-49 -8 -75 -13q-82 -12 -132 -12q-166 0 -226 213q-26 90 -26 196q0 144 47 316q80 300 254 512.5t340 212.5q50 0 125 -12q23 -5 46 -5q44 0 79 17q26 -66 26 -230v-45l-63 -50q-23 100 -73 100h-200
q-41 0 -110 -146.5t-124 -353.5q-56 -207 -65 -353q-2 -28 -2 -51q0 -96 33 -96h101l119 450q3 11 3 19q0 31 -39 31l14 50h399l-13 -50q-50 0 -64 -50z" />
    <glyph glyph-name="H" unicode="H" horiz-adv-x="1000" 
d="M524 650l-147 -551q-3 -11 -3 -19q0 -30 39 -30l-13 -50h-400l13 50q51 1 64 50l321 1200q3 11 3 19q0 31 -39 31l14 50h399l-13 -50q-50 0 -64 -50l-120 -450h200l120 450q3 11 3 19q0 31 -39 31l14 50h399l-13 -50q-50 0 -64 -50l-321 -1201q-3 -11 -3 -19
q0 -30 39 -30l-13 -50h-400l13 50q51 1 64 50l147 550h-200z" />
    <glyph glyph-name="I" unicode="I" horiz-adv-x="500" 
d="M376 1400h399l-13 -50q-50 0 -64 -50l-321 -1201q-3 -11 -3 -19q0 -30 39 -30l-13 -50h-400l13 50q51 1 64 50l321 1200q3 11 3 19q0 31 -39 31z" />
    <glyph glyph-name="J" unicode="J" horiz-adv-x="900" 
d="M344 350l1 1l-14 -51q-4 -14 -4 -26q0 -25 15 -44q22 -30 63 -30t78 29.5t48 70.5l268 1000q3 11 3 20q0 30 -39 31l13 49h399l-13 -49q-49 -1 -63 -51l-254 -950q-5 -18 -5 -29q0 -21 16 -21l-6 -25q-199 -275 -500 -275q-181 0 -272 101l-1 -1h-50l13 50q50 0 64 50
l140 150h100z" />
    <glyph glyph-name="K" unicode="K" horiz-adv-x="1000" 
d="M891 1277q3 18 3 32q0 41 -32 41l13 50h100l250 1v-1h50l-13 -50q-42 0 -95 -36l-276 -414q-28 -322 -28 -541q0 -155 14 -259q36 -50 86 -50l-13 -50h-350q-10 77 -10 192q0 174 23 435l-129 -127l-107 -400q-3 -11 -3 -19q0 -31 39 -31l-13 -50h-400l13 50q50 0 64 50
l321 1200q3 11 3 19q0 31 -39 31l13 50h400l-13 -50q-50 0 -64 -50l-134 -500z" />
    <glyph glyph-name="L" unicode="L" horiz-adv-x="850" 
d="M13 50q50 1 64 51l321 1199q3 11 3 20q0 31 -39 31l13 49h400l-13 -50q-50 0 -64 -50l-294 -1100h275q88 50 101 100l37 -50q-103 -200 -174 -275q-43 25 -93 25h-550z" />
    <glyph glyph-name="M" unicode="M" horiz-adv-x="1300" 
d="M680 300l-116 500l-187 -700q-3 -10 -3 -19q0 -31 39 -31l-13 -50h-400l13 50q50 0 65 51l320 1199q3 11 3 19q0 31 -39 31l14 50h350l-28 -100l116 -500l384 500l26 100h350l-12 -50q-50 0 -64 -50l-322 -1199q-3 -11 -3 -19q0 -32 40 -32l-13 -50h-400l13 50
q49 0 64 50l188 700z" />
    <glyph glyph-name="N" unicode="N" horiz-adv-x="1000" 
d="M802 942l96 358q3 11 3 19q0 31 -39 31l14 50h399l-13 -50q-50 0 -64 -50l-321 -1201q-3 -11 -3 -19q0 -30 39 -30l-13 -50h-400l13 50q51 1 64 50l80 300l-93 400l-187 -701q-3 -11 -3 -19q0 -30 39 -30l-13 -50h-400l13 50q51 1 64 50l321 1200q3 11 3 19q0 31 -39 31
l14 50h299z" />
    <glyph glyph-name="O" unicode="O" horiz-adv-x="900" 
d="M722 1200q-41 0 -110 -146.5t-124 -353.5q-56 -207 -65 -353q-2 -28 -2 -51q0 -96 33 -96q41 0 109.5 146.5t124.5 353.5q55 207 65 354q2 28 2 51q0 95 -33 95zM1008 1213q26 -92 26 -199q0 -143 -46 -314q-81 -300 -255 -512.5t-340 -212.5t-226 213q-26 90 -26 196
q0 144 47 316q80 300 254 512.5t340 212.5t226 -212z" />
    <glyph glyph-name="P" unicode="P" horiz-adv-x="900" 
d="M672 1200l-148 -550h50q41 0 92 80.5t82 194.5q24 91 24 161q0 17 -1 34q-8 80 -49 80h-50zM471 450l-94 -351q-3 -11 -3 -19q0 -30 39 -30l-13 -50h-400l13 50q51 1 64 50l321 1200q3 11 3 19q0 31 -39 31l14 50h399q166 0 246 -139q48 -84 48 -188q0 -69 -21 -148
q-53 -197 -207 -336t-320 -139h-50z" />
    <glyph glyph-name="Q" unicode="Q" horiz-adv-x="900" 
d="M474 676q-66 -247 -66 -358q0 -91 44 -91h19q118 74 197 371l68 254q26 154 26 236q0 96 -35 96h-19q-98 0 -234 -508zM502 -3q-55 -22 -109 -22q-166 0 -226 213q-26 90 -26 196q0 144 47 316q80 300 254 512.5t340 212.5t226 -212q26 -92 26 -199q0 -143 -46 -314
q-81 -300 -255 -512q-31 -39 -64 -71q27 -17 58 -17q50 0 63 50h50l-90 -150q-57 -100 -127 -100q-49 0 -121 97z" />
    <glyph glyph-name="R" unicode="R" horiz-adv-x="900" 
d="M673 1200l-122 -450h50q41 0 88 66t72 159q17 64 17 115q0 23 -3 44q-12 66 -53 66h-49zM577 551q-16 -1 -30 -1h-50l-120 -451q-3 -11 -3 -19q0 -30 39 -30l-13 -50h-400l13 50q51 1 64 50l321 1200q3 11 3 19q0 31 -39 31l14 50h399q166 0 250 -124q53 -80 53 -181
q0 -57 -17 -120q-47 -176 -197 -300q-14 -12 -28 -23q-6 -149 -6 -274q0 -168 11 -295q31 -33 72 -33l-13 -50h-300q-33 83 -33 289q0 112 10 262z" />
    <glyph glyph-name="S" unicode="S" horiz-adv-x="750" 
d="M297 808q-29 56 -29 131q0 62 20 136q39 145 147 247.5t222 102.5q75 0 150 -12q23 -5 46 -5q44 0 79 17q26 -66 26 -230v-45l-63 -50q-23 100 -73 100h-100q-100 0 -135 -36.5t-49 -88.5q-5 -18 -5 -35q0 -33 18 -65l178 -383q28 -56 28 -129q0 -63 -20 -138
q-39 -145 -147 -247.5t-222 -102.5q-75 0 -148 13q-25 4 -48 4q-44 0 -79 -17q-26 66 -26 230v45l63 50q24 -100 74 -100h100q100 0 134.5 36.5t48.5 88.5q5 18 5 35q0 33 -18 65z" />
    <glyph glyph-name="T" unicode="T" horiz-adv-x="850" 
d="M575 1400h400q50 0 107 25q26 -66 26 -230v-45l-63 -50q1 6 1 12q0 40 -49 88h-125l-295 -1100q-3 -11 -3 -19q0 -31 39 -31l-13 -50h-400l13 50q50 0 64 50l295 1100h-125q-89 -50 -102 -100l-37 50q104 200 174 275q43 -25 93 -25z" />
    <glyph glyph-name="U" unicode="U" horiz-adv-x="1000" 
d="M630 300l268 1000q3 11 3 20q0 30 -39 31l13 49h399l-13 -49q-49 -1 -63 -51l-254 -950q-5 -18 -5 -29q0 -21 16 -21l-6 -25q-199 -275 -500 -275q-299 0 -350 275l6 25q25 0 39 50l255 951q3 10 3 18q0 31 -41 31l15 50l399 1l-13 -50q-50 -1 -64 -51l-268 -1000
q-4 -14 -4 -26q0 -25 15 -44q22 -30 63 -30t78 29.5t48 70.5z" />
    <glyph glyph-name="V" unicode="V" horiz-adv-x="1000" 
d="M414 1311q-21 39 -52 39l13 50h350l-13 -50q-28 0 -46 -16l-122 -983l404 983q-8 16 -36 16l13 50h350l-13 -50q-31 0 -74 -39l-538 -1311h-400z" />
    <glyph glyph-name="W" unicode="W" horiz-adv-x="1350" 
d="M714 333l-214 -333h-250l164 1311q-21 39 -52 39l13 50h350l-13 -50q-28 0 -46 -16l-105 -845l294 461h50l46 -461l347 845q-8 16 -36 16l13 50h350l-13 -50q-31 0 -74 -39l-538 -1311h-250z" />
    <glyph glyph-name="X" unicode="X" horiz-adv-x="950" 
d="M564 517l-264 -517h-300l13 50q35 0 77 25l339 625l-4 625q-28 25 -63 25l13 50h300l-13 -517l263 517h300l-13 -50q-35 0 -77 -25l-338 -625l3 -625q28 -25 63 -25l-13 -50h-300z" />
    <glyph glyph-name="Y" unicode="Y" horiz-adv-x="1000" 
d="M426 1280q-22 70 -64 70l13 50h50l251 1v-1h49l-13 -50q-26 0 -42 -14l-7 -536l283 537q-8 13 -34 13l13 50h350l-13 -50q-42 0 -105 -72l-424 -778l-107 -400q-3 -11 -3 -19q0 -31 40 -31l-13 -50h-400l13 50q50 0 65 50l107 401z" />
    <glyph glyph-name="Z" unicode="Z" horiz-adv-x="825" 
d="M482 1425q41 -24 89 -24h4l450 -2l24 -99l-645 -1100h250q88 50 102 100l36 -50q-104 -200 -174 -275q-43 25 -93 25h-475l-23 100l670 1100h-250q-89 -50 -102 -100l-37 50q104 200 174 275z" />
    <glyph glyph-name="bracketleft" unicode="[" horiz-adv-x="600" 
d="M-13 -50q49 1 63 51l375 1399q3 11 3 20q0 31 -39 31l13 49h500l-54 -200h-150l-321 -1200h150l-54 -200h-500z" />
    <glyph glyph-name="backslash" unicode="\" horiz-adv-x="900" 
d="M375 1400h200l225 -1400h-200z" />
    <glyph glyph-name="bracketright" unicode="]" horiz-adv-x="600" 
d="M473 -100h-500l54 200h150l321 1200h-150l54 200h500l-13 -49q-50 0 -64 -51l-375 -1399q-2 -10 -2 -18q0 -32 39 -33z" />
    <glyph glyph-name="asciicircum" unicode="^" horiz-adv-x="650" 
d="M724 1675l-122 -175h-200l244 350h250l56 -350h-200z" />
    <glyph glyph-name="underscore" unicode="_" horiz-adv-x="850" 
d="M-27 -100h750l-53 -200h-750z" />
    <glyph glyph-name="grave" unicode="`" horiz-adv-x="550" 
d="M852 1500h-100l-283 250h300z" />
    <glyph glyph-name="a" unicode="a" 
d="M319 193l-58 -140q8 -13 30 -13l-11 -40h-280l11 40q25 0 58 31l410 996q-8 13 -30 13l11 40h400l-11 -40q-22 0 -36 -13l-124 -996q17 -31 42 -31l-11 -40h-280l11 40q22 0 36 13l18 140q-64 -13 -97 -13t-89 13zM524 355l61 484l-199 -484q30 -15 65 -15t73 15z" />
    <glyph glyph-name="b" unicode="b" 
d="M537 960l-75 -280h40q33 0 67.5 41t50.5 99q8 32 8 58q0 22 -5 41q-13 41 -46 41h-40zM363 160q66 0 127 53t81 127q8 28 8 53q0 41 -21 74q-33 53 -99 53h-41l-96 -360h41zM1 0l9 38q40 2 51 41l258 962q2 7 2 13q0 26 -32 26l11 40h320q133 0 203 -88q48 -60 48 -136
q0 -36 -11 -76q-32 -118 -141 -204q22 -16 40 -35q63 -70 63 -161q0 -38 -11 -80q-38 -141 -181.5 -240.5t-309.5 -99.5h-319z" />
    <glyph glyph-name="c" unicode="c" horiz-adv-x="680" 
d="M625 1140q40 0 100 -10q19 -4 38 -4q35 0 62 14q22 -55 22 -196v-24l-51 -40q-19 80 -59 80h-160q-33 0 -87.5 -117t-99.5 -283q-44 -166 -52 -283q-2 -23 -2 -41q0 -76 27 -76h160q40 0 101 80l30 -40q-83 -160 -139 -220q-21 14 -56 14q-19 0 -40 -4q-64 -10 -104 -10
q-133 0 -181 170q-21 73 -21 159q0 114 37 251q64 240 203 410t272 170z" />
    <glyph glyph-name="d" unicode="d" horiz-adv-x="760" 
d="M403 160q33 0 88 117t99 283q45 166 53 283q1 22 1 39q0 78 -27 78l-80 1l-213 -801h79zM360 0h-360l11 40q39 0 50 40l258 960q2 8 2 14q0 26 -32 26l11 40h360q133 0 183 -164q21 -73 21 -159q0 -108 -34 -237q-62 -232 -199.5 -396t-270.5 -164z" />
    <glyph glyph-name="e" unicode="e" horiz-adv-x="680" 
d="M11 40q39 1 51 41l257 959q2 9 2 16q0 25 -31 25l10 39h440q40 0 85 20q22 -54 22 -187v-33l-51 -40q2 7 2 14q0 33 -41 66h-220l-75 -280h160q40 0 91 40l35 -20l-54 -200l-45 -20q-30 40 -70 40l-159 1l-97 -361h220q71 40 81 80l30 -40q-82 -160 -139 -220
q-35 20 -75 20h-440z" />
    <glyph glyph-name="f" unicode="f" horiz-adv-x="679" 
d="M300 1120h440q40 0 85 20q22 -55 22 -196v-24l-51 -40q2 7 2 14q0 33 -41 66h-220l-75 -280h160q40 0 91 40l35 -20l-54 -200l-45 -20q-30 40 -70 40l-159 1l-119 -441q-2 -8 -2 -14q0 -26 32 -26l-11 -40h-320l11 40q39 0 50 40l258 960q2 9 2 16q0 25 -31 25z" />
    <glyph glyph-name="g" unicode="g" horiz-adv-x="720" 
d="M661 80q-2 -8 -2 -14q0 -26 32 -26l-11 -40h-200q-40 -6 -61 -10q-64 -10 -104 -10q-133 0 -181 170q-21 73 -21 159q0 114 37 251q64 240 203 410t272 170q40 0 100 -10q19 -4 38 -4q35 0 62 14q22 -55 22 -196v-24l-51 -40q-19 80 -59 80h-160q-33 0 -87.5 -117
t-99.5 -283q-44 -166 -52 -283q-2 -23 -2 -41q0 -76 27 -76h81l95 360q2 9 2 15q0 25 -31 25l12 40h319l-11 -40q-40 0 -51 -40z" />
    <glyph glyph-name="h" unicode="h" 
d="M419 520l-118 -441q-2 -8 -2 -14q0 -25 32 -25l-11 -40h-320l11 40q40 1 50 40l258 960q2 8 2 14q0 26 -32 26l12 40h319l-11 -40q-40 0 -50 -40l-97 -360h160l97 360q2 8 2 14q0 26 -32 26l12 40h319l-11 -40q-40 0 -50 -40l-258 -961q-2 -8 -2 -14q0 -25 32 -25
l-11 -40h-320l11 40q40 1 50 40l118 440h-160z" />
    <glyph glyph-name="i" unicode="i" horiz-adv-x="399" 
d="M300 1120h320l-11 -40q-40 0 -50 -40l-258 -960q-2 -8 -2 -14q0 -26 32 -26l-11 -40h-320l11 40q40 0 50 40l258 960q2 8 2 14q0 26 -32 26z" />
    <glyph glyph-name="j" unicode="j" horiz-adv-x="740" 
d="M275 280l1 1l-11 -41q-3 -11 -3 -21q0 -20 12 -35q17 -24 50 -24t62.5 23.5t38.5 56.5l215 800q2 8 2 15q0 25 -31 26l10 39h319l-10 -39q-40 -1 -50 -41l-204 -760q-4 -14 -4 -23q0 -17 13 -17l-5 -20q-159 -220 -400 -220q-145 0 -217 81l-2 -1h-40l11 40q40 0 51 40
l112 120h80z" />
    <glyph glyph-name="k" unicode="k" 
d="M713 1022q2 13 2 23q0 35 -26 35l11 40h80l200 1v-1h40l-11 -40q-34 0 -75 -29l-221 -331q-23 -260 -23 -436q0 -122 11 -204q30 -40 70 -40l-11 -40h-280q-8 61 -8 151q0 140 19 351l-104 -102l-86 -320q-2 -8 -2 -14q0 -26 32 -26l-11 -40h-320l11 40q40 0 50 40
l258 960q2 8 2 14q0 26 -32 26l11 40h320l-11 -40q-40 0 -50 -40l-108 -400z" />
    <glyph glyph-name="l" unicode="l" horiz-adv-x="680" 
d="M11 40q39 1 51 41l257 959q2 9 2 16q0 25 -31 25l10 39h320l-11 -40q-40 0 -50 -40l-236 -880h220q71 40 81 80l30 -40q-82 -160 -139 -220q-35 20 -75 20h-440z" />
    <glyph glyph-name="m" unicode="m" horiz-adv-x="1040" 
d="M544 240l-93 400l-150 -560q-2 -7 -2 -14q0 -26 32 -26l-11 -40h-320l11 40q40 0 52 41l256 959q2 8 2 14q0 26 -32 26l12 40h280l-22 -80l92 -400l308 400l20 80h280l-10 -40q-40 0 -50 -40l-258 -959q-2 -8 -2 -15q0 -26 32 -26l-11 -40h-320l11 40q39 0 50 40l151 560
z" />
    <glyph glyph-name="n" unicode="n" 
d="M642 753l77 287q2 8 2 14q0 26 -32 26l12 40h319l-11 -40q-40 0 -50 -40l-258 -961q-2 -8 -2 -14q0 -25 32 -25l-11 -40h-320l11 40q40 1 50 40l65 240l-75 320l-150 -561q-2 -8 -2 -14q0 -25 32 -25l-11 -40h-320l11 40q40 1 50 40l258 960q2 8 2 14q0 26 -32 26l12 40
h239z" />
    <glyph glyph-name="o" unicode="o" horiz-adv-x="680" 
d="M577 960q-33 0 -87.5 -117t-99.5 -283q-44 -166 -52 -283q-2 -23 -2 -41q0 -76 27 -76q33 0 88 117t99 283q45 166 53 283q1 22 1 39q0 78 -27 78zM806 970q21 -73 21 -159q0 -114 -37 -251q-64 -240 -203 -410t-272 -170t-181 170q-21 73 -21 159q0 114 37 251
q64 240 203 410t272 170t181 -170z" />
    <glyph glyph-name="p" unicode="p" horiz-adv-x="720" 
d="M537 960l-118 -440h40q33 0 74 64.5t65 155.5q20 72 20 128q0 14 -1 28q-7 64 -40 64h-40zM376 360l-75 -281q-2 -8 -2 -14q0 -25 32 -25l-11 -40h-320l11 40q40 1 50 40l258 960q2 8 2 14q0 26 -32 26l12 40h319q133 0 197 -111q38 -66 38 -150q0 -56 -17 -119
q-42 -158 -165.5 -269t-256.5 -111h-40z" />
    <glyph glyph-name="q" unicode="q" horiz-adv-x="740" 
d="M379 541q-53 -197 -53 -286q0 -73 36 -73h15q94 59 157 296l55 204q21 123 21 189q0 76 -28 76h-15q-79 0 -188 -406zM401 -2q-43 -18 -86 -18q-133 0 -181 170q-21 73 -21 159q0 114 37 251q64 240 203 410t272 170t181 -170q21 -73 21 -159q0 -114 -37 -251
q-64 -240 -204 -410q-24 -31 -51 -56q21 -14 46 -14q40 0 51 40h40l-72 -120q-45 -80 -101 -80q-39 0 -98 78z" />
    <glyph glyph-name="r" unicode="r" horiz-adv-x="720" 
d="M537 960l-96 -360h40q33 0 70.5 52.5t57.5 127.5q14 51 14 91q0 20 -3 37q-10 52 -43 52h-40zM461 441q-11 -1 -23 -1h-40l-97 -361q-2 -8 -2 -14q0 -25 32 -25l-11 -40h-320l11 40q40 1 50 40l258 960q2 8 2 14q0 26 -32 26l12 40h319q133 0 200 -99q43 -64 43 -144
q0 -46 -14 -97q-38 -141 -158 -240q-11 -10 -22 -18q-5 -119 -5 -220q0 -134 9 -236q25 -26 58 -26l-11 -40h-240q-27 67 -27 234q0 89 8 207z" />
    <glyph glyph-name="s" unicode="s" horiz-adv-x="600" 
d="M237 646q-23 45 -23 105q0 49 16 109q32 116 118 198t177 82q60 0 120 -10q19 -4 38 -4q35 0 62 14q22 -55 22 -196v-24l-51 -40q-19 80 -59 80h-80q-80 0 -107.5 -29t-39.5 -71q-4 -14 -4 -28q0 -27 15 -52l142 -306q23 -45 23 -105q0 -49 -16 -109
q-31 -116 -117.5 -198t-177.5 -82q-60 0 -120 10q-19 4 -38 4q-35 0 -62 -14q-21 53 -21 186v34l50 40q19 -80 59 -80h80q80 0 107.5 29t39.5 71q4 14 4 28q0 27 -15 52z" />
    <glyph glyph-name="t" unicode="t" horiz-adv-x="680" 
d="M460 1120h320q40 0 85 20q22 -55 22 -196v-24l-51 -40q1 5 1 9q0 32 -40 71h-100l-236 -880q-2 -8 -2 -14q0 -26 32 -26l-11 -40h-320l11 40q40 0 50 40l236 880h-100q-70 -40 -81 -80l-29 40q82 160 138 220q35 -20 75 -20z" />
    <glyph glyph-name="u" unicode="u" 
d="M504 240l215 800q2 8 2 15q0 25 -31 26l10 39h319l-10 -39q-40 -1 -50 -41l-204 -760q-4 -14 -4 -23q0 -17 13 -17l-5 -20q-159 -220 -400 -220q-239 0 -280 220l5 20q20 0 31 40l204 761q2 8 2 14q0 25 -33 25l13 40l319 1l-10 -40q-41 -1 -51 -41l-215 -800
q-3 -11 -3 -21q0 -20 12 -35q17 -24 50 -24t62.5 23.5t38.5 56.5z" />
    <glyph glyph-name="v" unicode="v" horiz-adv-x="820" 
d="M331 1049q-17 31 -42 31l11 40h280l-11 -40q-22 0 -36 -13l-98 -786l324 786q-8 13 -30 13l11 40h280l-11 -40q-25 0 -58 -31l-431 -1049h-320z" />
    <glyph glyph-name="w" unicode="w" horiz-adv-x="1100" 
d="M572 267l-172 -267h-200l131 1049q-17 31 -42 31l11 40h280l-11 -40q-22 0 -36 -13l-84 -676l235 369h40l37 -369l278 676q-8 13 -30 13l11 40h280l-11 -40q-25 0 -58 -31l-431 -1049h-200z" />
    <glyph glyph-name="x" unicode="x" horiz-adv-x="780" 
d="M451 414l-211 -414h-240l11 40q28 0 61 20l271 500l-3 500q-23 20 -51 20l11 40h240l-11 -414l211 414h240l-11 -40q-28 0 -61 -20l-271 -500l3 -500q23 -20 51 -20l-11 -40h-240z" />
    <glyph glyph-name="y" unicode="y" 
d="M341 1024q-19 56 -52 56l11 40h40l201 1v-1h39l-11 -40q-21 0 -34 -11l-5 -429l227 429q-7 11 -28 11l11 40h280l-11 -40q-34 0 -83 -58l-340 -622l-86 -320q-2 -8 -2 -14q0 -26 33 -26l-11 -40h-320l11 40q40 0 51 40l86 321z" />
    <glyph glyph-name="z" unicode="z" horiz-adv-x="680" 
d="M385 1140q35 -20 75 -20l360 -1l19 -79l-516 -880h200q71 40 81 80l30 -40q-83 -160 -139 -220q-35 20 -75 20h-380l-19 80l536 880h-200q-70 -40 -81 -80l-29 40q82 160 138 220z" />
    <glyph glyph-name="braceleft" unicode="{" horiz-adv-x="600" 
d="M200 375q17 64 17 115q0 23 -3 44q-12 66 -53 66l53 200q41 0 88.5 66t72.5 159l13 50q47 176 197.5 300.5t316.5 124.5l-54 -200q-41 0 -88 -66t-72 -159l-13 -50q-48 -176 -198 -300q-15 -13 -31 -25l18 -24q53 -80 53 -180q0 -57 -17 -121l-13 -50q-17 -63 -17 -113
q0 -25 4 -46q12 -66 53 -66l-54 -200q-166 0 -249 125q-54 79 -54 180q0 57 17 120z" />
    <glyph glyph-name="bar" unicode="|" horiz-adv-x="400" 
d="M702 1500l-429 -1600h-300l429 1600h300z" />
    <glyph glyph-name="braceright" unicode="}" horiz-adv-x="600" 
d="M487 325q-47 -176 -197.5 -300.5t-316.5 -124.5l54 200q41 0 88 66t72 159l13 50q48 176 198 301q15 12 32 24q-10 12 -19 25q-53 79 -53 179q0 57 17 121l13 50q17 63 17 113q0 25 -4 46q-12 66 -53 66l54 200q166 0 250 -124q53 -80 53 -181q0 -57 -17 -120l-13 -50
q-17 -64 -17 -115q0 -23 4 -44q11 -66 52 -66l-53 -200q-41 0 -88.5 -66t-72.5 -159z" />
    <glyph glyph-name="asciitilde" unicode="~" horiz-adv-x="700" 
d="M1109 1900l-53 -197q-70 -91 -121 -123.5t-92 -32.5q-44 0 -113 61.5t-111 61.5q-37 0 -87.5 -35.5t-131.5 -141.5l53 197q70 92 122 125t92 33q46 0 114.5 -62.5t108.5 -62.5q37 0 87.5 35.5t131.5 141.5z" />
    <glyph glyph-name="exclamdown" unicode="&#xa1;" horiz-adv-x="500" 
d="M430 1187q-18 23 -18 54q0 16 5 34q14 52 60 88.5t98 36.5t79 -36q18 -25 18 -55q0 -16 -5 -34q-14 -52 -60.5 -88.5t-98.5 -36.5t-78 37zM238 700q38 145 109.5 247.5t133.5 102.5t79 -102q4 -32 4 -66q0 -81 -26 -182l-161 -600q-3 -11 -3 -19q0 -31 39 -31l-13 -50
h-400l13 50q50 0 64 50z" />
    <glyph glyph-name="cent" unicode="&#xa2;" horiz-adv-x="850" 
d="M604 1135l44 165h200l-35 -133q13 -2 27 -4q23 -5 46 -5q44 0 79 17q26 -66 26 -230v-45l-63 -50q-23 100 -73 100h-200q-41 0 -94.5 -88t-86.5 -212q-28 -105 -28 -184q0 -14 1 -28q6 -88 47 -88h200q50 0 127 100l36 -50q-103 -200 -174 -275q-25 17 -69 17
q-23 0 -49 -5q-15 -2 -29 -4l-36 -133h-200l44 165q-94 31 -147 132q-46 86 -46 192q0 75 23 161q56 207 212 354q107 100 218 131z" />
    <glyph glyph-name="sterling" unicode="&#xa3;" horiz-adv-x="950" 
d="M281 850q80 236 224 413q174 212 340 212q50 0 75 -12q24 -5 47 -5q44 0 78 17q27 -68 27 -240v-35l-64 -50q-23 100 -73 100h-150q-41 0 -109 -146q-53 -110 -96 -254h348l-54 -200h-350l-120 -450h375q88 50 101 100l37 -50q-103 -200 -174 -275q-43 25 -93 25h-650
l13 50q50 1 64 51l147 549h-50l54 200h53z" />
    <glyph glyph-name="currency" unicode="&#xa4;" horiz-adv-x="950" 
d="M653 850q-21 0 -47.5 -44t-42.5 -106q-15 -54 -15 -94q0 -6 1 -12q2 -44 23 -44t47.5 44t43.5 106q14 54 14 94v12q-3 44 -24 44zM798 456l2 -381q28 -25 63 -25l-13 -50h-300l9 352q-20 -2 -40 -2t-40 2l-179 -352h-300l13 50q35 0 77 25l206 381q-47 66 -47 149
q0 45 14 95q38 143 164 244l-2 381q-28 25 -63 25l13 50h300l-9 -352q20 2 40 2t40 -2l179 352h300l-13 -50q-35 0 -77 -25l-206 -381q47 -66 47 -150q0 -45 -13 -94q-39 -143 -165 -244z" />
    <glyph glyph-name="yen" unicode="&#xa5;" horiz-adv-x="1000" 
d="M653 200l-27 -100q-3 -11 -3 -19q0 -31 40 -31l-13 -50h-400l13 50q50 0 65 50l27 100h-201l53 200h201l27 101v76h-180l53 200h124l-6 503q-22 70 -64 70l13 50h50l251 1v-1h49l-13 -50q-26 0 -42 -14l-7 -536l283 537q-8 13 -34 13l13 50h350l-13 -50q-42 0 -105 -72
l-273 -501h124l-53 -200h-180l-42 -77l-27 -100h201l-53 -200h-201z" />
    <glyph glyph-name="brokenbar" unicode="&#xa6;" horiz-adv-x="400" 
d="M214 800l188 700h300l-188 -700h-300zM461 600l-188 -700h-300l188 700h300z" />
    <glyph glyph-name="section" unicode="&#xa7;" 
d="M584 875q-21 0 -47 -44t-43 -106q-14 -54 -14 -94q0 -6 1 -12q2 -44 23 -44t47.5 44t42.5 106q14 53 14 92v14q-3 44 -24 44zM314 929q-19 48 -19 109q0 62 20 137q39 145 147 247.5t222 102.5q75 0 149 -12q24 -5 47 -5q44 0 79 17q26 -66 26 -230v-45l-63 -50
q-24 100 -74 100h-100q-100 0 -134.5 -36.5t-48.5 -88.5q-5 -18 -5 -35q0 -33 18 -65l2 -4q29 4 58 4q145 0 220 -102q49 -68 49 -154q0 -44 -13 -94q-35 -131 -145 -228l3 -5q28 -56 28 -129q0 -63 -20 -138q-39 -145 -146.5 -247.5t-221.5 -102.5q-75 0 -149 13
q-25 4 -48 4q-44 0 -78 -17q-27 68 -27 240v35l64 50q23 -100 73 -100h100q100 0 134.5 36.5t48.5 88.5q5 18 5 35q0 33 -18 65l-23 51q-12 -1 -24 -1q-145 0 -220 103q-49 67 -49 153q0 44 13 94q31 115 120 204z" />
    <glyph glyph-name="dieresis" unicode="&#xa8;" horiz-adv-x="650" 
d="M673 1714q17 -24 17 -55q0 -16 -5 -34q-14 -52 -60 -88.5t-98 -36.5t-79 37q-18 24 -18 54q0 16 5 34q14 52 60.5 88.5t98.5 36.5t79 -36zM973 1714q17 -24 17 -55q0 -16 -5 -34q-14 -52 -60 -88.5t-98 -36.5t-79 37q-18 24 -18 54q0 16 5 34q14 52 60.5 88.5t98.5 36.5
t79 -36z" />
    <glyph glyph-name="copyright" unicode="&#xa9;" horiz-adv-x="750" 
d="M679 1413q25 0 62 -6q12 -3 23 -3q22 0 40 9q13 -35 13 -125v-13l-32 -25q-12 50 -37 50h-100q-20 0 -54.5 -73t-62.5 -177q-27 -103 -32 -176q-1 -15 -1 -27q0 -47 16 -47h100q25 0 64 50l18 -25q-52 -100 -87 -137q-13 8 -35 8q-11 0 -24 -2q-41 -6 -66 -6
q-83 0 -113 106q-13 45 -13 99q0 71 23 157q41 150 128 256.5t170 106.5zM714 1450q-114 0 -226 -117t-157 -283q-21 -79 -21 -146q0 -75 26 -137q49 -117 163 -117t226 117t156 283q22 79 22 148q0 74 -26 135q-49 117 -163 117zM922 1368q32 -72 32 -159q0 -74 -23 -159
q-49 -186 -179.5 -318t-265.5 -132t-194 132q-33 72 -33 161q0 73 22 157q50 186 180.5 318t265.5 132t195 -132z" />
    <glyph glyph-name="ordfeminine" unicode="&#xaa;" horiz-adv-x="1650" 
d="M0 200v1100q0 200 200 200h1100q200 0 200 -200v-1100q0 -200 -200 -200h-1100q-200 0 -200 200zM1475 201v1099q0 175 -175 175h-1100q-174 0 -175 -175v-1100q1 -175 175 -175h1101q174 0 174 176z" />
    <glyph glyph-name="guillemotleft" unicode="&#xab;" horiz-adv-x="1400" 
d="M434 750l413 -200l-53 -200l-620 300l54 200l780 300l-53 -200zM1034 750l413 -200l-53 -200l-620 300l54 200l780 300l-53 -200z" />
    <glyph glyph-name="logicalnot" unicode="&#xac;" horiz-adv-x="1650" 
d="M0 200v1100q0 200 200 200h1100q200 0 200 -200v-1100q0 -200 -200 -200h-1100q-200 0 -200 200zM1475 201v1099q0 175 -175 175h-1100q-174 0 -175 -175v-1100q1 -175 175 -175h1101q174 0 174 176z" />
    <glyph glyph-name="registered" unicode="&#xae;" horiz-adv-x="450" 
d="M649 1300l-61 -225h25q21 0 44.5 33t35.5 80q9 31 9 57q0 12 -2 22q-6 33 -27 33h-24zM731 774q107 115 150 276q22 79 22 148q0 74 -26 135q-49 117 -163 117q-75 0 -149 -50h135q83 0 125 -62q27 -39 27 -89q0 -29 -9 -61q-23 -88 -98 -150l-14 -12q-3 -74 -3 -137
t3 -115zM348 742q2 4 3 8l161 600q1 4 1 8l-25 -25q-112 -117 -157 -283q-21 -78 -21 -145q0 -76 27 -138q5 -13 11 -25zM648 700h-35q-16 41 -16 141q0 58 5 135q-9 -1 -16 -1h-25l-60 -225q-2 -5 -2 -10q0 -15 20 -15l-6 -25h-135q46 -50 121 -50t149 50zM749 730
q9 -5 20 -5l-6 -25h-45q-114 -100 -232 -100q-135 0 -194 132q-33 72 -33 161q0 73 22 157q50 186 180.5 318t265.5 132t195 -132q32 -72 32 -159q0 -74 -23 -159q-49 -186 -180 -318z" />
    <glyph glyph-name="macron" unicode="&#xaf;" horiz-adv-x="1650" 
d="M0 200v1100q0 200 200 200h1100q200 0 200 -200v-1100q0 -200 -200 -200h-1100q-200 0 -200 200zM1475 201v1099q0 175 -175 175h-1100q-174 0 -175 -175v-1100q1 -175 175 -175h1101q174 0 174 176z" />
    <glyph glyph-name="degree" unicode="&#xb0;" horiz-adv-x="674" 
d="M707 1372q-86 0 -164 -61t-101 -148q-8 -30 -8 -57q0 -51 29 -90q45 -60 132 -60t163 60t100 147q8 30 8 57q0 51 -29 91q-44 61 -130 61zM725 1442q115 0 175 -81q39 -54 39 -122q0 -36 -11 -75q-31 -114 -135 -196t-219 -82q-117 0 -175 81q-38 53 -38 120q0 37 11 77
q31 116 134 197t219 81z" />
    <glyph glyph-name="plusminus" unicode="&#xb1;" horiz-adv-x="1650" 
d="M0 200v1100q0 200 200 200h1100q200 0 200 -200v-1100q0 -200 -200 -200h-1100q-200 0 -200 200zM1475 201v1099q0 175 -175 175h-1100q-174 0 -175 -175v-1100q1 -175 175 -175h1101q174 0 174 176z" />
    <glyph glyph-name="uni00B2" unicode="&#xb2;" horiz-adv-x="1650" 
d="M0 200v1100q0 200 200 200h1100q200 0 200 -200v-1100q0 -200 -200 -200h-1100q-200 0 -200 200zM1475 201v1099q0 175 -175 175h-1100q-174 0 -175 -175v-1100q1 -175 175 -175h1101q174 0 174 176z" />
    <glyph glyph-name="uni00B3" unicode="&#xb3;" horiz-adv-x="1650" 
d="M0 200v1100q0 200 200 200h1100q200 0 200 -200v-1100q0 -200 -200 -200h-1100q-200 0 -200 200zM1475 201v1099q0 175 -175 175h-1100q-174 0 -175 -175v-1100q1 -175 175 -175h1101q174 0 174 176z" />
    <glyph glyph-name="acute" unicode="&#xb4;" horiz-adv-x="550" 
d="M619 1750h300l-417 -250h-100z" />
    <glyph glyph-name="mu" unicode="&#xb5;" horiz-adv-x="1000" 
d="M430 299q-4 -13 -4 -25q0 -24 16 -44q21 -30 62 -30t78 29.5t48 70.5l268 1000q3 11 3 20q0 30 -39 31l13 49h399l-13 -49q-49 -1 -63 -51l-254 -950q-5 -18 -5 -29q0 -21 16 -21l-6 -25q-199 -275 -500 -275q-52 0 -97 8l-15 -58q-3 -11 -3 -19q0 -31 39 -31l-13 -50
h-400l13 50q50 0 64 50l362 1351q3 10 3 18q0 31 -41 31l15 50l399 1l-13 -50q-50 -1 -64 -51z" />
    <glyph glyph-name="paragraph" unicode="&#xb6;" horiz-adv-x="1024" 
d="M1314 1435l-19 -70h-127l-366 -1365h-82l366 1365h-166l-366 -1365h-84l198 738q-172 8 -248 103q-50 61 -50 148q0 45 14 97q42 157 175.5 253t311.5 96h443z" />
    <glyph glyph-name="periodcentered" unicode="&#xb7;" horiz-adv-x="350" 
d="M432 814q17 -24 17 -55q0 -16 -5 -34q-14 -52 -60 -88.5t-98 -36.5t-79 37q-18 24 -18 54q0 16 5 34q14 52 60.5 88.5t98.5 36.5t79 -36z" />
    <glyph glyph-name="periodcentered" unicode="&#x2219;" horiz-adv-x="350" 
d="M432 814q17 -24 17 -55q0 -16 -5 -34q-14 -52 -60 -88.5t-98 -36.5t-79 37q-18 24 -18 54q0 16 5 34q14 52 60.5 88.5t98.5 36.5t79 -36z" />
    <glyph glyph-name="cedilla" unicode="&#xb8;" horiz-adv-x="500" 
d="M150 0l54 200q104 0 157 -73q35 -48 35 -110q0 -32 -9 -67q-28 -104 -120.5 -177t-196.5 -73h-100l-37 50l27 100l63 50h100q21 0 39.5 14.5t24.5 35.5q2 7 2 13q0 13 -7 23q-11 14 -32 14z" />
    <glyph glyph-name="uni00B9" unicode="&#xb9;" horiz-adv-x="1650" 
d="M0 200v1100q0 200 200 200h1100q200 0 200 -200v-1100q0 -200 -200 -200h-1100q-200 0 -200 200zM1475 201v1099q0 175 -175 175h-1100q-174 0 -175 -175v-1100q1 -175 175 -175h1101q174 0 174 176z" />
    <glyph glyph-name="ordmasculine" unicode="&#xba;" horiz-adv-x="1650" 
d="M0 200v1100q0 200 200 200h1100q200 0 200 -200v-1100q0 -200 -200 -200h-1100q-200 0 -200 200zM1475 201v1099q0 175 -175 175h-1100q-174 0 -175 -175v-1100q1 -175 175 -175h1101q174 0 174 176z" />
    <glyph glyph-name="guillemotright" unicode="&#xbb;" horiz-adv-x="1400" 
d="M855 950l53 200l620 -300l-54 -200l-780 -300l53 200l521 200zM255 950l53 200l620 -300l-54 -200l-780 -300l53 200l521 200z" />
    <glyph glyph-name="onequarter" unicode="&#xbc;" horiz-adv-x="1650" 
d="M0 200v1100q0 200 200 200h1100q200 0 200 -200v-1100q0 -200 -200 -200h-1100q-200 0 -200 200zM1475 201v1099q0 175 -175 175h-1100q-174 0 -175 -175v-1100q1 -175 175 -175h1101q174 0 174 176z" />
    <glyph glyph-name="onehalf" unicode="&#xbd;" horiz-adv-x="1650" 
d="M0 200v1100q0 200 200 200h1100q200 0 200 -200v-1100q0 -200 -200 -200h-1100q-200 0 -200 200zM1475 201v1099q0 175 -175 175h-1100q-174 0 -175 -175v-1100q1 -175 175 -175h1101q174 0 174 176z" />
    <glyph glyph-name="threequarters" unicode="&#xbe;" horiz-adv-x="1650" 
d="M0 200v1100q0 200 200 200h1100q200 0 200 -200v-1100q0 -200 -200 -200h-1100q-200 0 -200 200zM1475 201v1099q0 175 -175 175h-1100q-174 0 -175 -175v-1100q1 -175 175 -175h1101q174 0 174 176z" />
    <glyph glyph-name="questiondown" unicode="&#xbf;" horiz-adv-x="700" 
d="M605 1187q-18 23 -18 54q0 16 5 34q14 52 60 88.5t98 36.5t79 -36q18 -25 18 -55q0 -16 -5 -34q-14 -52 -60.5 -88.5t-98.5 -36.5t-78 37zM796 1050q-108 -350 -317 -530q-54 -55 -75 -133q-6 -21 -8 -40l-1 -5q-3 -11 -3 -22q0 -17 7 -34q3 -16 9 -31q23 -48 70 -54
q0 -1 1 -1h100q88 50 101 100l37 -50q-104 -200 -174 -275q-43 25 -243 25q-119 0 -180 110q-36 66 -36 148q0 55 16 117q42 155 155 265q176 127 252 334q-3 26 -39 26l13 50h315z" />
    <glyph glyph-name="Agrave" unicode="&#xc0;" horiz-adv-x="1000" 
d="M399 242l-72 -176q8 -16 36 -16l-13 -50h-350l13 50q31 0 74 39l511 1245q-8 16 -36 16l13 50h500l-13 -50q-28 0 -46 -16l-155 -1245q21 -39 52 -39l-13 -50h-350l13 50q28 0 46 16l22 176q-80 -17 -121 -17t-111 17zM656 444l75 605l-249 -605q39 -19 82 -19t92 19z
M1078 1500h-100l-283 250h300z" />
    <glyph glyph-name="Aacute" unicode="&#xc1;" horiz-adv-x="1000" 
d="M399 242l-72 -176q8 -16 36 -16l-13 -50h-350l13 50q31 0 74 39l511 1245q-8 16 -36 16l13 50h500l-13 -50q-28 0 -46 -16l-155 -1245q21 -39 52 -39l-13 -50h-350l13 50q28 0 46 16l22 176q-80 -17 -121 -17t-111 17zM656 444l75 605l-249 -605q39 -19 82 -19t92 19z
M845 1750h300l-417 -250h-100z" />
    <glyph glyph-name="Acircumflex" unicode="&#xc2;" horiz-adv-x="1000" 
d="M399 242l-72 -176q8 -16 36 -16l-13 -50h-350l13 50q31 0 74 39l511 1245q-8 16 -36 16l13 50h500l-13 -50q-28 0 -46 -16l-155 -1245q21 -39 52 -39l-13 -50h-350l13 50q28 0 46 16l22 176q-80 -17 -121 -17t-111 17zM656 444l75 605l-249 -605q39 -19 82 -19t92 19z
M899 1675l-122 -175h-200l244 350h250l56 -350h-200z" />
    <glyph glyph-name="Atilde" unicode="&#xc3;" horiz-adv-x="1000" 
d="M399 242l-72 -176q8 -16 36 -16l-13 -50h-350l13 50q31 0 74 39l511 1245q-8 16 -36 16l13 50h500l-13 -50q-28 0 -46 -16l-155 -1245q21 -39 52 -39l-13 -50h-350l13 50q28 0 46 16l22 176q-80 -17 -121 -17t-111 17zM656 444l75 605l-249 -605q39 -19 82 -19t92 19z
M1261 1907l-53 -197q-70 -91 -122.5 -123.5t-94.5 -32.5q-44 0 -113.5 61.5t-112.5 61.5q-38 0 -88.5 -35.5t-132.5 -141.5l53 197q71 92 123 125t93 33q47 0 116.5 -62.5t109.5 -62.5q39 0 89.5 35.5t132.5 141.5z" />
    <glyph glyph-name="Adieresis" unicode="&#xc4;" horiz-adv-x="1000" 
d="M399 242l-72 -176q8 -16 36 -16l-13 -50h-350l13 50q31 0 74 39l511 1245q-8 16 -36 16l13 50h500l-13 -50q-28 0 -46 -16l-155 -1245q21 -39 52 -39l-13 -50h-350l13 50q28 0 46 16l22 176q-80 -17 -121 -17t-111 17zM656 444l75 605l-249 -605q39 -19 82 -19t92 19z
M848 1714q17 -24 17 -55q0 -16 -5 -34q-14 -52 -60 -88.5t-98 -36.5t-79 37q-18 24 -18 54q0 16 5 34q14 52 60.5 88.5t98.5 36.5t79 -36zM1148 1714q17 -24 17 -55q0 -16 -5 -34q-14 -52 -60 -88.5t-98 -36.5t-79 37q-18 24 -18 54q0 16 5 34q14 52 60.5 88.5t98.5 36.5
t79 -36z" />
    <glyph glyph-name="Aring" unicode="&#xc5;" horiz-adv-x="1000" 
d="M399 242l-72 -176q8 -16 36 -16l-13 -50h-350l13 50q31 0 74 39l511 1245q-8 16 -36 16l13 50h500l-13 -50q-28 0 -46 -16l-155 -1245q21 -39 52 -39l-13 -50h-350l13 50q28 0 46 16l22 176q-80 -17 -121 -17t-111 17zM656 444l75 605l-249 -605q39 -19 82 -19t92 19z
M1097 1884q25 -41 25 -92q0 -32 -10 -67q-25 -93 -101 -159t-159 -66t-124 66q-25 41 -25 92q0 32 9 67q25 93 101.5 159t159.5 66t124 -66zM946 1850q-21 0 -45.5 -36.5t-38.5 -88.5q-10 -38 -10 -68q0 -11 1 -20q5 -37 26 -37t45 36.5t38 88.5q11 39 11 70q0 10 -1 19
q-5 36 -26 36z" />
    <glyph glyph-name="AE" unicode="&#xc6;" horiz-adv-x="1325" 
d="M656 444l75 605l-249 -605q39 -19 82 -19t92 19zM614 238q-67 -13 -104 -13q-41 0 -111 17l-72 -176q8 -16 36 -16l-13 -50h-350l13 50q31 0 74 39l511 1245q-8 16 -36 16l13 50h850q50 0 107 25q27 -65 27 -222q0 -25 -1 -53l-63 -50q2 9 2 18q0 41 -50 82h-275
l-94 -350h200q50 0 113 50l43 -25l-67 -250l-56 -25q-37 50 -87 50l-200 1l-120 -451h275q88 50 101 100l37 -50q-103 -200 -174 -275q-43 25 -93 25h-550l13 50q50 1 64 51z" />
    <glyph glyph-name="Ccedilla" unicode="&#xc7;" horiz-adv-x="850" 
d="M387 -25q-161 4 -220 213q-26 90 -26 196q0 144 47 316q80 300 254 512.5t340 212.5q50 0 125 -12q23 -5 46 -5q44 0 79 17q26 -66 26 -230v-45l-63 -50q-23 100 -73 100h-200q-41 0 -110 -146.5t-124 -353.5q-56 -207 -65 -353q-2 -28 -2 -51q0 -96 33 -96h200
q50 0 126 100l37 -50q-104 -200 -174 -275q-19 13 -48 16q-3 -20 -8 -41q-28 -104 -120.5 -177t-196.5 -73h-100l-37 50l27 100l63 50h100q21 0 39.5 14.5t24.5 35.5q2 7 2 13q0 7 -2 12z" />
    <glyph glyph-name="Egrave" unicode="&#xc8;" horiz-adv-x="850" 
d="M13 50q50 1 64 51l321 1199q3 11 3 20q0 31 -39 31l13 49h550q50 0 107 25q27 -65 27 -222q0 -25 -1 -53l-63 -50q2 9 2 18q0 41 -50 82h-275l-94 -350h200q50 0 113 50l43 -25l-67 -250l-56 -25q-37 50 -87 50l-200 1l-120 -451h275q88 50 101 100l37 -50
q-103 -200 -174 -275q-43 25 -93 25h-550zM1002 1500h-100l-283 250h300z" />
    <glyph glyph-name="Eacute" unicode="&#xc9;" horiz-adv-x="850" 
d="M13 50q50 1 64 51l321 1199q3 11 3 20q0 31 -39 31l13 49h550q50 0 107 25q27 -65 27 -222q0 -25 -1 -53l-63 -50q2 9 2 18q0 41 -50 82h-275l-94 -350h200q50 0 113 50l43 -25l-67 -250l-56 -25q-37 50 -87 50l-200 1l-120 -451h275q88 50 101 100l37 -50
q-103 -200 -174 -275q-43 25 -93 25h-550zM769 1750h300l-417 -250h-100z" />
    <glyph glyph-name="Ecircumflex" unicode="&#xca;" horiz-adv-x="850" 
d="M13 50q50 1 64 51l321 1199q3 11 3 20q0 31 -39 31l13 49h550q50 0 107 25q27 -65 27 -222q0 -25 -1 -53l-63 -50q2 9 2 18q0 41 -50 82h-275l-94 -350h200q50 0 113 50l43 -25l-67 -250l-56 -25q-37 50 -87 50l-200 1l-120 -451h275q88 50 101 100l37 -50
q-103 -200 -174 -275q-43 25 -93 25h-550zM824 1675l-122 -175h-200l244 350h250l56 -350h-200z" />
    <glyph glyph-name="Edieresis" unicode="&#xcb;" horiz-adv-x="850" 
d="M13 50q50 1 64 51l321 1199q3 11 3 20q0 31 -39 31l13 49h550q50 0 107 25q27 -65 27 -222q0 -25 -1 -53l-63 -50q2 9 2 18q0 41 -50 82h-275l-94 -350h200q50 0 113 50l43 -25l-67 -250l-56 -25q-37 50 -87 50l-200 1l-120 -451h275q88 50 101 100l37 -50
q-103 -200 -174 -275q-43 25 -93 25h-550zM773 1714q17 -24 17 -55q0 -16 -5 -34q-14 -52 -60 -88.5t-98 -36.5t-79 37q-18 24 -18 54q0 16 5 34q14 52 60.5 88.5t98.5 36.5t79 -36zM1073 1714q17 -24 17 -55q0 -16 -5 -34q-14 -52 -60 -88.5t-98 -36.5t-79 37
q-18 24 -18 54q0 16 5 34q14 52 60.5 88.5t98.5 36.5t79 -36z" />
    <glyph glyph-name="Igrave" unicode="&#xcc;" horiz-adv-x="500" 
d="M376 1400h399l-13 -50q-50 0 -64 -50l-321 -1201q-3 -11 -3 -19q0 -30 39 -30l-13 -50h-400l13 50q51 1 64 50l321 1200q3 11 3 19q0 31 -39 31zM802 1500h-100l-283 250h300z" />
    <glyph glyph-name="Iacute" unicode="&#xcd;" horiz-adv-x="500" 
d="M376 1400h399l-13 -50q-50 0 -64 -50l-321 -1201q-3 -11 -3 -19q0 -30 39 -30l-13 -50h-400l13 50q51 1 64 50l321 1200q3 11 3 19q0 31 -39 31zM619 1750h300l-417 -250h-100z" />
    <glyph glyph-name="Icircumflex" unicode="&#xce;" horiz-adv-x="500" 
d="M376 1400h399l-13 -50q-50 0 -64 -50l-321 -1201q-3 -11 -3 -19q0 -30 39 -30l-13 -50h-400l13 50q51 1 64 50l321 1200q3 11 3 19q0 31 -39 31zM649 1675l-122 -175h-200l244 350h250l56 -350h-200z" />
    <glyph glyph-name="Idieresis" unicode="&#xcf;" horiz-adv-x="500" 
d="M376 1400h399l-13 -50q-50 0 -64 -50l-321 -1201q-3 -11 -3 -19q0 -30 39 -30l-13 -50h-400l13 50q51 1 64 50l321 1200q3 11 3 19q0 31 -39 31zM597 1714q17 -24 17 -55q0 -16 -5 -34q-14 -52 -60 -88.5t-98 -36.5t-79 37q-18 24 -18 54q0 16 5 34q14 52 60.5 88.5
t98.5 36.5t79 -36zM897 1714q17 -24 17 -55q0 -16 -5 -34q-14 -52 -60 -88.5t-98 -36.5t-79 37q-18 24 -18 54q0 16 5 34q14 52 60.5 88.5t98.5 36.5t79 -36z" />
    <glyph glyph-name="Eth" unicode="&#xd0;" horiz-adv-x="950" 
d="M318 1000l80 300q3 11 3 19q0 31 -39 31l13 50h450q166 0 228 -205q28 -91 28 -200q0 -134 -43 -295q-78 -290 -250 -495t-338 -205h-450l13 50q49 0 64 50l187 700h-50l54 200h50zM618 1000h100l-54 -200h-100l-159 -600h99q41 0 109.5 146.5t124.5 353.5q55 207 65 354
q2 28 2 51q0 95 -33 95l-100 1z" />
    <glyph glyph-name="Ntilde" unicode="&#xd1;" horiz-adv-x="1000" 
d="M802 942l96 358q3 11 3 19q0 31 -39 31l14 50h399l-13 -50q-50 0 -64 -50l-321 -1201q-3 -11 -3 -19q0 -30 39 -30l-13 -50h-400l13 50q51 1 64 50l80 300l-93 400l-187 -701q-3 -11 -3 -19q0 -30 39 -30l-13 -50h-400l13 50q51 1 64 50l321 1200q3 11 3 19q0 31 -39 31
l14 50h299zM1261 1907l-53 -197q-70 -91 -122.5 -123.5t-94.5 -32.5q-44 0 -113.5 61.5t-112.5 61.5q-38 0 -88.5 -35.5t-132.5 -141.5l53 197q71 92 123 125t93 33q47 0 116.5 -62.5t109.5 -62.5q39 0 89.5 35.5t132.5 141.5z" />
    <glyph glyph-name="Ograve" unicode="&#xd2;" horiz-adv-x="900" 
d="M722 1200q-41 0 -110 -146.5t-124 -353.5q-56 -207 -65 -353q-2 -28 -2 -51q0 -96 33 -96q41 0 109.5 146.5t124.5 353.5q55 207 65 354q2 28 2 51q0 95 -33 95zM1008 1213q26 -92 26 -199q0 -143 -46 -314q-81 -300 -255 -512.5t-340 -212.5t-226 213q-26 90 -26 196
q0 144 47 316q80 300 254 512.5t340 212.5t226 -212zM1027 1500h-100l-283 250h300z" />
    <glyph glyph-name="Oacute" unicode="&#xd3;" horiz-adv-x="900" 
d="M722 1200q-41 0 -110 -146.5t-124 -353.5q-56 -207 -65 -353q-2 -28 -2 -51q0 -96 33 -96q41 0 109.5 146.5t124.5 353.5q55 207 65 354q2 28 2 51q0 95 -33 95zM1008 1213q26 -92 26 -199q0 -143 -46 -314q-81 -300 -255 -512.5t-340 -212.5t-226 213q-26 90 -26 196
q0 144 47 316q80 300 254 512.5t340 212.5t226 -212zM794 1750h300l-417 -250h-100z" />
    <glyph glyph-name="Ocircumflex" unicode="&#xd4;" horiz-adv-x="900" 
d="M722 1200q-41 0 -110 -146.5t-124 -353.5q-56 -207 -65 -353q-2 -28 -2 -51q0 -96 33 -96q41 0 109.5 146.5t124.5 353.5q55 207 65 354q2 28 2 51q0 95 -33 95zM1008 1213q26 -92 26 -199q0 -143 -46 -314q-81 -300 -255 -512.5t-340 -212.5t-226 213q-26 90 -26 196
q0 144 47 316q80 300 254 512.5t340 212.5t226 -212zM849 1675l-122 -175h-200l244 350h250l56 -350h-200z" />
    <glyph glyph-name="Otilde" unicode="&#xd5;" horiz-adv-x="900" 
d="M722 1200q-41 0 -110 -146.5t-124 -353.5q-56 -207 -65 -353q-2 -28 -2 -51q0 -96 33 -96q41 0 109.5 146.5t124.5 353.5q55 207 65 354q2 28 2 51q0 95 -33 95zM1008 1213q26 -92 26 -199q0 -143 -46 -314q-81 -300 -255 -512.5t-340 -212.5t-226 213q-26 90 -26 196
q0 144 47 316q80 300 254 512.5t340 212.5t226 -212zM1219 1907l-53 -197q-70 -91 -122.5 -123.5t-94.5 -32.5q-44 0 -113.5 61.5t-112.5 61.5q-38 0 -88.5 -35.5t-132.5 -141.5l53 197q71 92 123 125t93 33q47 0 116.5 -62.5t109.5 -62.5q39 0 89.5 35.5t132.5 141.5z" />
    <glyph glyph-name="Odieresis" unicode="&#xd6;" horiz-adv-x="900" 
d="M722 1200q-41 0 -110 -146.5t-124 -353.5q-56 -207 -65 -353q-2 -28 -2 -51q0 -96 33 -96q41 0 109.5 146.5t124.5 353.5q55 207 65 354q2 28 2 51q0 95 -33 95zM1008 1213q26 -92 26 -199q0 -143 -46 -314q-81 -300 -255 -512.5t-340 -212.5t-226 213q-26 90 -26 196
q0 144 47 316q80 300 254 512.5t340 212.5t226 -212zM798 1714q17 -24 17 -55q0 -16 -5 -34q-14 -52 -60 -88.5t-98 -36.5t-79 37q-18 24 -18 54q0 16 5 34q14 52 60.5 88.5t98.5 36.5t79 -36zM1098 1714q17 -24 17 -55q0 -16 -5 -34q-14 -52 -60 -88.5t-98 -36.5t-79 37
q-18 24 -18 54q0 16 5 34q14 52 60.5 88.5t98.5 36.5t79 -36z" />
    <glyph glyph-name="multiply" unicode="&#xd7;" 
d="M426 750l-131 350h250l58 -156l142 156h250l-319 -350l131 -350h-250l-58 156l-142 -156h-250z" />
    <glyph glyph-name="Oslash" unicode="&#xd8;" horiz-adv-x="900" 
d="M488 700l266 383q1 14 1 26q0 91 -33 91q-41 0 -110 -146.5t-124 -353.5zM234 49l-34 -49h-200l158 226q-16 75 -16 160q0 143 46 314q80 300 254 512.5t340 212.5q98 0 159 -74l34 49h200l-157 -226q16 -75 16 -159q0 -143 -46 -315q-81 -300 -255 -512.5t-340 -212.5
q-98 0 -159 74zM688 700l-267 -383v-22q0 -95 33 -95q41 0 109.5 146.5t124.5 353.5z" />
    <glyph glyph-name="Ugrave" unicode="&#xd9;" horiz-adv-x="1000" 
d="M630 300l268 1000q3 11 3 20q0 30 -39 31l13 49h399l-13 -49q-49 -1 -63 -51l-254 -950q-5 -18 -5 -29q0 -21 16 -21l-6 -25q-199 -275 -500 -275q-299 0 -350 275l6 25q25 0 39 50l255 951q3 10 3 18q0 31 -41 31l15 50l399 1l-13 -50q-50 -1 -64 -51l-268 -1000
q-4 -14 -4 -26q0 -25 15 -44q22 -30 63 -30t78 29.5t48 70.5zM1077 1500h-100l-283 250h300z" />
    <glyph glyph-name="Uacute" unicode="&#xda;" horiz-adv-x="1000" 
d="M630 300l268 1000q3 11 3 20q0 30 -39 31l13 49h399l-13 -49q-49 -1 -63 -51l-254 -950q-5 -18 -5 -29q0 -21 16 -21l-6 -25q-199 -275 -500 -275q-299 0 -350 275l6 25q25 0 39 50l255 951q3 10 3 18q0 31 -41 31l15 50l399 1l-13 -50q-50 -1 -64 -51l-268 -1000
q-4 -14 -4 -26q0 -25 15 -44q22 -30 63 -30t78 29.5t48 70.5zM844 1750h300l-417 -250h-100z" />
    <glyph glyph-name="Ucircumflex" unicode="&#xdb;" horiz-adv-x="1000" 
d="M630 300l268 1000q3 11 3 20q0 30 -39 31l13 49h399l-13 -49q-49 -1 -63 -51l-254 -950q-5 -18 -5 -29q0 -21 16 -21l-6 -25q-199 -275 -500 -275q-299 0 -350 275l6 25q25 0 39 50l255 951q3 10 3 18q0 31 -41 31l15 50l399 1l-13 -50q-50 -1 -64 -51l-268 -1000
q-4 -14 -4 -26q0 -25 15 -44q22 -30 63 -30t78 29.5t48 70.5zM899 1675l-122 -175h-200l244 350h250l56 -350h-200z" />
    <glyph glyph-name="Udieresis" unicode="&#xdc;" horiz-adv-x="1000" 
d="M630 300l268 1000q3 11 3 20q0 30 -39 31l13 49h399l-13 -49q-49 -1 -63 -51l-254 -950q-5 -18 -5 -29q0 -21 16 -21l-6 -25q-199 -275 -500 -275q-299 0 -350 275l6 25q25 0 39 50l255 951q3 10 3 18q0 31 -41 31l15 50l399 1l-13 -50q-50 -1 -64 -51l-268 -1000
q-4 -14 -4 -26q0 -25 15 -44q22 -30 63 -30t78 29.5t48 70.5zM848 1714q17 -24 17 -55q0 -16 -5 -34q-14 -52 -60 -88.5t-98 -36.5t-79 37q-18 24 -18 54q0 16 5 34q14 52 60.5 88.5t98.5 36.5t79 -36zM1148 1714q17 -24 17 -55q0 -16 -5 -34q-14 -52 -60 -88.5t-98 -36.5
t-79 37q-18 24 -18 54q0 16 5 34q14 52 60.5 88.5t98.5 36.5t79 -36z" />
    <glyph glyph-name="Yacute" unicode="&#xdd;" horiz-adv-x="1000" 
d="M426 1280q-22 70 -64 70l13 50h50l251 1v-1h49l-13 -50q-26 0 -42 -14l-7 -536l283 537q-8 13 -34 13l13 50h350l-13 -50q-42 0 -105 -72l-424 -778l-107 -400q-3 -11 -3 -19q0 -31 40 -31l-13 -50h-400l13 50q50 0 65 50l107 401zM844 1750h300l-417 -250h-100z" />
    <glyph glyph-name="Thorn" unicode="&#xde;" horiz-adv-x="900" 
d="M618 1000l-147 -550h50q41 0 92 80.5t81 194.5q25 91 25 160q0 18 -2 35q-8 80 -49 80h-50zM417 250l-40 -151q-3 -11 -3 -19q0 -30 39 -30l-13 -50h-400l13 50q51 1 64 50l321 1200q3 11 3 19q0 31 -39 31l14 50h399l-13 -50q-50 0 -64 -50l-26 -100h50q166 0 246 -139
q47 -83 47 -188q0 -69 -21 -148q-53 -197 -207 -336t-320 -139h-50z" />
    <glyph glyph-name="germandbls" unicode="&#xdf;" horiz-adv-x="1000" 
d="M875 1400q145 0 216 -117q44 -72 44 -163q0 -56 -17 -120q-40 -149 -152 -259q6 -7 12 -15q53 -80 53 -180q0 -57 -17 -121q-47 -176 -197.5 -300.5t-316.5 -124.5l-37 50l27 100l64 50q41 0 86 58.5t67 141.5l7 25q17 63 17 113q0 25 -4 46q-12 66 -53 66l-36 50l26 100
l64 50q21 0 49 51.5t48 123.5q19 71 19 121v3q-1 51 -22 51h-100q-21 0 -49.5 -51t-54.5 -149l-241 -901q-3 -11 -3 -19q0 -30 39 -30l-13 -50h-400l13 50q51 1 64 50l241 900q44 166 178 283t279 117h100z" />
    <glyph glyph-name="agrave" unicode="&#xe0;" 
d="M319 194l-58 -141q8 -13 30 -13l-11 -40h-280l11 40q25 0 58 31l410 996q-8 13 -30 13l11 40h400l-11 -40q-22 0 -36 -13l-124 -996q17 -31 42 -31l-11 -40h-280l11 40q22 0 36 13l18 141q-64 -14 -97 -14t-89 14zM525 355l60 484l-200 -484q32 -15 66 -15t74 15z
M863 1200h-80l-227 200h240z" />
    <glyph glyph-name="aacute" unicode="&#xe1;" 
d="M319 194l-58 -141q8 -13 30 -13l-11 -40h-280l11 40q25 0 58 31l410 996q-8 13 -30 13l11 40h400l-11 -40q-22 0 -36 -13l-124 -996q17 -31 42 -31l-11 -40h-280l11 40q22 0 36 13l18 141q-64 -14 -97 -14t-89 14zM525 355l60 484l-200 -484q32 -15 66 -15t74 15z
M676 1400h240l-333 -200h-80z" />
    <glyph glyph-name="acircumflex" unicode="&#xe2;" 
d="M319 194l-58 -141q8 -13 30 -13l-11 -40h-280l11 40q25 0 58 31l410 996q-8 13 -30 13l11 40h400l-11 -40q-22 0 -36 -13l-124 -996q17 -31 42 -31l-11 -40h-280l11 40q22 0 36 13l18 141q-64 -14 -97 -14t-89 14zM525 355l60 484l-200 -484q32 -15 66 -15t74 15z
M719 1340l-97 -140h-160l195 280h200l45 -280h-160z" />
    <glyph glyph-name="atilde" unicode="&#xe3;" 
d="M319 194l-58 -141q8 -13 30 -13l-11 -40h-280l11 40q25 0 58 31l410 996q-8 13 -30 13l11 40h400l-11 -40q-22 0 -36 -13l-124 -996q17 -31 42 -31l-11 -40h-280l11 40q22 0 36 13l18 141q-64 -14 -97 -14t-89 14zM525 355l60 484l-200 -484q32 -15 66 -15t74 15z
M1009 1526l-42 -158q-57 -73 -98.5 -99t-75.5 -26q-35 0 -90.5 49.5t-89.5 49.5q-30 0 -71.5 -28.5t-105.5 -113.5l42 158q57 74 98.5 100t74.5 26q37 0 92.5 -50t87.5 -50q31 0 71.5 28.5t106.5 113.5z" />
    <glyph glyph-name="adieresis" unicode="&#xe4;" 
d="M319 194l-58 -141q8 -13 30 -13l-11 -40h-280l11 40q25 0 58 31l410 996q-8 13 -30 13l11 40h400l-11 -40q-22 0 -36 -13l-124 -996q17 -31 42 -31l-11 -40h-280l11 40q22 0 36 13l18 141q-64 -14 -97 -14t-89 14zM525 355l60 484l-200 -484q32 -15 66 -15t74 15z
M679 1371q13 -19 13 -43q0 -13 -4 -28q-11 -42 -47.5 -71t-78.5 -29t-63 29q-15 19 -15 44q0 13 4 27q12 42 48.5 71t78.5 29t64 -29zM919 1371q13 -19 13 -43q0 -13 -4 -28q-11 -42 -47.5 -71t-78.5 -29t-63 29q-15 19 -15 44q0 13 4 27q12 42 48.5 71t78.5 29t64 -29z" />
    <glyph glyph-name="aring" unicode="&#xe5;" 
d="M319 194l-58 -141q8 -13 30 -13l-11 -40h-280l11 40q25 0 58 31l410 996q-8 13 -30 13l11 40h400l-11 -40q-22 0 -36 -13l-124 -996q17 -31 42 -31l-11 -40h-280l11 40q22 0 36 13l18 141q-64 -14 -97 -14t-89 14zM525 355l60 484l-200 -484q32 -15 66 -15t74 15z
M877 1508q21 -33 21 -75q0 -25 -8 -53q-20 -75 -81 -127.5t-127 -52.5t-99 53q-21 32 -21 74q0 25 8 53q20 75 81 127.5t127 52.5t99 -52zM757 1480q-17 0 -36.5 -29.5t-30.5 -70.5q-8 -31 -8 -56q0 -7 1 -14q3 -30 20 -30t36.5 29.5t30.5 70.5q8 31 8 56v15q-4 29 -21 29z
" />
    <glyph glyph-name="ae" unicode="&#xe6;" horiz-adv-x="1060" 
d="M524 355l61 484l-199 -484q30 -15 65 -15t73 15zM491 191q-54 -11 -83 -11q-33 0 -89 14l-58 -141q8 -13 30 -13l-11 -40h-280l11 40q25 0 58 31l410 996q-8 13 -30 13l11 40h680q40 0 85 20q22 -54 22 -187v-33l-51 -40q2 7 2 14q0 33 -41 66h-220l-75 -280h160
q40 0 91 40l35 -20l-54 -200l-45 -20q-30 40 -70 40l-159 1l-97 -361h220q71 40 81 80l30 -40q-82 -160 -139 -220q-35 20 -75 20h-440l11 40q39 1 51 41z" />
    <glyph glyph-name="ccedilla" unicode="&#xe7;" horiz-adv-x="700" 
d="M310 -20q-130 3 -176 170q-21 73 -21 159q0 114 37 251q64 240 203 410t272 170q40 0 100 -10q19 -4 38 -4q35 0 62 14q22 -55 22 -196v-24l-51 -40q-19 80 -59 80h-160q-33 0 -87.5 -117t-99.5 -283q-44 -166 -52 -283q-2 -23 -2 -41q0 -76 27 -76h160q40 0 101 80
l30 -40q-83 -160 -139 -220q-15 11 -39 13q-2 -16 -7 -33q-22 -83 -96 -141.5t-157 -58.5h-80l-30 40l22 80l51 40h80q17 0 31.5 11.5t18.5 28.5q2 7 2 13q0 3 -1 7z" />
    <glyph glyph-name="egrave" unicode="&#xe8;" horiz-adv-x="680" 
d="M11 40q39 1 51 41l257 959q2 9 2 16q0 25 -31 25l10 39h440q40 0 85 20q22 -54 22 -187v-33l-51 -40q2 7 2 14q0 33 -41 66h-220l-75 -280h160q40 0 91 40l35 -20l-54 -200l-45 -20q-30 40 -70 40l-159 1l-97 -361h220q71 40 81 80l30 -40q-82 -160 -139 -220
q-35 20 -75 20h-440zM802 1200h-80l-227 200h240z" />
    <glyph glyph-name="eacute" unicode="&#xe9;" horiz-adv-x="680" 
d="M11 40q39 1 51 41l257 959q2 9 2 16q0 25 -31 25l10 39h440q40 0 85 20q22 -54 22 -187v-33l-51 -40q2 7 2 14q0 33 -41 66h-220l-75 -280h160q40 0 91 40l35 -20l-54 -200l-45 -20q-30 40 -70 40l-159 1l-97 -361h220q71 40 81 80l30 -40q-82 -160 -139 -220
q-35 20 -75 20h-440zM615 1400h240l-333 -200h-80z" />
    <glyph glyph-name="ecircumflex" unicode="&#xea;" horiz-adv-x="680" 
d="M11 40q39 1 51 41l257 959q2 9 2 16q0 25 -31 25l10 39h440q40 0 85 20q22 -54 22 -187v-33l-51 -40q2 7 2 14q0 33 -41 66h-220l-75 -280h160q40 0 91 40l35 -20l-54 -200l-45 -20q-30 40 -70 40l-159 1l-97 -361h220q71 40 81 80l30 -40q-82 -160 -139 -220
q-35 20 -75 20h-440zM659 1340l-97 -140h-160l195 280h200l45 -280h-160z" />
    <glyph glyph-name="edieresis" unicode="&#xeb;" horiz-adv-x="680" 
d="M11 40q39 1 51 41l257 959q2 9 2 16q0 25 -31 25l10 39h440q40 0 85 20q22 -54 22 -187v-33l-51 -40q2 7 2 14q0 33 -41 66h-220l-75 -280h160q40 0 91 40l35 -20l-54 -200l-45 -20q-30 40 -70 40l-159 1l-97 -361h220q71 40 81 80l30 -40q-82 -160 -139 -220
q-35 20 -75 20h-440zM618 1371q14 -20 14 -45q0 -12 -4 -26q-11 -41 -48 -70.5t-78 -29.5t-63 30q-15 19 -15 44q0 12 4 26q11 41 48.5 70.5t78.5 29.5t63 -29zM858 1371q14 -20 14 -45q0 -12 -4 -26q-11 -41 -48 -70.5t-78 -29.5t-63 30q-15 19 -15 44q0 12 4 26
q11 41 48.5 70.5t78.5 29.5t63 -29z" />
    <glyph glyph-name="igrave" unicode="&#xec;" horiz-adv-x="400" 
d="M300 1120h320l-11 -40q-40 0 -50 -40l-258 -960q-2 -8 -2 -14q0 -26 32 -26l-11 -40h-320l11 40q40 0 50 40l258 960q2 8 2 14q0 26 -32 26zM642 1200h-80l-227 200h240z" />
    <glyph glyph-name="iacute" unicode="&#xed;" horiz-adv-x="400" 
d="M300 1120h320l-11 -40q-40 0 -50 -40l-258 -960q-2 -8 -2 -14q0 -26 32 -26l-11 -40h-320l11 40q40 0 50 40l258 960q2 8 2 14q0 26 -32 26zM495 1400h240l-333 -200h-80z" />
    <glyph glyph-name="icircumflex" unicode="&#xee;" horiz-adv-x="400" 
d="M300 1120h320l-11 -40q-40 0 -50 -40l-258 -960q-2 -8 -2 -14q0 -26 32 -26l-11 -40h-320l11 40q40 0 50 40l258 960q2 8 2 14q0 26 -32 26zM519 1340l-97 -140h-160l195 280h200l45 -280h-160z" />
    <glyph glyph-name="idieresis" unicode="&#xef;" horiz-adv-x="400" 
d="M300 1120h320l-11 -40q-40 0 -50 -40l-258 -960q-2 -8 -2 -14q0 -26 32 -26l-11 -40h-320l11 40q40 0 50 40l258 960q2 8 2 14q0 26 -32 26zM477 1371q14 -20 14 -44q0 -13 -4 -27q-11 -41 -47.5 -70.5t-78.5 -29.5q-41 0 -63 30q-15 19 -15 44q0 12 4 26
q11 41 48.5 70.5t78.5 29.5q42 0 63 -29zM717 1371q14 -20 14 -44q0 -13 -4 -27q-11 -41 -47.5 -70.5t-78.5 -29.5q-41 0 -63 30q-15 19 -15 44q0 12 4 26q11 41 48.5 70.5t78.5 29.5q42 0 63 -29z" />
    <glyph glyph-name="eth" unicode="&#xf0;" horiz-adv-x="780" 
d="M254 800l65 240q2 8 2 14q0 26 -32 26l11 40h360q133 0 183 -164q21 -73 21 -159q0 -108 -34 -237q-62 -232 -199.5 -396t-270.5 -164h-360l11 40q39 0 50 40l150 560h-40l43 160h40zM494 800h80l-43 -160h-80l-127 -480h79q33 0 88 117t99 283q45 166 53 283q1 22 1 39
q0 78 -27 78l-80 1z" />
    <glyph glyph-name="ntilde" unicode="&#xf1;" 
d="M642 754l77 286q2 8 2 14q0 26 -32 26l12 40h319l-11 -40q-40 0 -50 -40l-258 -961q-2 -8 -2 -14q0 -25 32 -25l-11 -40h-320l11 40q40 1 50 40l65 240l-75 320l-150 -561q-2 -8 -2 -14q0 -25 32 -25l-11 -40h-320l11 40q40 1 50 40l258 960q2 8 2 14q0 26 -32 26l12 40
h239zM1009 1526l-42 -158q-57 -73 -98.5 -99t-75.5 -26q-35 0 -90.5 49.5t-89.5 49.5q-30 0 -71.5 -28.5t-105.5 -113.5l42 158q57 74 98.5 100t74.5 26q37 0 92.5 -50t87.5 -50q31 0 71.5 28.5t106.5 113.5z" />
    <glyph glyph-name="ograve" unicode="&#xf2;" horiz-adv-x="720" 
d="M577 960q-33 0 -87.5 -117t-99.5 -283q-44 -166 -52 -283q-2 -23 -2 -41q0 -76 27 -76q33 0 88 117t99 283q45 166 53 283q1 22 1 39q0 78 -27 78zM806 970q21 -73 21 -159q0 -114 -37 -251q-64 -240 -203 -410t-272 -170t-181 170q-21 73 -21 159q0 114 37 251
q64 240 203 410t272 170t181 -170zM822 1200h-80l-227 200h240z" />
    <glyph glyph-name="oacute" unicode="&#xf3;" horiz-adv-x="720" 
d="M577 960q-33 0 -87.5 -117t-99.5 -283q-44 -166 -52 -283q-2 -23 -2 -41q0 -76 27 -76q33 0 88 117t99 283q45 166 53 283q1 22 1 39q0 78 -27 78zM806 970q21 -73 21 -159q0 -114 -37 -251q-64 -240 -203 -410t-272 -170t-181 170q-21 73 -21 159q0 114 37 251
q64 240 203 410t272 170t181 -170zM635 1400h240l-333 -200h-80z" />
    <glyph glyph-name="ocircumflex" unicode="&#xf4;" horiz-adv-x="720" 
d="M577 960q-33 0 -87.5 -117t-99.5 -283q-44 -166 -52 -283q-2 -23 -2 -41q0 -76 27 -76q33 0 88 117t99 283q45 166 53 283q1 22 1 39q0 78 -27 78zM806 970q21 -73 21 -159q0 -114 -37 -251q-64 -240 -203 -410t-272 -170t-181 170q-21 73 -21 159q0 114 37 251
q64 240 203 410t272 170t181 -170zM679 1340l-97 -140h-160l195 280h200l45 -280h-160z" />
    <glyph glyph-name="otilde" unicode="&#xf5;" horiz-adv-x="720" 
d="M577 960q-33 0 -87.5 -117t-99.5 -283q-44 -166 -52 -283q-2 -23 -2 -41q0 -76 27 -76q33 0 88 117t99 283q45 166 53 283q1 22 1 39q0 78 -27 78zM806 970q21 -73 21 -159q0 -114 -37 -251q-64 -240 -203 -410t-272 -170t-181 170q-21 73 -21 159q0 114 37 251
q64 240 203 410t272 170t181 -170zM975 1526l-42 -158q-57 -73 -98.5 -99t-74.5 -26q-35 0 -90.5 49.5t-90.5 49.5q-30 0 -71 -28.5t-106 -113.5l42 158q58 74 99.5 100t73.5 26q38 0 93 -50t88 -50q30 0 71 28.5t106 113.5z" />
    <glyph glyph-name="odieresis" unicode="&#xf6;" horiz-adv-x="720" 
d="M577 960q-33 0 -87.5 -117t-99.5 -283q-44 -166 -52 -283q-2 -23 -2 -41q0 -76 27 -76q33 0 88 117t99 283q45 166 53 283q1 22 1 39q0 78 -27 78zM806 970q21 -73 21 -159q0 -114 -37 -251q-64 -240 -203 -410t-272 -170t-181 170q-21 73 -21 159q0 114 37 251
q64 240 203 410t272 170t181 -170zM639 1371q13 -19 13 -43q0 -13 -4 -28q-11 -42 -47.5 -71t-78.5 -29t-63 29q-15 19 -15 44q0 13 4 27q12 42 48.5 71t78.5 29t64 -29zM879 1371q13 -19 13 -43q0 -13 -4 -28q-11 -42 -47.5 -71t-78.5 -29t-63 29q-15 19 -15 44q0 13 4 27
q12 42 48.5 71t78.5 29t64 -29z" />
    <glyph glyph-name="divide" unicode="&#xf7;" 
d="M228 850h700l-54 -200h-700zM590 564q17 -24 17 -55q0 -16 -5 -34q-14 -52 -60 -88.5t-98 -36.5t-79 37q-18 24 -18 54q0 16 5 34q14 52 60.5 88.5t98.5 36.5t79 -36zM737 1114q18 -25 18 -55q0 -16 -5 -34q-14 -52 -60.5 -88.5t-98.5 -36.5t-78 37q-18 23 -18 54
q0 16 5 34q14 52 60 88.5t98 36.5t79 -36z" />
    <glyph glyph-name="oslash" unicode="&#xf8;" horiz-adv-x="720" 
d="M390 560l213 306v17q0 77 -26 77q-33 0 -87.5 -117t-99.5 -283zM187 39l-27 -39h-160l126 181q-13 60 -13 127q0 115 37 252q64 240 203 410t272 170q78 0 128 -59l27 39h160l-126 -181q13 -60 13 -127q0 -115 -37 -252q-64 -240 -203 -410t-272 -170q-78 0 -128 59z
M550 560l-213 -306v-17q0 -77 26 -77q33 0 88 117t99 283z" />
    <glyph glyph-name="ugrave" unicode="&#xf9;" 
d="M504 240l215 800q2 8 2 15q0 25 -31 26l10 39h319l-10 -39q-40 -1 -50 -41l-204 -760q-4 -14 -4 -23q0 -17 13 -17l-5 -20q-159 -220 -400 -220q-239 0 -280 220l5 20q20 0 31 40l204 761q2 8 2 14q0 25 -33 25l13 40l319 1l-10 -40q-41 -1 -51 -41l-215 -800
q-3 -11 -3 -21q0 -20 12 -35q17 -24 50 -24t62.5 23.5t38.5 56.5zM862 1200h-80l-227 200h240z" />
    <glyph glyph-name="uacute" unicode="&#xfa;" 
d="M504 240l215 800q2 8 2 15q0 25 -31 26l10 39h319l-10 -39q-40 -1 -50 -41l-204 -760q-4 -14 -4 -23q0 -17 13 -17l-5 -20q-159 -220 -400 -220q-239 0 -280 220l5 20q20 0 31 40l204 761q2 8 2 14q0 25 -33 25l13 40l319 1l-10 -40q-41 -1 -51 -41l-215 -800
q-3 -11 -3 -21q0 -20 12 -35q17 -24 50 -24t62.5 23.5t38.5 56.5zM675 1400h240l-333 -200h-80z" />
    <glyph glyph-name="ucircumflex" unicode="&#xfb;" 
d="M504 240l215 800q2 8 2 15q0 25 -31 26l10 39h319l-10 -39q-40 -1 -50 -41l-204 -760q-4 -14 -4 -23q0 -17 13 -17l-5 -20q-159 -220 -400 -220q-239 0 -280 220l5 20q20 0 31 40l204 761q2 8 2 14q0 25 -33 25l13 40l319 1l-10 -40q-41 -1 -51 -41l-215 -800
q-3 -11 -3 -21q0 -20 12 -35q17 -24 50 -24t62.5 23.5t38.5 56.5zM719 1340l-97 -140h-160l195 280h200l45 -280h-160z" />
    <glyph glyph-name="udieresis" unicode="&#xfc;" 
d="M504 240l215 800q2 8 2 15q0 25 -31 26l10 39h319l-10 -39q-40 -1 -50 -41l-204 -760q-4 -14 -4 -23q0 -17 13 -17l-5 -20q-159 -220 -400 -220q-239 0 -280 220l5 20q20 0 31 40l204 761q2 8 2 14q0 25 -33 25l13 40l319 1l-10 -40q-41 -1 -51 -41l-215 -800
q-3 -11 -3 -21q0 -20 12 -35q17 -24 50 -24t62.5 23.5t38.5 56.5zM679 1371q13 -19 13 -43q0 -13 -4 -28q-11 -42 -47.5 -71t-78.5 -29t-63 29q-15 19 -15 44q0 13 4 27q12 42 48.5 71t78.5 29t64 -29zM919 1371q13 -19 13 -43q0 -13 -4 -28q-11 -42 -47.5 -71t-78.5 -29
t-63 29q-15 19 -15 44q0 13 4 27q12 42 48.5 71t78.5 29t64 -29z" />
    <glyph glyph-name="yacute" unicode="&#xfd;" horiz-adv-x="820" 
d="M340 1024q-17 56 -51 56l11 40h40l201 1v-1h39l-11 -40q-21 0 -33 -11l-6 -429l227 430q-7 10 -28 10l11 40h280l-11 -40q-34 0 -83 -58l-340 -622l-86 -320q-2 -8 -2 -14q0 -26 33 -26l-11 -40h-320l11 40q40 0 51 40l86 321zM675 1400h240l-333 -200h-80z" />
    <glyph glyph-name="thorn" unicode="&#xfe;" horiz-adv-x="740" 
d="M494 800l-118 -440h40q33 0 74 64.5t65 155.5q20 72 20 128q0 14 -1 28q-7 64 -40 64h-40zM334 200l-33 -121q-2 -8 -2 -14q0 -25 32 -25l-11 -40h-320l11 40q40 1 50 40l258 960q2 8 2 14q0 26 -32 26l12 40h319l-11 -40q-40 0 -50 -40l-22 -80h40q133 0 197 -111
q38 -66 38 -150q0 -56 -17 -119q-42 -158 -165 -269t-256 -111h-40z" />
    <glyph glyph-name="ydieresis" unicode="&#xff;" horiz-adv-x="820" 
d="M340 1024q-17 56 -51 56l11 40h40l201 1v-1h39l-11 -40q-21 0 -33 -11l-6 -429l227 430q-7 10 -28 10l11 40h280l-11 -40q-34 0 -83 -58l-340 -622l-86 -320q-2 -8 -2 -14q0 -26 33 -26l-11 -40h-320l11 40q40 0 51 40l86 321zM679 1371q13 -19 13 -43q0 -13 -4 -28
q-11 -42 -47.5 -71t-78.5 -29t-63 29q-15 19 -15 44q0 13 4 27q12 42 48.5 71t78.5 29t64 -29zM919 1371q13 -19 13 -43q0 -13 -4 -28q-11 -42 -47.5 -71t-78.5 -29t-63 29q-15 19 -15 44q0 13 4 27q12 42 48.5 71t78.5 29t64 -29z" />
    <glyph glyph-name="dotlessi" unicode="&#x131;" horiz-adv-x="399" 
d="M300 1120h320l-11 -40q-40 0 -50 -40l-258 -960q-2 -8 -2 -14q0 -26 32 -26l-11 -40h-320l11 40q40 0 50 40l258 960q2 8 2 14q0 26 -32 26z" />
    <glyph glyph-name="OE" unicode="&#x152;" horiz-adv-x="1300" 
d="M722 1200q-41 0 -110 -146.5t-124 -353.5q-56 -207 -65 -353q-2 -28 -2 -51q0 -96 33 -96q41 0 109.5 146.5t124.5 353.5q55 207 65 354q2 28 2 51q0 95 -33 95zM508 0q-58 -25 -115 -25q-166 0 -226 213q-26 90 -26 196q0 144 47 316q80 300 254 512.5t340 212.5
q57 0 101 -25h492q50 0 107 25q27 -65 27 -222q0 -25 -1 -53l-63 -50q2 9 2 18q0 41 -50 82h-275l-94 -350h200q50 0 113 50l43 -25l-67 -250l-56 -25q-37 50 -87 50l-200 1l-120 -451h275q88 50 101 100l37 -50q-103 -200 -174 -275q-43 25 -93 25h-492z" />
    <glyph glyph-name="oe" unicode="&#x153;" horiz-adv-x="1040" 
d="M577 960q-33 0 -87.5 -117t-99.5 -283q-44 -166 -52 -283q-2 -23 -2 -41q0 -76 27 -76q33 0 88 117t99 283q45 166 53 283q1 22 1 39q0 78 -27 78zM406 0q-45 -20 -91 -20q-133 0 -181 170q-21 73 -21 159q0 114 37 251q64 240 203 410t272 170q46 0 81 -20h394
q40 0 85 20q22 -54 22 -187v-33l-51 -40q2 7 2 14q0 33 -41 66h-220l-75 -280h160q40 0 91 40l35 -20l-54 -200l-45 -20q-30 40 -70 40l-159 1l-97 -361h220q71 40 81 80l30 -40q-82 -160 -139 -220q-35 20 -75 20h-394z" />
    <glyph glyph-name="circumflex" unicode="&#x2c6;" horiz-adv-x="650" 
d="M724 1675l-122 -175h-200l244 350h250l56 -350h-200z" />
    <glyph glyph-name="caron" unicode="&#x2c7;" horiz-adv-x="650" 
d="M724 1675l122 175h200l-244 -350h-250l-56 350h200z" />
    <glyph glyph-name="uni02C9" unicode="&#x2c9;" horiz-adv-x="1024" 
d="M574 1195l34 125h516l-34 -125h-516z" />
    <glyph glyph-name="breve" unicode="&#x2d8;" horiz-adv-x="1024" 
d="M580 1349h51v-6q0 -68 47 -101q49 -34 158 -34t175 33.5t102 107.5h51q-55 -133 -147.5 -201.5t-215.5 -68.5q-122 0 -178 69q-46 55 -46 151q0 24 3 50z" />
    <glyph glyph-name="dotaccent" unicode="&#x2d9;" horiz-adv-x="1024" 
d="M767 1289l89 72q7 6 15 9t15 3q6 0 11.5 -3t10.5 -9l50 -76q4 -4 5 -10v-3q0 -5 -2 -11q-4 -9 -7.5 -15t-10.5 -12l-92 -76q-15 -11 -19.5 -13.5t-7.5 -2.5q-10 0 -16 2.5t-8 8.5l-52 87q-3 4 -3 10q-1 1 -1 2q0 5 2 11t7 12.5t14 13.5z" />
    <glyph glyph-name="ring" unicode="&#x2da;" horiz-adv-x="1024" 
d="M748 1257q-4 -14 -4 -27q0 -25 14 -44q21 -29 63 -29t79 29t48 71q4 13 4 26q0 24 -15 44q-22 29 -63 29t-78 -29.5t-48 -69.5zM672 1257q20 75 84.5 126t138.5 51q76 0 114 -51q25 -34 25 -78q0 -22 -7 -48q-20 -75 -85.5 -126.5t-141.5 -51.5q-74 0 -111 52
q-24 33 -24 76q0 24 7 50z" />
    <glyph glyph-name="ogonek" unicode="&#x2db;" horiz-adv-x="500" 
d="M210.5 -14.5q-18.5 -14.5 -23.5 -35.5q-2 -8 -2 -14q0 -12 7 -21q10 -15 31 -15h100l37 -50l-27 -100l-63 -50h-100q-104 0 -157 73q-36 48 -36 109q0 32 10 68q27 104 120 177t197 73l-54 -200q-21 0 -39.5 -14.5z" />
    <glyph glyph-name="tilde" unicode="&#x2dc;" horiz-adv-x="700" 
d="M1109 1900l-53 -197q-70 -91 -121 -123.5t-92 -32.5q-44 0 -113 61.5t-111 61.5q-37 0 -87.5 -35.5t-131.5 -141.5l53 197q70 92 122 125t92 33q46 0 114.5 -62.5t108.5 -62.5q37 0 87.5 35.5t131.5 141.5z" />
    <glyph glyph-name="hungarumlaut" unicode="&#x2dd;" horiz-adv-x="1024" 
d="M506 1079l217 273q36 44 62.5 63t51.5 19q28 0 43 -20q10 -13 10 -29q0 -9 -3 -18q-4 -16 -19.5 -35t-41.5 -41l-262 -212h-58zM791 1079l217 273q36 44 62.5 63t51.5 19q28 0 43 -20q10 -13 10 -29q0 -9 -3 -18q-4 -16 -19.5 -35t-41.5 -41l-262 -212h-58z" />
    <glyph glyph-name="endash" unicode="&#x2013;" horiz-adv-x="900" 
d="M228 850h800l-54 -200h-800z" />
    <glyph glyph-name="emdash" unicode="&#x2014;" horiz-adv-x="1000" 
d="M228 850h900l-54 -200h-900z" />
    <glyph glyph-name="quoteleft" unicode="&#x2018;" horiz-adv-x="350" 
d="M498 1349q44 -3 68 -35q17 -24 17 -54q0 -17 -5 -35q-14 -52 -60 -88.5t-98 -36.5t-79 37q-18 24 -18 54q0 16 5 34q47 175 274 275l37 -50q-89 -50 -141 -101z" />
    <glyph glyph-name="quoteright" unicode="&#x2019;" horiz-adv-x="350" 
d="M435 1201q-43 3 -67 36q-18 24 -18 54q0 16 5 34q14 52 60.5 88.5t98.5 36.5t79 -36q17 -24 17 -55q0 -16 -5 -34q-47 -175 -274 -275l-36 50q88 50 140 101z" />
    <glyph glyph-name="quotesinglbase" unicode="&#x201a;" horiz-adv-x="350" 
d="M113 1q-43 3 -66 36q-18 24 -18 56q0 15 4 32q14 52 60.5 88.5t98.5 36.5t79 -36q17 -24 17 -55q0 -16 -5 -34q-46 -175 -273 -275l-37 50q89 50 140 101z" />
    <glyph glyph-name="quotedblleft" unicode="&#x201c;" horiz-adv-x="650" 
d="M798 1349q44 -3 68 -35q17 -24 17 -54q0 -17 -5 -35q-14 -52 -60 -88.5t-98 -36.5t-79 37q-18 24 -18 54q0 16 5 34q47 175 274 275l37 -50q-89 -50 -141 -101zM498 1349q44 -3 68 -35q17 -24 17 -54q0 -17 -5 -35q-14 -52 -60 -88.5t-98 -36.5t-79 37q-18 24 -18 54
q0 16 5 34q47 175 274 275l37 -50q-89 -50 -141 -101z" />
    <glyph glyph-name="quotedblright" unicode="&#x201d;" horiz-adv-x="650" 
d="M448 1251q-43 3 -66 36q-19 24 -19 55q0 16 5 33q14 52 60.5 88.5t98.5 36.5t79 -36q17 -24 17 -55q0 -16 -5 -34q-46 -175 -273 -275l-37 50q89 50 140 101zM748 1251q-43 3 -66 36q-19 24 -19 55q0 16 5 33q14 52 60.5 88.5t98.5 36.5t79 -36q17 -24 17 -55
q0 -16 -5 -34q-46 -175 -273 -275l-37 50q89 50 140 101z" />
    <glyph glyph-name="quotedblbase" unicode="&#x201e;" horiz-adv-x="650" 
d="M113 1q-43 3 -66 36q-18 24 -18 56q0 15 4 32q14 52 60.5 88.5t98.5 36.5t79 -36q17 -24 17 -55q0 -16 -5 -34q-46 -175 -273 -275l-37 50q89 50 140 101zM413 1q-43 3 -66 36q-18 24 -18 56q0 15 4 32q14 52 60.5 88.5t98.5 36.5t79 -36q17 -24 17 -55q0 -16 -5 -34
q-46 -175 -273 -275l-37 50q89 50 140 101z" />
    <glyph glyph-name="dagger" unicode="&#x2020;" horiz-adv-x="1014" 
d="M760 1022q8 42 8 80q0 52 -14 98q-24 82 -24 116q0 8 1 13q13 49 57 78.5t104 29.5q57 0 87 -27q22 -21 22 -50q0 -10 -3 -22q-9 -32 -92 -137q-69 -85 -103 -179q98 8 191 54q117 57 145 57q49 0 69 -36q11 -20 11 -47q0 -22 -7 -49q-15 -57 -52.5 -94.5t-82.5 -37.5
q-32 0 -121 55q-73 46 -164 57q-13 -60 -13 -112q0 -99 49 -165q-230 -460 -373 -974h-38q131 514 147 974q129 101 185 277q-99 -10 -193 -55q-116 -57 -144 -57q-49 0 -69 36q-11 20 -11 47q0 22 7 49q15 57 53 94.5t82 37.5q32 0 122 -56q72 -46 164 -55z" />
    <glyph glyph-name="daggerdbl" unicode="&#x2021;" horiz-adv-x="1014" 
d="M578 186q97 11 194 57q119 55 151 55q45 0 63 -37q9 -20 9 -45q0 -23 -8 -50q-16 -60 -55.5 -96t-88.5 -36q-28 0 -114 57q-68 46 -162 54q-7 -39 -7 -76q0 -53 14 -103q20 -79 20 -116q0 -13 -2 -21q-12 -44 -56.5 -71.5t-101.5 -27.5q-60 0 -88 30q-20 19 -20 48
q0 14 5 30q7 28 91 129q68 81 102 178q-97 -9 -194 -55q-120 -56 -152 -56q-44 0 -61 38q-10 20 -10 46q0 22 7 48q17 60 56 96t88 36q28 0 114 -57q70 -45 163 -55q24 108 24 203q0 105 -29 195q148 171 218 397q-99 -10 -193 -55q-116 -57 -144 -57q-49 0 -69 36
q-11 20 -11 47q0 22 7 49q15 57 53 94.5t82 37.5q32 0 122 -56q72 -46 164 -55q8 42 8 80q0 52 -14 98q-24 82 -24 116q0 8 1 13q13 49 57 78.5t104 29.5q57 0 87 -27q22 -21 22 -50q0 -10 -3 -22q-9 -32 -92 -137q-69 -85 -103 -179q98 8 191 54q117 57 145 57q49 0 69 -36
q11 -20 11 -47q0 -22 -7 -49q-15 -57 -52.5 -94.5t-82.5 -37.5q-32 0 -121 55q-73 46 -164 57q-26 -110 -26 -207q0 -102 29 -190q-148 -172 -216 -398z" />
    <glyph glyph-name="bullet" unicode="&#x2022;" horiz-adv-x="1024" 
d="M408 718q33 123 143 209t233 86q122 0 186 -86q41 -57 41 -130q0 -37 -11 -79q-32 -122 -143 -209.5t-233 -87.5q-123 0 -186 87q-41 57 -41 130q0 38 11 80z" />
    <glyph glyph-name="ellipsis" unicode="&#x2026;" horiz-adv-x="950" 
d="M271 214q17 -24 17 -55q0 -16 -5 -34q-13 -52 -59.5 -88.5t-98.5 -36.5t-78 37q-18 24 -18 55q0 16 4 33q14 52 60.5 88.5t98.5 36.5t79 -36zM571 214q17 -24 17 -55q0 -16 -5 -34q-13 -52 -59.5 -88.5t-98.5 -36.5t-78 37q-18 24 -18 55q0 16 4 33q14 52 60.5 88.5
t98.5 36.5t79 -36zM871 214q17 -24 17 -55q0 -16 -5 -34q-13 -52 -59.5 -88.5t-98.5 -36.5t-78 37q-18 24 -18 55q0 16 4 33q14 52 60.5 88.5t98.5 36.5t79 -36z" />
    <glyph glyph-name="perthousand" unicode="&#x2030;" horiz-adv-x="1600" 
d="M658 1150q-21 0 -47 -44t-43 -106q-14 -53 -14 -92v-14q3 -44 24 -44t47 44t43 106q14 53 14 92v14q-3 44 -24 44zM897 550q-21 0 -47 -44t-43 -106q-14 -54 -14 -94q0 -6 1 -12q2 -44 23 -44t47.5 44t42.5 106q14 53 14 92v14q-3 44 -24 44zM1297 550q-21 0 -47 -44
t-43 -106q-14 -54 -14 -94q0 -6 1 -12q2 -44 23 -44t47.5 44t42.5 106q14 53 14 92v14q-3 44 -24 44zM609 659q-42 -9 -85 -9q-145 0 -220 103q-49 67 -49 153q0 44 13 94q39 145 169 247.5t275 102.5t220 -102q24 -34 37 -72l156 224h200l-458 -659q41 9 84 9
q113 0 183 -62q104 62 217 62q145 0 220 -102q49 -68 49 -154q0 -44 -13 -94q-39 -145 -169 -247.5t-275 -102.5q-113 0 -183 62q-104 -62 -217 -62q-145 0 -219 103q-25 33 -38 71l-156 -224h-200z" />
    <glyph glyph-name="guilsinglleft" unicode="&#x2039;" 
d="M434 750l413 -200l-53 -200l-620 300l54 200l780 300l-53 -200z" />
    <glyph glyph-name="guilsinglright" unicode="&#x203a;" 
d="M255 950l53 200l620 -300l-54 -200l-780 -300l53 200l521 200z" />
    <glyph glyph-name="fraction" unicode="&#x2044;" horiz-adv-x="900" 
d="M200 0h-200l975 1400h200z" />
    <glyph glyph-name="fraction" unicode="&#x2215;" horiz-adv-x="900" 
d="M200 0h-200l975 1400h200z" />
    <glyph glyph-name="franc" unicode="&#x20a3;" horiz-adv-x="850" 
d="M104 200l294 1100q3 11 3 20q0 31 -39 31l13 49h550q50 0 107 25q27 -65 27 -222q0 -25 -1 -53l-63 -50q2 9 2 18q0 41 -50 82h-275l-94 -350h200q50 0 113 50l43 -25l-67 -250l-56 -25q-37 50 -87 50l-200 1l-120 -451h200l-54 -200h-200l-27 -100q-3 -10 -3 -19
q0 -31 40 -31l-14 -50h-400l14 50q49 1 63 51l27 99h-50l54 200h50z" />
    <glyph glyph-name="lira" unicode="&#x20a4;" horiz-adv-x="950" 
d="M471 450l-67 -250h375q88 50 101 100l37 -50q-103 -200 -174 -275q-43 25 -93 25h-650l13 50q50 1 64 51l94 349h-50l53 200h50l27 100q14 51 30 100h-53l53 200h84q61 115 140 213q174 212 340 212q50 0 75 -12q24 -5 47 -5q44 0 78 17q27 -68 27 -240v-35l-64 -50
q-23 100 -73 100h-150q-41 0 -109 -146q-13 -26 -25 -54h330l-53 -200h-348q-15 -48 -29 -100l-27 -100h350l-53 -200h-350z" />
    <glyph glyph-name="peseta" unicode="&#x20a7;" horiz-adv-x="900" 
d="M672 1200l-148 -550h50q41 0 92 80.5t82 194.5q24 91 24 161q0 17 -1 34q-8 80 -49 80h-50zM104 200l294 1100q3 11 3 19q0 31 -39 31l14 50h399q166 0 246 -139q48 -84 48 -188q0 -69 -21 -148q-53 -197 -207 -336t-320 -139h-50l-67 -250h200l-54 -200h-200l-27 -101
q-3 -10 -3 -18q0 -31 40 -31l-14 -50h-400l14 50q50 1 63 50l27 100h-50l54 200h50z" />
    <glyph glyph-name="Euro" unicode="&#x20ac;" horiz-adv-x="950" 
d="M534 450q-8 -55 -11 -103q-2 -29 -2 -52q0 -95 33 -95h200q50 0 126 100l37 -50q-104 -200 -174 -275q-25 17 -69 17q-23 0 -49 -5q-82 -12 -132 -12q-166 0 -226 213q-25 90 -25 196q0 32 2 66h-123l53 200h101q6 25 13 50q20 78 48 150h-108l53 200h148q51 87 113 163
q174 212 340 212q50 0 125 -12q23 -5 46 -5q44 0 79 17q26 -66 26 -230v-45l-63 -50q-23 100 -73 100h-200q-41 0 -110 -146l-2 -4h271l-53 -200h-296q-23 -71 -44 -150l-14 -50h300l-53 -200h-287z" />
    <glyph glyph-name="uni2116" unicode="&#x2116;" horiz-adv-x="975" 
d="M589 1171l48 179q1 5 1 9q0 16 -20 16l8 25h199l-7 -25q-25 0 -31 -25l-161 -600q-2 -5 -2 -10q0 -15 20 -15l-6 -25h-200l6 25q26 1 32 25l40 150l-46 200l-94 -350q-2 -5 -2 -10q0 -15 20 -15l-6 -25h-200l6 25q26 1 32 25l161 600q1 5 1 9q0 16 -20 16l8 25h149z
M1023 1300q-20 0 -54.5 -73t-62.5 -177q-27 -103 -32 -176q-1 -15 -1 -27q0 -47 16 -47q21 0 55.5 73.5t61.5 176.5q28 104 33 177q1 14 1 25q0 48 -17 48zM1167 1307q13 -45 13 -98q0 -72 -24 -159q-40 -150 -127 -256t-170 -106t-113 106q-13 45 -13 99q0 71 23 157
q41 150 128 256.5t170 106.5t113 -106z" />
    <glyph glyph-name="trademark" unicode="&#x2122;" horiz-adv-x="1125" 
d="M475 1400h200q25 0 53 12q14 -35 14 -125v-12l-32 -25q1 3 1 6q0 20 -26 44h-62l-147 -550q-2 -5 -2 -10q0 -15 20 -15l-6 -25h-200l6 25q25 0 32 25l147 550h-63q-43 -25 -50 -50l-18 25q51 100 87 138q21 -13 46 -13zM953 850l-58 250l-94 -350q-1 -5 -1 -9
q0 -16 19 -16l-6 -25h-200l6 25q25 0 33 26l160 599q1 5 1 9q0 16 -20 16l8 25h175l-14 -50l58 -250l192 250l13 50h175l-7 -25q-25 0 -31 -25l-161 -599q-2 -6 -2 -10q0 -16 20 -16l-6 -25h-200l6 25q25 0 32 25l95 350z" />
    <glyph glyph-name="partialdiff" unicode="&#x2202;" horiz-adv-x="1650" 
d="M0 200v1100q0 200 200 200h1100q200 0 200 -200v-1100q0 -200 -200 -200h-1100q-200 0 -200 200zM1475 201v1099q0 175 -175 175h-1100q-174 0 -175 -175v-1100q1 -175 175 -175h1101q174 0 174 176z" />
    <glyph glyph-name="Delta" unicode="&#x2206;" horiz-adv-x="1650" 
d="M0 200v1100q0 200 200 200h1100q200 0 200 -200v-1100q0 -200 -200 -200h-1100q-200 0 -200 200zM1475 201v1099q0 175 -175 175h-1100q-174 0 -175 -175v-1100q1 -175 175 -175h1101q174 0 174 176z" />
    <glyph glyph-name="product" unicode="&#x220f;" horiz-adv-x="1650" 
d="M0 200v1100q0 200 200 200h1100q200 0 200 -200v-1100q0 -200 -200 -200h-1100q-200 0 -200 200zM1475 201v1099q0 175 -175 175h-1100q-174 0 -175 -175v-1100q1 -175 175 -175h1101q174 0 174 176z" />
    <glyph glyph-name="summation" unicode="&#x2211;" horiz-adv-x="1650" 
d="M0 200v1100q0 200 200 200h1100q200 0 200 -200v-1100q0 -200 -200 -200h-1100q-200 0 -200 200zM1475 201v1099q0 175 -175 175h-1100q-174 0 -175 -175v-1100q1 -175 175 -175h1101q174 0 174 176z" />
    <glyph glyph-name="minus" unicode="&#x2212;" 
d="M228 850h700l-54 -200h-700z" />
    <glyph glyph-name="approxequal" unicode="&#x2248;" horiz-adv-x="1650" 
d="M0 200v1100q0 200 200 200h1100q200 0 200 -200v-1100q0 -200 -200 -200h-1100q-200 0 -200 200zM1475 201v1099q0 175 -175 175h-1100q-174 0 -175 -175v-1100q1 -175 175 -175h1101q174 0 174 176z" />
    <glyph glyph-name="lessequal" unicode="&#x2264;" horiz-adv-x="1650" 
d="M0 200v1100q0 200 200 200h1100q200 0 200 -200v-1100q0 -200 -200 -200h-1100q-200 0 -200 200zM1475 201v1099q0 175 -175 175h-1100q-174 0 -175 -175v-1100q1 -175 175 -175h1101q174 0 174 176z" />
    <glyph glyph-name="greaterequal" unicode="&#x2265;" horiz-adv-x="1650" 
d="M0 200v1100q0 200 200 200h1100q200 0 200 -200v-1100q0 -200 -200 -200h-1100q-200 0 -200 200zM1475 201v1099q0 175 -175 175h-1100q-174 0 -175 -175v-1100q1 -175 175 -175h1101q174 0 174 176z" />
    <glyph glyph-name="uniF001" unicode="&#xf001;" horiz-adv-x="1073" 
 />
    <glyph glyph-name="uniF001" unicode="&#xfb01;" horiz-adv-x="1073" 
 />
    <glyph glyph-name="uniF002" unicode="&#xf002;" horiz-adv-x="1081" 
 />
    <glyph glyph-name="uniF002" unicode="&#xfb02;" horiz-adv-x="1081" 
 />
    </font>
</defs>
</svg>
